<?xml version="1.0" encoding="UTF-8"?>
<svg width="20px" preserveAspectRatio="none" height="16px" viewBox="0 0 20 16" version="1.1" xmlns="http://www.w3.org/2000/svg" xmlns:xlink="http://www.w3.org/1999/xlink">
    <!-- Generator: Sketch 51.1 (57501) - http://www.bohemiancoding.com/sketch -->
    <title>back arrow</title>
    <desc>Created with Sketch.</desc>
    <defs>
        <polygon id="path-1" points="0.00233918129 0.010331384 19.9610526 0.010331384 19.9610526 15.2023392 0.00233918129 15.2023392"></polygon>
    </defs>
    <g id="Dashboard" stroke="none" stroke-width="1" fill="none" fill-rule="evenodd">
        <g id="tapping-on-DOB-fields" transform="translate(-20.000000, -36.000000)">
            <g id="back-icon" transform="translate(20.000000, 36.000000)">
                <g id="Group">
                    <mask id="mask-2" fill="white">
                        <use xlink:href="#path-1"></use>
                    </mask>
                    <g id="Clip-2"></g>
                    <path d="M9.61918129,0.707212476 L0.800779727,7.208577 C0.53208577,7.40666667 0.53208577,7.80834308 0.800779727,8.00647173 L9.61918129,14.5078363 C9.94643275,14.7490838 10.4089279,14.5154386 10.4089279,14.1088889 L10.4089279,1.10612086 C10.4089279,0.69957115 9.94643275,0.465925926 9.61918129,0.707212476" id="Fill-1" fill="#41CBC7" mask="url(#mask-2)"></path>
                    <path d="M9.8097076,13.9037817 L1.26951267,7.60752437 L9.8097076,1.31122807 L9.8097076,13.9037817 Z M18.6341131,3.2528655 L14.2167251,3.2528655 C13.4851072,3.2528655 12.8898246,3.84814815 12.8898246,4.57976608 L12.8898246,8.28666667 C12.8898246,8.61762183 13.1581676,8.88592593 13.4890838,8.88592593 C13.819961,8.88592593 14.0883041,8.61762183 14.0883041,8.28666667 L14.0883041,4.57976608 C14.0883041,4.50892788 14.1459259,4.45134503 14.2167251,4.45134503 L18.6341131,4.45134503 C18.7049123,4.45134503 18.7625341,4.50892788 18.7625341,4.57976608 L18.7625341,10.6352827 C18.7625341,10.7061209 18.7049123,10.7637037 18.6341131,10.7637037 L11.0081871,10.7637037 L11.0081871,1.10612086 C11.0081871,0.501910331 10.5161404,0.010331384 9.91138402,0.010331384 C9.67793372,0.010331384 9.45391813,0.0845224172 9.26358674,0.224873294 L0.445185185,6.72623782 C0.166393762,6.93177388 0,7.26116959 0,7.60752437 C0,7.95391813 0.166393762,8.28331384 0.445185185,8.48881092 L9.26358674,14.9902144 C9.45391813,15.1304873 9.67793372,15.2046784 9.91138402,15.2046784 C10.1939181,15.2046784 10.462924,15.097232 10.6688499,14.9019883 C10.8876023,14.6945419 11.0081871,14.4128265 11.0081871,14.1088889 L11.0081871,11.9621442 L18.634152,11.9621442 C19.36577,11.9621442 19.9610526,11.3668616 19.9610526,10.6352437 L19.9610526,4.57976608 C19.9610136,3.84810916 19.365731,3.2528655 18.6341131,3.2528655 Z" id="Fill-3" fill="#000000" mask="url(#mask-2)"></path>
                </g>
            </g>
        </g>
    </g>
</svg>