<?xml version="1.0" encoding="UTF-8"?>
<svg width="26px" preserveAspectRatio="none" height="26px" viewBox="0 0 26 26" version="1.1" xmlns="http://www.w3.org/2000/svg" xmlns:xlink="http://www.w3.org/1999/xlink">
    <!-- Generator: Sketch 51.1 (57501) - http://www.bohemiancoding.com/sketch -->
    <title>daye added</title>
    <desc>Created with Sketch.</desc>
    <defs>
        <polygon id="path-1" points="0.0012890625 0.000107421875 10.999957 0.000107421875 10.999957 11 0.0012890625 11"></polygon>
    </defs>
    <g id="My-network" stroke="none" stroke-width="1" fill="none" fill-rule="evenodd">
        <g id="my-network-sort-function" transform="translate(-176.000000, -135.000000)">
            <g id="sort-by-menu" transform="translate(20.000000, 135.000000)">
                <g id="date-added" transform="translate(156.000000, 0.000000)">
                    <g id="Group">
                        <g id="Group-4" transform="translate(0.000000, 2.536585)">
                            <path d="M21.7675805,0.798073171 L4.20718049,0.798073171 C2.29136098,0.798073171 0.738209756,2.3512878 0.738209756,4.26729756 L0.738209756,6.83831707 L25.2365512,6.83831707 L25.2365512,4.26729756 C25.2365512,2.3512878 23.6834,0.798073171 21.7675805,0.798073171 Z" id="Fill-1" fill="#00BCD4"></path>
                            <path d="M25.2365512,7.57627317 L0.738209756,7.57627317 C0.330453659,7.57627317 0,7.24581951 0,6.83812683 L0,4.26710732 C0,1.94746341 1.88734634,0.0601804878 4.20718049,0.0601804878 L21.7675805,0.0601804878 C24.0874146,0.0601804878 25.974761,1.94727317 25.974761,4.26710732 L25.974761,6.83812683 C25.974761,7.24581951 25.6440537,7.57627317 25.2365512,7.57627317 Z M1.47610244,6.10017073 L24.4983415,6.10017073 L24.4983415,4.26729756 C24.4983415,2.76145366 23.2734244,1.53628293 21.7675805,1.53628293 L4.20718049,1.53628293 C2.70133659,1.53628293 1.47610244,2.76145366 1.47610244,4.26729756 L1.47610244,6.10017073 Z" id="Fill-3" fill="#000000"></path>
                        </g>
                        <path d="M5.6064878,5.17989756 C4.79446341,5.17989756 4.13038537,4.5157561 4.13038537,3.70379512 L4.13038537,2.22762927 C4.13038537,1.41566829 4.79446341,0.751526829 5.6064878,0.751526829 C6.41825854,0.751526829 7.08265366,1.41566829 7.08265366,2.22762927 L7.08265366,3.70379512 C7.08265366,4.5157561 6.41825854,5.17989756 5.6064878,5.17989756 Z" id="Fill-9" fill="#00BCD4"></path>
                        <path d="M5.60623415,5.91810732 C4.38550244,5.91810732 3.39217561,4.92478049 3.39217561,3.70379512 L3.39217561,2.22762927 C3.39217561,1.0066439 4.38550244,0.0133170732 5.60623415,0.0133170732 C6.82721951,0.0133170732 7.82054634,1.0066439 7.82054634,2.22762927 L7.82054634,3.70379512 C7.82054634,4.92478049 6.82721951,5.91810732 5.60623415,5.91810732 Z M5.60623415,1.48948293 C5.19949268,1.48948293 4.86834146,1.82063415 4.86834146,2.22762927 L4.86834146,3.70379512 C4.86834146,4.11079024 5.19949268,4.44194146 5.60623415,4.44194146 C6.01322927,4.44194146 6.3444439,4.11079024 6.3444439,3.70379512 L6.3444439,2.22762927 C6.3444439,1.82063415 6.01348293,1.48948293 5.60623415,1.48948293 Z" id="Fill-10" fill="#000000"></path>
                        <path d="M12.9873805,5.17989756 C12.1753561,5.17989756 11.5112146,4.5157561 11.5112146,3.70379512 L11.5112146,2.22762927 C11.5112146,1.41566829 12.1753561,0.751526829 12.9873805,0.751526829 C13.7993415,0.751526829 14.4634829,1.41566829 14.4634829,2.22762927 L14.4634829,3.70379512 C14.4634829,4.5157561 13.7993415,5.17989756 12.9873805,5.17989756 Z" id="Fill-11" fill="#00BCD4"></path>
                        <path d="M12.9873805,5.91810732 C11.7663951,5.91810732 10.7730683,4.92478049 10.7730683,3.70379512 L10.7730683,2.22762927 C10.7730683,1.0066439 11.7663951,0.0133170732 12.9873805,0.0133170732 C14.2083659,0.0133170732 15.201439,1.0066439 15.201439,2.22762927 L15.201439,3.70379512 C15.201439,4.92478049 14.2083659,5.91810732 12.9873805,5.91810732 Z M12.9873805,1.48948293 C12.5803854,1.48948293 12.2491707,1.82063415 12.2491707,2.22762927 L12.2491707,3.70379512 C12.2491707,4.11079024 12.5803854,4.44194146 12.9873805,4.44194146 C13.394122,4.44194146 13.7253366,4.11079024 13.7253366,3.70379512 L13.7253366,2.22762927 C13.7253366,1.82063415 13.3943756,1.48948293 12.9873805,1.48948293 Z" id="Fill-12" fill="#000000"></path>
                        <path d="M20.3682098,5.17989756 C19.5565024,5.17989756 18.8921073,4.5157561 18.8921073,3.70379512 L18.8921073,2.22762927 C18.8921073,1.41566829 19.5565024,0.751526829 20.3682098,0.751526829 C21.1802341,0.751526829 21.8443756,1.41566829 21.8443756,2.22762927 L21.8443756,3.70379512 C21.8443756,4.5157561 21.1799805,5.17989756 20.3682098,5.17989756 Z" id="Fill-13" fill="#00BCD4"></path>
                        <path d="M20.3682098,5.91810732 C19.1472878,5.91810732 18.1538976,4.92478049 18.1538976,3.70379512 L18.1538976,2.22762927 C18.1538976,1.0066439 19.1472878,0.0133170732 20.3682098,0.0133170732 C21.5891951,0.0133170732 22.582522,1.0066439 22.582522,2.22762927 L22.582522,3.70379512 C22.582522,4.92478049 21.5891951,5.91810732 20.3682098,5.91810732 Z M20.3682098,1.48948293 C19.9612146,1.48948293 19.6300634,1.82063415 19.6300634,2.22762927 L19.6300634,3.70379512 C19.6300634,4.11079024 19.9612146,4.44194146 20.3682098,4.44194146 C20.7752049,4.44194146 21.1061659,4.11079024 21.1061659,3.70379512 L21.1061659,2.22762927 C21.1061659,1.82063415 20.7752049,1.48948293 20.3682098,1.48948293 Z" id="Fill-14" fill="#000000"></path>
                        <g id="Group-18" transform="translate(0.000000, 8.624390)" fill="#000000">
                            <path d="M25.2365512,11.9939902 C24.8290488,11.9939902 24.4983415,11.6635366 24.4983415,11.2558439 L24.4983415,0.750321951 C24.4983415,0.342819512 24.8290488,0.0123658537 25.2365512,0.0123658537 C25.6440537,0.0123658537 25.974761,0.342819512 25.974761,0.750321951 L25.974761,11.2558439 C25.974761,11.6635366 25.6440537,11.9939902 25.2365512,11.9939902 Z" id="Fill-15"></path>
                            <path d="M24.0586878,17.3609122 L2.68174146,17.3609122 C1.2029122,17.3609122 0,16.1580634 0,14.6791707 L0,1.75032195 C0,1.34281951 0.330453659,1.01236585 0.738209756,1.01236585 C1.14564878,1.01236585 1.47610244,1.34281951 1.47610244,1.75032195 L1.47610244,14.6791707 C1.47610244,15.3440732 2.01690244,15.8848098 2.68174146,15.8848098 L24.0586878,15.8848098 C24.4661268,15.8848098 24.7968341,16.2152634 24.7968341,16.6227659 C24.7965805,17.030522 24.4661268,17.3609122 24.0586878,17.3609122 Z" id="Fill-17"></path>
                        </g>
                    </g>
                    <g id="add-new-icon" transform="translate(8.000000, 12.000000)">
                        <g id="Group">
                            <mask id="mask-2" fill="white">
                                <use xlink:href="#path-1"></use>
                            </mask>
                            <g id="Clip-2"></g>
                            <polyline id="Fill-1" fill="#00BCD4" mask="url(#mask-2)" points="4.08929297 4.08935742 0.357177734 4.08940039 0.357177734 6.91081445 4.08929297 6.91081445 4.08925 10.6429297 6.91070703 10.6429297 6.91070703 6.91081445 4.08929297 4.08935742"></polyline>
                            <path d="M6.55357227,10.2857734 L4.44642773,10.2857734 L4.44642773,6.91081445 C4.44642773,6.89884766 4.44582617,6.88694531 4.44464453,6.87517188 C4.44378516,6.86649219 4.44228125,6.85798438 4.44082031,6.84947656 C4.4402832,6.84651172 4.44004688,6.84348242 4.4394668,6.84051758 C4.43742578,6.83026953 4.4347832,6.82023633 4.43186133,6.81031055 C4.43149609,6.80912891 4.43128125,6.8079043 4.4309375,6.80676563 C4.42786523,6.79668945 4.42425586,6.78682813 4.42032422,6.77716016 C4.41989453,6.77608594 4.41957227,6.77496875 4.41914258,6.7739375 C4.41536133,6.76480664 4.41104297,6.75593359 4.40650977,6.74723242 C4.40567188,6.74562109 4.40500586,6.74390234 4.40414648,6.74229102 C4.39993555,6.7344707 4.39525195,6.72697266 4.39050391,6.71951758 C4.38895703,6.71711133 4.38764648,6.71457617 4.38607813,6.71223438 C4.38156641,6.70550977 4.37660352,6.69915039 4.37168359,6.69279102 C4.3694707,6.68993359 4.36749414,6.68694727 4.36517383,6.68411133 C4.35939453,6.67708594 4.35314258,6.67042578 4.34684766,6.66387305 C4.34510742,6.66204688 4.34360352,6.66007031 4.34182031,6.65828711 C4.34014453,6.65661133 4.33825391,6.65515039 4.33653516,6.65349609 C4.32985352,6.64711523 4.32312891,6.64079883 4.31599609,6.63493359 C4.31335352,6.63276367 4.31045313,6.63085156 4.30774609,6.62878906 C4.30121484,6.62371875 4.29470508,6.61864844 4.28785156,6.61407227 C4.28563867,6.61256836 4.28327539,6.61136523 4.28101953,6.60992578 C4.27341406,6.60507031 4.26574414,6.6002793 4.25777344,6.59602539 C4.25626953,6.59525195 4.25470117,6.59460742 4.25319727,6.5938125 C4.24438867,6.58925781 4.2354082,6.58489648 4.22616992,6.5810293 C4.22516016,6.58059961 4.22408594,6.58032031 4.22309766,6.57989063 C4.21338672,6.57595898 4.20348242,6.57232813 4.1933418,6.56925586 C4.19211719,6.56889063 4.19091406,6.56867578 4.18968945,6.56831055 C4.17980664,6.56543164 4.16979492,6.56278906 4.15958984,6.56074805 C4.15658203,6.56014648 4.15350977,6.55988867 4.15052344,6.55935156 C4.14205859,6.55789063 4.13359375,6.55638672 4.12493555,6.55552734 C4.11316211,6.5543457 4.10125977,6.55374414 4.08929297,6.55374414 L0.714333984,6.55374414 L0.714333984,4.44668555 L3.94133008,4.44668555 L6.55357227,7.05888477 L6.55357227,10.2857734 Z M10.6428223,3.73220117 L7.26790625,3.73220117 L7.26790625,0.357285156 C7.26790625,0.160015625 7.10797656,0.000107421875 6.91075,0.000107421875 L4.08925,0.000107421875 C3.89202344,0.000107421875 3.73209375,0.160015625 3.73209375,0.357285156 L3.73209375,3.73220117 L0.357177734,3.73220117 C0.159951172,3.73220117 0,3.89210937 0,4.08935742 L0,6.91077148 C0,6.92273828 0.0006015625,6.93464062 0.00182617188,6.94641406 C0.00268554688,6.95498633 0.00414648438,6.96338672 0.00560742188,6.97178711 C0.00614453125,6.97485938 0.00640234375,6.97799609 0.007046875,6.98106836 C0.00904492188,6.99105859 0.0116445313,7.00085547 0.0144375,7.01052344 C0.0148671875,7.01196289 0.0151035156,7.01342383 0.0155332031,7.01486328 C0.0184980469,7.02463867 0.0220429688,7.03417773 0.0258242188,7.04360937 C0.0263613281,7.04496289 0.0267480469,7.04635937 0.027328125,7.04771289 C0.0310019531,7.0565 0.0351914063,7.0650293 0.0395097656,7.07347266 C0.0404980469,7.07542773 0.0413144531,7.07742578 0.0423671875,7.07935937 C0.0463632813,7.08681445 0.0508535156,7.09401172 0.0554082031,7.10110156 C0.0571054688,7.10385156 0.0586523438,7.10670898 0.0604355469,7.1094375 C0.0645390625,7.11558203 0.0691152344,7.12131836 0.0735839844,7.12718359 C0.0761835938,7.13062109 0.0785683594,7.13423047 0.0813183594,7.13753906 C0.085765625,7.14293164 0.0906425781,7.1479375 0.0953691406,7.15307227 C0.0984628906,7.15644531 0.101320313,7.16001172 0.104607422,7.16325586 C0.107894531,7.16654297 0.111503906,7.16944336 0.114898438,7.17258008 C0.120011719,7.17730664 0.124974609,7.18211914 0.130324219,7.18654492 C0.13371875,7.18933789 0.137371094,7.19176562 0.140873047,7.1944082 C0.146652344,7.19883398 0.152410156,7.20336719 0.15846875,7.20744922 C0.161304688,7.20933984 0.164269531,7.2109082 0.167126953,7.21269141 C0.174152344,7.21711719 0.181199219,7.22154297 0.188525391,7.22551758 C0.190695313,7.22669922 0.192972656,7.22758008 0.195164063,7.22871875 C0.203328125,7.2329082 0.211599609,7.23699023 0.220128906,7.24051367 C0.221912109,7.24126562 0.223802734,7.24180273 0.225585938,7.24251172 C0.234566406,7.24607812 0.243589844,7.24947266 0.252914063,7.25230859 C0.255126953,7.25297461 0.257447266,7.2534043 0.259660156,7.25404883 C0.268554688,7.25658398 0.277513672,7.25901172 0.286666016,7.26083789 C0.291242188,7.26176172 0.295947266,7.26223437 0.300566406,7.26294336 C0.307462891,7.26406055 0.314273438,7.26534961 0.321320313,7.26605859 C0.333179688,7.26724023 0.345146484,7.26788477 0.357134766,7.26788477 L3.73205078,7.26788477 L3.73205078,10.6428223 C3.73205078,10.8400918 3.89200195,11 4.08922852,11 L6.91066406,11 C7.10789063,11 7.2678418,10.8400918 7.2678418,10.6428223 L7.2678418,6.91081445 C7.2678418,6.89884766 7.26724023,6.88694531 7.26605859,6.87517188 C7.26519922,6.86649219 7.26369531,6.85798437 7.26223438,6.84947656 C7.26169727,6.84651172 7.26143945,6.84348242 7.26088086,6.84051758 C7.25883984,6.83026953 7.25619727,6.82023633 7.25327539,6.81031055 C7.25291016,6.80912891 7.25269531,6.8079043 7.25237305,6.80676562 C7.24930078,6.79668945 7.24566992,6.78682812 7.24175977,6.77716016 C7.24133008,6.77608594 7.24100781,6.77496875 7.24057813,6.7739375 C7.23679688,6.76480664 7.23247852,6.75593359 7.22794531,6.74723242 C7.22712891,6.74562109 7.22644141,6.74390234 7.22558203,6.74229102 C7.22137109,6.7344707 7.2166875,6.72697266 7.21193945,6.71951758 C7.21041406,6.71711133 7.20908203,6.71457617 7.20751367,6.71223437 C7.20302344,6.70550977 7.19803906,6.69915039 7.19311914,6.69279102 C7.19090625,6.68993359 7.18895117,6.68692578 7.18660938,6.68411133 C7.18083008,6.67708594 7.17457813,6.67042578 7.16830469,6.66387305 C7.16654297,6.66204687 7.16503906,6.66007031 7.16325586,6.65828711 L4.44642773,3.94145898 L4.44642773,0.714441406 L6.5535293,0.714441406 L6.5535293,4.08935742 C6.5535293,4.28662695 6.71348047,4.44653516 6.91070703,4.44653516 L10.285623,4.44653516 L10.285623,6.55363672 L8.89311328,6.55363672 C8.69588672,6.55363672 8.53593555,6.71354492 8.53593555,6.91081445 C8.53593555,7.10808398 8.69588672,7.26799219 8.89311328,7.26799219 L10.6428008,7.26799219 C10.8400273,7.26799219 10.999957,7.10808398 10.999957,6.91081445 L10.999957,4.08935742 C11,3.89210937 10.8400488,3.73220117 10.6428223,3.73220117 Z" id="Fill-3" fill="#000000" mask="url(#mask-2)"></path>
                        </g>
                    </g>
                </g>
            </g>
        </g>
    </g>
</svg>