<?xml version="1.0" encoding="UTF-8"?>
<svg width="18px" preserveAspectRatio="none" height="18px" viewBox="0 0 18 18" version="1.1" xmlns="http://www.w3.org/2000/svg" xmlns:xlink="http://www.w3.org/1999/xlink">
    <!-- Generator: Sketch 51.1 (57501) - http://www.bohemiancoding.com/sketch -->
    <title>accept icon</title>
    <desc>Created with Sketch.</desc>
    <defs></defs>
    <g id="Symbols" stroke="none" stroke-width="1" fill="none" fill-rule="evenodd">
        <g id="contact-request-bubble" transform="translate(-295.000000, -23.000000)">
            <g id="accept-copy" transform="translate(287.000000, 20.000000)">
                <g id="reject-icon" transform="translate(6.000000, 0.000000)">
                    <g id="Group" transform="translate(2.750000, 3.000000)">
                        <path d="M2.69843481,17.9986289 C2.00714282,17.9986289 1.31578638,17.7115078 0.789462158,17.1374063 C-0.263154053,15.9890273 -0.263154053,14.1206133 0.789462158,12.9723047 L7.28791626,5.88308203 C7.49352173,5.65889063 7.82674438,5.65889063 8.03238208,5.88308203 C8.23795532,6.10730859 8.23795532,6.47089453 8.03238208,6.69519141 L1.53392798,13.7844492 C0.891781494,14.4849375 0.891781494,15.6248086 1.53392798,16.3252969 C2.17604224,17.0258906 3.22085962,17.02575 3.86297388,16.3252969 L14.9636067,4.21555078 C15.6057209,3.5150625 15.6057209,2.37519141 14.9636067,1.67470313 C14.321428,0.974074219 13.2766106,0.974179688 12.6345286,1.67470313 L10.9625823,3.49860938 C10.7569768,3.72280078 10.4237864,3.72280078 10.2181165,3.49860938 C10.0125754,3.27438281 10.0125754,2.91079688 10.2181165,2.6865 L11.8900627,0.862558594 C12.9427112,-0.285609375 14.6553596,-0.285679687 15.7080081,0.862558594 C16.760592,2.01083203 16.760592,3.87928125 15.7080081,5.027625 L4.60740747,17.1374063 C4.08108325,17.7115078 3.38975903,17.9986289 2.69843481,17.9986289" id="Fill-1" fill="#000000"></path>
                        <path d="M15.3357913,16.7313516 C14.4870725,17.6572266 13.1109983,17.6572266 12.2622795,16.7313516 L1.16167896,4.62160547 C0.312927979,3.69569531 0.312927979,2.19455859 1.16167896,1.26864844 C2.01039771,0.342773437 3.38647192,0.342773437 4.23519067,1.26864844 L15.3357913,13.3783945 C16.1845422,14.3043047 16.1845422,15.8054414 15.3357913,16.7313516" id="Fill-3" fill="#00BCD4"></path>
                        <path d="M2.69843481,1.14844922 C2.25857446,1.14844922 1.84494653,1.33530469 1.53392798,1.67470312 C0.891781494,2.37519141 0.891781494,3.5150625 1.53392798,4.21555078 L12.6345286,16.3252969 C12.9455793,16.6646953 13.3592073,16.8515508 13.7990999,16.8515508 C14.238928,16.8515508 14.6525559,16.6646953 14.9636067,16.3252969 C15.2746897,15.9860039 15.4459739,15.5347734 15.4459739,15.0548906 C15.4459739,14.5750078 15.2746897,14.1237773 14.9636067,13.7844492 L3.86297388,1.67470312 C3.55195532,1.33530469 3.13832739,1.14844922 2.69843481,1.14844922 Z M13.7990354,18 C13.0779016,18 12.3999836,17.6936484 11.8900305,17.1374414 L0.789462158,5.02769531 C-0.263154053,3.87935156 -0.263154053,2.01097266 0.789462158,0.86259375 C1.29941528,0.306351562 1.97733325,0 2.69843481,0 C3.4195686,0 4.09748657,0.306351562 4.6074397,0.862558594 L15.7080725,12.9723047 C16.2179612,13.5286172 16.498719,14.2681641 16.498719,15.0548906 C16.498719,15.841582 16.2178967,16.5811289 15.7080725,17.1374414 C15.1980872,17.6936484 14.5201692,18 13.7990354,18 Z" id="Fill-4" fill="#000000"></path>
                    </g>
                </g>
            </g>
        </g>
    </g>
</svg>