<?xml version="1.0" encoding="UTF-8"?>
<svg width="19px" preserveAspectRatio="none" height="24px" viewBox="0 0 19 24" version="1.1" xmlns="http://www.w3.org/2000/svg" xmlns:xlink="http://www.w3.org/1999/xlink">
    <!-- Generator: Sketch 51.1 (57501) - http://www.bohemiancoding.com/sketch -->
    <title>history icon</title>
    <desc>Created with Sketch.</desc>
    <defs></defs>
    <g id="patient-home" stroke="none" stroke-width="1" fill="none" fill-rule="evenodd">
        <g id="patient-home---contact" transform="translate(-334.000000, -84.000000)">
            <g id="history-icon" transform="translate(331.000000, 84.000000)">
                <g id="Group" transform="translate(3.000000, 0.000000)">
                    <path d="M4.66643275,15.3067602 L9.30460819,12.030924 L13.9427836,15.3067602 C14.688,15.833076 15.1343626,16.7111579 15.1343626,17.6504327 L15.1343626,20.6109942 L3.47476023,20.6109942 L3.47476023,17.6504327 C3.47476023,16.7111111 3.92121637,15.833076 4.66643275,15.3067602" id="Fill-1" fill="#00BCD4"></path>
                    <path d="M4.18414035,17.6504327 C4.18414035,16.9400234 4.51738012,16.2804678 5.07560234,15.8861754 L9.30451462,12.8993216 L13.5334737,15.8861754 C14.0916959,16.2804678 14.4249357,16.9399298 14.4249357,17.6504327 L14.4249357,19.8876257 L4.18414035,19.8876257 L4.18414035,17.6504327 Z M17.8996959,19.8875789 L15.8437427,19.8875789 L15.8437427,17.650386 C15.8437427,16.4797661 15.2861287,15.3870877 14.3520468,14.7272982 L9.824,11.5291696 L5.07560234,8.15700585 C4.51738012,7.76276023 4.18414035,7.10325146 4.18414035,6.39274854 L4.18414035,4.14498246 L14.4250292,4.14498246 L14.4250292,6.39279532 C14.4250292,7.10325146 14.0917427,7.76280702 13.5335673,8.15709942 C13.2134737,8.38306433 13.1373099,8.82573099 13.3633684,9.14573099 C13.5894737,9.46573099 14.0320936,9.54184795 14.3520468,9.31588304 C15.2861754,8.65618713 15.8438363,7.5634152 15.8438363,6.39279532 L15.8438363,4.14498246 L17.8997895,4.14498246 C18.2915088,4.14498246 18.6091228,3.8274152 18.6091228,3.43560234 C18.6091228,3.04383626 18.2915088,2.72626901 17.8997895,2.72626901 L17.4427135,2.72626901 L17.4427135,0.756070175 C17.4427135,0.36425731 17.1250994,0.0466900585 16.7333801,0.0466900585 L9.0325614,0.0466900585 C8.64084211,0.0466900585 8.32318129,0.36425731 8.32318129,0.756070175 C8.32318129,1.14783626 8.64084211,1.46540351 9.0325614,1.46540351 L16.0239532,1.46540351 L16.0239532,2.72626901 L15.1994854,2.72626901 C15.1780117,2.72425731 15.1563977,2.72299415 15.1344094,2.72299415 L3.47476023,2.72299415 C3.45277193,2.72299415 3.43106433,2.72435088 3.40963743,2.72626901 L2.58521637,2.72626901 L2.58521637,1.46540351 L5.09216374,1.46540351 C5.48388304,1.46540351 5.80154386,1.14783626 5.80154386,0.756070175 C5.80154386,0.36425731 5.48388304,0.0466900585 5.09216374,0.0466900585 L1.87583626,0.0466900585 C1.48411696,0.0466900585 1.16650292,0.36425731 1.16650292,0.756070175 L1.16650292,2.72626901 L0.709426901,2.72626901 C0.317707602,2.72626901 9.35672515e-05,3.04383626 9.35672515e-05,3.43560234 C9.35672515e-05,3.8274152 0.317707602,4.14498246 0.709426901,4.14498246 L2.76538012,4.14498246 L2.76538012,6.39279532 C2.76538012,7.5634152 3.32304094,8.65614035 4.25712281,9.31588304 L8.08795322,12.021614 L4.25712281,14.727345 C3.32304094,15.3870877 2.76538012,16.4798596 2.76538012,17.6504327 L2.76538012,19.8876257 L0.709380117,19.8876257 C0.317660819,19.8876257 0,20.2052398 0,20.5970058 C0,20.9887719 0.317660819,21.306386 0.709380117,21.306386 L1.16640936,21.306386 L1.16640936,23.2906199 C1.16640936,23.682386 1.48407018,24 1.87578947,24 L9.57651462,24 C9.96823392,24 10.2858947,23.682386 10.2858947,23.2906199 C10.2858947,22.898807 9.96823392,22.5812398 9.57651462,22.5812398 L2.58521637,22.5812398 L2.58521637,21.3204211 L16.0239532,21.3204211 L16.0239532,22.5812398 L13.5169591,22.5812398 C13.1252398,22.5812398 12.8075789,22.898807 12.8075789,23.2906199 C12.8075789,23.682386 13.1252398,24 13.5169591,24 L16.7332865,24 C17.1250058,24 17.4426667,23.682386 17.4426667,23.2906199 L17.4426667,21.306386 L17.8996959,21.306386 C18.2914152,21.306386 18.609076,20.9887719 18.609076,20.5970058 C18.609076,20.2052398 18.2915088,19.8875789 17.8996959,19.8875789 Z" id="Fill-3" fill="#000000"></path>
                </g>
            </g>
        </g>
    </g>
</svg>