<?xml version="1.0" encoding="UTF-8"?>
<svg width="22px" preserveAspectRatio="none" height="26px" viewBox="0 0 22 26" version="1.1" xmlns="http://www.w3.org/2000/svg" xmlns:xlink="http://www.w3.org/1999/xlink">
    <!-- Generator: Sketch 51.1 (57501) - http://www.bohemiancoding.com/sketch -->
    <title>alphabetical</title>
    <desc>Created with Sketch.</desc>
    <defs>
        <polygon id="path-1" points="0.00379562044 0.0253041363 7.24849635 0.0253041363 7.24849635 25.9321217 0.00379562044 25.9321217"></polygon>
    </defs>
    <g id="My-network" stroke="none" stroke-width="1" fill="none" fill-rule="evenodd">
        <g id="my-network-sort-function" transform="translate(-107.000000, -135.000000)">
            <g id="sort-by-menu" transform="translate(20.000000, 135.000000)">
                <g id="alphabetical" transform="translate(85.000000, 0.000000)">
                    <g id="Group" transform="translate(2.000000, 0.000000)">
                        <path d="M19.4718491,25.9368662 L5.42925547,25.9368662 C5.02375669,25.9368662 4.69511922,25.6079124 4.69511922,25.2026667 L4.69511922,0.764184915 C4.69511922,0.358686131 5.02375669,0.0299854015 5.42925547,0.0299854015 L19.4718491,0.0299854015 C20.5455036,0.0299854015 21.4190657,0.903294404 21.4190657,1.97701217 L21.4190657,14.2267445 C21.4190657,14.6319903 21.0904282,14.960944 20.6848662,14.960944 C20.2793674,14.960944 19.9507299,14.6319903 19.9507299,14.2267445 L19.9507299,1.97701217 C19.9507299,1.71283698 19.7357713,1.49806813 19.4718491,1.49806813 L6.16345499,1.49806813 L6.16345499,24.4685304 L19.4718491,24.4685304 C19.7359611,24.4685304 19.9507299,24.2537616 19.9507299,23.9898394 L19.9507299,18.3013431 C19.9507299,17.8960973 20.2793674,17.5672068 20.6848662,17.5672068 C21.0904282,17.5672068 21.4190657,17.8960973 21.4190657,18.3013431 L21.4190657,23.9898394 C21.4190657,25.0633041 20.5455036,25.9368662 19.4718491,25.9368662 Z" id="Fill-1" fill="#000000"></path>
                        <g id="Group-5">
                            <mask id="mask-2" fill="white">
                                <use xlink:href="#path-1"></use>
                            </mask>
                            <g id="Clip-3"></g>
                            <path d="M6.5143601,25.1979854 L2.53288078,25.1979854 C1.53950365,25.1979854 0.734136253,24.392871 0.734136253,23.3994939 L0.734136253,2.55818491 C0.734136253,1.56480779 1.53950365,0.759440389 2.53288078,0.759440389 L6.5143601,0.759440389 L6.5143601,25.1979854 Z" id="Fill-2" fill="#00BCD4" mask="url(#mask-2)"></path>
                            <path d="M6.5143601,25.9321217 L2.53288078,25.9321217 C1.13621898,25.9321217 0,24.7959027 0,23.3994939 L0,2.55818491 C0,1.16152311 1.13621898,0.0253041363 2.53288078,0.0253041363 L6.5143601,0.0253041363 C6.91985888,0.0253041363 7.24849635,0.353941606 7.24849635,0.759440389 L7.24849635,25.1979854 C7.24849635,25.6034842 6.91985888,25.9321217 6.5143601,25.9321217 Z M2.53288078,1.4936399 C1.94576156,1.4936399 1.46833577,1.97106569 1.46833577,2.55818491 L1.46833577,23.3992409 C1.46833577,23.9864234 1.94576156,24.4637859 2.53288078,24.4637859 L5.78016058,24.4637859 L5.78016058,1.4936399 L2.53288078,1.4936399 Z" id="Fill-4" fill="#000000" mask="url(#mask-2)"></path>
                        </g>
                        <path d="M10.2585499,8.49301703 C10.2585499,8.47131873 10.2656983,8.44215572 10.27291,8.41324574 L11.6216204,3.99071533 C11.7012019,3.73691484 12.0276253,3.61362044 12.360944,3.61362044 C12.6945791,3.61362044 13.0207494,3.73691484 13.1005839,3.99071533 L14.456253,8.41324574 C14.4636545,8.44215572 14.4708029,8.47131873 14.4708029,8.49301703 C14.4708029,8.76117762 14.0576496,8.95684185 13.7457762,8.95684185 C13.5646618,8.95684185 13.4193528,8.89883212 13.3760827,8.74656448 L13.1294939,7.84042336 L11.5998589,7.84042336 L11.3532701,8.74656448 C11.309747,8.89883212 11.164691,8.95684185 10.9835766,8.95684185 C10.6717032,8.95684185 10.2585499,8.76117762 10.2585499,8.49301703 Z M12.8903066,6.97034063 L12.360944,5.02729927 L11.8316448,6.97034063 L12.8903066,6.97034063 Z" id="Fill-6" fill="#000000"></path>
                        <path d="M10.6210949,10.6792311 C10.6210949,10.4471922 10.8674307,10.3310462 11.1140827,10.3310462 L12.6001946,10.3310462 C13.3254745,10.3310462 14.0502482,10.5922482 14.0502482,11.6216837 C14.0502482,12.2091192 13.8184623,12.5931095 13.4341557,12.759927 C13.8762822,12.9266813 14.180944,13.1948418 14.180944,13.9201217 L14.180944,14.072073 C14.180944,15.2176545 13.5429002,15.6310608 12.7234891,15.6310608 L11.1140827,15.6310608 C10.8096107,15.6310608 10.6210949,15.471455 10.6210949,15.2903406 L10.6210949,10.6792311 Z M11.7446618,12.3250122 L12.506,12.3250122 C12.781562,12.3250122 12.9192165,12.0712117 12.9192165,11.8248127 C12.9192165,11.5708224 12.781309,11.3172749 12.506,11.3172749 L11.7446618,11.3172749 L11.7446618,12.3250122 Z M12.4696886,14.6448954 C12.8322336,14.6448954 13.0496594,14.4420195 13.0496594,13.9779416 L13.0496594,13.8620487 C13.0496594,13.3690608 12.8322336,13.1948418 12.4696886,13.1948418 L11.7446618,13.1948418 L11.7446618,14.6448954 L12.4696886,14.6448954 Z" id="Fill-7" fill="#000000"></path>
                        <path d="M12.3463942,17.9912409 C11.9332409,17.9912409 11.6939903,18.2232798 11.6939903,18.7162676 L11.6939903,20.6375474 C11.6939903,21.1305353 11.9332409,21.3625742 12.3535426,21.3625742 C12.9337664,21.3625742 12.9698248,20.9202579 12.9915864,20.6375474 C13.0133479,20.3694501 13.2599367,20.296764 13.5497956,20.296764 C13.9415036,20.296764 14.122618,20.3983601 14.122618,20.8332749 C14.122618,21.7974891 13.3395182,22.3485499 12.302871,22.3485499 C11.353017,22.3485499 10.5627689,21.8847251 10.5627689,20.6375474 L10.5627689,18.7162676 C10.5627689,17.46909 11.3532701,17.0052652 12.302871,17.0052652 C13.3395182,17.0052652 14.122618,17.527163 14.122618,18.4479173 C14.122618,18.8830852 13.9415036,18.984365 13.5572603,18.984365 C13.2527883,18.984365 13.0061995,18.9045304 12.9915864,18.6438345 C12.984438,18.4550657 12.9626764,17.9912409 12.3463942,17.9912409 Z" id="Fill-8" fill="#000000"></path>
                    </g>
                </g>
            </g>
        </g>
    </g>
</svg>