<?xml version="1.0" encoding="UTF-8"?>
<svg width="24px" height="24px" preserveAspectRatio="none" viewBox="0 0 24 24" version="1.1" xmlns="http://www.w3.org/2000/svg" xmlns:xlink="http://www.w3.org/1999/xlink">
    <!-- Generator: Sketch 51.1 (57501) - http://www.bohemiancoding.com/sketch -->
    <title>appointment to do list icon copy 2</title>
    <desc>Created with Sketch.</desc>
    <defs></defs>
    <g id="patient-home" stroke="none" stroke-width="1" fill="none" fill-rule="evenodd">
        <g id="patient-home---contact--history-swipe" transform="translate(-310.000000, -344.000000)">
            <g id="create-note" transform="translate(310.000000, 344.000000)">
                <g id="Group">
                    <g id="Group-3" fill="#FFFFFF">
                        <path d="M14.7771679,23.9417226 L1.87246715,23.9417226 C0.840116788,23.9417226 0,23.1016058 0,22.0689635 L0,1.89582482 C0,0.863474453 0.840116788,0.0233576642 1.87246715,0.0233576642 L17.5023066,0.0233576642 C18.5348905,0.0233576642 19.3750073,0.863474453 19.3750073,1.89582482 L19.3750073,5.496 L17.9678248,5.496 L17.9678248,1.89582482 C17.9678248,1.63924088 17.7591241,1.43030657 17.5023066,1.43030657 L1.87246715,1.43030657 C1.61588321,1.43030657 1.40694891,1.63924088 1.40694891,1.89582482 L1.40694891,22.0689635 C1.40694891,22.3258394 1.61588321,22.5345401 1.87246715,22.5345401 L14.1945693,22.5345401 L17.9680584,18.7612847 L17.9680584,11.1225693 L19.3750073,11.1225693 L19.3750073,19.3440584 L14.7771679,23.9417226 Z" id="Fill-1"></path>
                    </g>
                    <polygon id="Fill-4" fill="#FFFFFF" points="4 8.40718248 10.1229197 8.40718248 10.1229197 7 4 7"></polygon>
                    <polygon id="Fill-5" fill="#FFFFFF" transform="translate(7.061460, 7.703474) rotate(-270.000000) translate(-7.061460, -7.703474) " points="4 8.40694891 10.1229197 8.40694891 10.1229197 7 4 7"></polygon>
                    <polygon id="Fill-6" fill="#FFFFFF" points="3.9160292 18.3137518 10.0389489 18.3137518 10.0389489 16.9068029 3.9160292 16.9068029"></polygon>
                    <path d="M10.4744526,13.950365 L9.14481752,17.166365 C8.94756204,17.643562 9.35994161,18.0557664 9.83713869,17.8584526 L13.0531387,16.5288175 C13.2328759,16.4544818 13.3010803,16.2272701 13.1799708,16.1061606 L10.8971095,13.8232993 C10.776,13.7021898 10.5487883,13.7703942 10.4744526,13.950365 Z" id="Fill-7" fill="#00BCD4"></path>
                    <path d="M9.59468613,18.6125547 C9.18908029,18.6125547 8.8150073,18.4147737 8.59351825,18.0837956 C8.36566423,17.7427737 8.32870073,17.2993869 8.49477372,16.8976934 L9.82435036,13.6814599 C9.97833577,13.3091971 10.3480876,13.0589197 10.7447591,13.0589197 C10.9915328,13.0589197 11.2224234,13.1538102 11.3946277,13.326073 L13.6774891,15.6086423 C13.8941898,15.8255766 13.9869781,16.1388029 13.9256642,16.4469489 C13.860146,16.7761168 13.6343358,17.0498102 13.321635,17.1791533 L10.105635,18.5085547 C9.93909489,18.5774015 9.76712409,18.6125547 9.59468613,18.6125547 Z M10.8829781,14.8039124 L9.9550365,17.0484672 L12.1995912,16.1205255 L10.8829781,14.8039124 Z" id="Fill-8" fill="#FFFFFF"></path>
                    <path d="M13.2499854,16.3529927 L21.1112993,8.49185401 L18.5114161,5.89220438 L10.6503358,13.7532847 C10.6435036,13.7601168 13.2431533,16.3600584 13.2499854,16.3529927 Z" id="Fill-9" fill="#00BCD4"></path>
                    <path d="M13.5389781,17.0591533 L13.243854,17.0566423 C12.9573723,17.0541314 12.8111533,16.9104234 12.6418686,16.7441752 C12.5693431,16.6729927 12.4666861,16.5715036 12.3437664,16.4492263 C12.0994453,16.2070073 11.7752993,15.8835036 11.4509781,15.5594161 C10.0597372,14.1681752 10.0597372,14.1681752 9.99906569,14.0199124 L9.82207299,13.5867445 L18.5114161,4.89722628 L22.1060438,8.49185401 L13.5389781,17.0591533 Z M11.6409927,13.7576058 C12.0981022,14.2172263 12.7860438,14.9052263 13.2458978,15.3623358 L20.1163212,8.49185401 L18.5114161,6.88694891 L11.6409927,13.7576058 Z" id="Fill-10" fill="#FFFFFF"></path>
                    <path d="M21.1131095,8.4900438 L22.6740438,6.92916788 C22.9913577,6.61185401 22.9913577,6.09705109 22.6740438,5.77973723 L21.2237664,4.32945985 C20.9064526,4.0119708 20.3916496,4.0119708 20.0741606,4.32945985 L18.5134599,5.89016058 C18.5109489,5.89267153 21.1106569,8.49255474 21.1131095,8.4900438 Z" id="Fill-11" fill="#00BCD4"></path>
                    <path d="M21.3873285,9.21062774 L21.0720584,9.19240876 C20.8051971,9.17664234 20.6724672,9.04478832 20.5043504,8.87760584 C20.4324672,8.80642336 20.3305109,8.70493431 20.2082336,8.58289051 C19.964438,8.33950365 19.6395912,8.01512409 19.3150365,7.69056934 C18.9904234,7.36572263 18.6658102,7.04093431 18.4221898,6.79661314 C17.910365,6.28362044 17.910365,6.28362044 17.8558248,6.14037956 L17.6941314,5.71474453 L19.5768759,3.832 C19.8631241,3.54569343 20.243854,3.38785401 20.6489343,3.38785401 C21.054073,3.38785401 21.4347445,3.54569343 21.7210511,3.832 L23.1713285,5.28227737 C23.4578102,5.56852555 23.6154161,5.94943066 23.6154161,6.35456934 C23.6154161,6.75941606 23.4578102,7.14037956 23.1713285,7.42662774 L21.3873285,9.21062774 Z M19.5066277,5.89173723 C19.9660146,6.35205839 20.6512117,7.03725547 21.1115328,7.49664234 L22.1763504,6.43164964 C22.2030365,6.40543066 22.2084672,6.37506569 22.2084672,6.35456934 C22.2084672,6.33378102 22.2030365,6.30347445 22.1763504,6.2770219 L20.7263066,4.8269781 C20.6997956,4.80052555 20.6694891,4.79480292 20.6489343,4.79480292 C20.6282044,4.79480292 20.598073,4.80029197 20.5716204,4.8269781 L19.5066277,5.89173723 Z" id="Fill-12" fill="#FFFFFF"></path>
                </g>
            </g>
        </g>
    </g>
</svg>