<?xml version="1.0" encoding="UTF-8"?>
<svg width="26px" preserveAspectRatio="none" height="23px" viewBox="0 0 26 23" version="1.1" xmlns="http://www.w3.org/2000/svg" xmlns:xlink="http://www.w3.org/1999/xlink">
    <!-- Generator: Sketch 51.1 (57501) - http://www.bohemiancoding.com/sketch -->
    <title>appointment to do list icon copy 2</title>
    <desc>Created with Sketch.</desc>
    <defs>
        <polygon id="path-1" points="0.003046875 0.0368631148 26 0.0368631148 26 16.1453906 0.003046875 16.1453906"></polygon>
    </defs>
    <g id="patient-home" stroke="none" stroke-width="1" fill="none" fill-rule="evenodd" opacity="0.899999976">
        <g id="patient-home---adherence" transform="translate(-109.000000, -187.000000)">
            <g id="patient-home-records-example-notes" transform="translate(109.000000, 183.000000)">
                <g id="follow-up-cell-copy-2">
                    <g id="icon---vitals" transform="translate(0.000000, 2.000000)">
                        <g id="Group" transform="translate(0.000000, 2.080000)">
                            <g id="Group-4" transform="translate(0.000000, 6.449219)">
                                <mask id="mask-2" fill="white">
                                    <use xlink:href="#path-1"></use>
                                </mask>
                                <g id="Clip-2"></g>
                                <path d="M11.3098477,10.5037461 C11.0177539,10.5037461 10.747293,10.3392148 10.6145508,10.0739844 L8.50326953,5.85563672 L7.32814062,7.66416016 C7.18458203,7.88490625 6.93920703,8.01815625 6.67590625,8.01815625 L0.777867187,8.01815625 C0.348257813,8.01815625 0,7.66989844 0,7.24028906 C0,6.81067969 0.348257813,6.46242187 0.777867187,6.46242187 L6.25376172,6.46242187 L7.93888672,3.86917578 C8.090875,3.63532812 8.35691797,3.50141797 8.63474219,3.51634766 C8.91322656,3.53198828 9.16190234,3.69545312 9.28672266,3.94483984 L11.0835156,7.53492187 L12.9079336,0.616382812 C12.9921797,0.29696875 13.2689375,0.0655585937 13.5982031,0.0393554687 C13.9270117,0.013 14.2374375,0.197640625 14.3712461,0.499585937 L15.7033906,3.50614062 L16.8245898,1.76820312 C16.9668281,1.54776172 17.2106289,1.41380078 17.4729648,1.41202344 C17.7391094,1.40938281 17.9809297,1.54090625 18.1261641,1.75941797 L19.2923047,3.51507812 L25.2221328,3.51507812 C25.6517422,3.51507812 26,3.86333594 26,4.29294531 C26,4.72255469 25.6517422,5.0708125 25.2221328,5.0708125 L18.8751367,5.0708125 C18.6145781,5.0708125 18.3713359,4.94035547 18.227168,4.72331641 L17.4876914,3.60998828 L16.2295352,5.56029297 C16.0745508,5.80048828 15.8000781,5.93648047 15.5152969,5.91413672 C15.2302617,5.89189453 14.9805195,5.71507422 14.8646875,5.45370312 L13.8468789,3.1565625 L12.0622734,9.92417969 C11.9797539,10.2370937 11.7120859,10.4662695 11.3901836,10.4995312 C11.3632695,10.502375 11.3365078,10.5037461 11.3098477,10.5037461" id="Fill-1" fill="#000000" mask="url(#mask-2)"></path>
                                <path d="M12.5874023,16.1484375 C12.4743633,16.1484375 12.3612734,16.1238594 12.2565117,16.0745508 C8.54597656,14.3304687 4.82132422,11.1103281 2.53596484,7.67076172 C2.37727344,7.43203906 2.36280078,7.12532031 2.49828516,6.87268359 C2.63371875,6.62004687 2.89717188,6.46242187 3.18383203,6.46242187 L6.25376172,6.46242187 L7.93888672,3.86917578 C8.09077344,3.63532812 8.35666406,3.50070703 8.63474219,3.51634766 C8.91322656,3.53198828 9.16190234,3.69545312 9.28672266,3.94483984 L11.0835156,7.53492187 L12.9079336,0.616332031 C12.9921797,0.29696875 13.2689375,0.0655585937 13.5982031,0.0393554687 C13.9270117,0.013 14.2374375,0.197640625 14.3712461,0.499585937 L15.7033906,3.50614062 L16.8245898,1.76820312 C16.9668281,1.54776172 17.2106289,1.41380078 17.4729648,1.41202344 C17.4746914,1.41202344 17.4764688,1.41202344 17.4781953,1.41202344 C17.7386016,1.41202344 17.9819453,1.54237891 18.1261641,1.75946875 L19.5231055,3.862625 C19.7608125,4.22053125 19.6634141,4.70325781 19.3056094,4.94096484 C18.9476523,5.17862109 18.464875,5.08122266 18.2272695,4.72346875 L17.4876914,3.61014062 L16.2295859,5.56044531 C16.0745508,5.80064062 15.7996719,5.93663281 15.5153477,5.91428906 C15.2303633,5.89204687 14.9806211,5.71522656 14.8647891,5.45385547 L13.8469805,3.15671484 L12.0623242,9.92433203 C11.9798047,10.2372461 11.7121367,10.4664219 11.3902852,10.4996836 C11.067875,10.5327422 10.7594297,10.3634883 10.6146016,10.0741367 L8.50337109,5.85578906 L7.32819141,7.6643125 C7.18468359,7.88505859 6.93925781,8.01830859 6.67595703,8.01830859 L4.707625,8.01830859 C6.76721094,10.6415664 9.71216797,13.0797773 12.5874531,14.5068828 C15.2613906,13.1794102 18.0414102,10.9535156 20.0853047,8.49331641 C20.3598789,8.16283203 20.8501719,8.11753516 21.1806563,8.39205859 C21.5110898,8.66653125 21.5564375,9.15697656 21.2819648,9.48741016 C19.0149883,12.2160898 15.8884375,14.6785234 12.9183438,16.0746523 C12.8135313,16.1238594 12.7003906,16.1484375 12.5874023,16.1484375" id="Fill-3" fill="#000000" mask="url(#mask-2)"></path>
                            </g>
                            <path d="M8.59112109,10.7422148 L11.3101523,16.1751484 L13.6600547,7.26395312 L15.5758789,11.5879258 L17.4781953,8.63910937 L18.8751875,10.7422148 L23.5315742,10.7422148 C23.7226133,10.2334375 23.8728242,9.72598047 23.9755547,9.22370312 C24.0814336,8.70482031 24.1388164,8.18878125 24.1388164,7.6838125 C24.1388164,3.89273828 21.1074805,0.817832031 17.3675938,0.817832031 C15.5023984,0.817832031 13.8135664,1.58366406 12.5874531,2.82084766 C11.3613398,1.58366406 9.67255859,0.817832031 7.80736328,0.817832031 C4.06752734,0.817832031 1.03608984,3.89273828 1.03608984,7.6838125 C1.03608984,8.18878125 1.09352344,8.70482031 1.19935156,9.22370312 C1.50134766,10.7003203 2.208375,12.2213711 3.18388281,13.6896094 L6.67595703,13.6896094 L8.59112109,10.7422148" id="Fill-5" fill="#00BCD4"></path>
                            <path d="M8.59101953,9.96439844 C8.60559375,9.96439844 8.62011719,9.96475391 8.63474219,9.96561719 C8.91322656,9.98125781 9.16190234,10.1447734 9.28672266,10.3941602 L11.0835156,13.9842422 L12.9079336,7.06565234 C12.9921797,6.74628906 13.2689375,6.51487891 13.5982031,6.488625 C13.9270117,6.46226953 14.2374375,6.64696094 14.3712461,6.94890625 L15.7033906,9.95546094 L16.8245898,8.21747266 C16.9668281,7.99703125 17.2106289,7.86312109 17.4729648,7.86129297 C17.7391094,7.85865234 17.9809805,7.99022656 18.1261641,8.2086875 L19.2923047,9.96439844 L22.9782109,9.96439844 C23.0752031,9.65884766 23.1539141,9.35883203 23.2134297,9.06785547 C23.3112852,8.58822656 23.3608984,8.12251172 23.3608984,7.6838125 C23.3608984,4.32676563 20.6723359,1.59564844 17.3675938,1.59564844 C15.774332,1.59564844 14.272832,2.22523437 13.1399531,3.36837109 C12.9939063,3.51578906 12.7949961,3.59871484 12.5874531,3.59871484 C12.3799102,3.59871484 12.1810508,3.51578906 12.0349531,3.36837109 C10.902125,2.22523437 9.400625,1.59564844 7.80736328,1.59564844 C4.50257031,1.59564844 1.81395703,4.32676563 1.81395703,7.6838125 C1.81395703,8.12235937 1.86357031,8.588125 1.96152734,9.0683125 C2.20979688,10.2824414 2.76285547,11.5740117 3.60673828,12.9117422 L6.25376172,12.9117422 L7.93888672,10.3184453 C8.08285156,10.0968359 8.32873438,9.96439844 8.59101953,9.96439844 Z M11.3098477,16.9529648 C11.0177539,16.9529648 10.747293,16.7884336 10.6145508,16.5233047 L8.50326953,12.304957 L7.32814062,14.1134297 C7.18458203,14.3341758 6.93920703,14.4674258 6.67590625,14.4674258 L3.18383203,14.4674258 C2.92332422,14.4674258 2.68008203,14.3370703 2.53596484,14.1200312 C1.45341016,12.490918 0.747347656,10.8959297 0.437226563,9.37960156 C0.318449219,8.7969375 0.258222656,8.22651172 0.258222656,7.6838125 C0.258222656,3.46896875 3.64477344,0.0399648437 7.80736328,0.0399648437 C9.56911719,0.0399648437 11.2406328,0.648375 12.5874531,1.76708594 C13.9343242,0.648375 15.6058398,0.0399648437 17.3675938,0.0399648437 C21.5301836,0.0399648437 24.9166328,3.46896875 24.9166328,7.6838125 C24.9166328,8.22676563 24.8564063,8.79714062 24.7377305,9.37919531 C24.6293633,9.90909766 24.4685898,10.4595664 24.2597773,11.0156719 C24.1459258,11.3190898 23.8557109,11.520082 23.5315742,11.520082 L18.8752383,11.520082 C18.6146289,11.520082 18.3713867,11.389625 18.2272695,11.1726367 L17.4877422,10.0593086 L16.2295859,12.0095625 C16.0746523,12.2498086 15.8001289,12.38575 15.5153477,12.3634062 C15.2303633,12.3411641 14.9806211,12.1643945 14.8647891,11.9030234 L13.8469805,9.60588281 L12.0623242,16.3735 C11.9798047,16.6864141 11.7121367,16.9155391 11.3902852,16.9488516 C11.3632695,16.9515937 11.336457,16.9529648 11.3098477,16.9529648 Z" id="Fill-6" fill="#000000"></path>
                        </g>
                    </g>
                </g>
            </g>
        </g>
    </g>
</svg>