<?xml version="1.0" encoding="UTF-8"?>
<svg width="22px" preserveAspectRatio="none" height="18px" viewBox="0 0 22 18" version="1.1" xmlns="http://www.w3.org/2000/svg" xmlns:xlink="http://www.w3.org/1999/xlink">
    <!-- Generator: Sketch 51.1 (57501) - http://www.bohemiancoding.com/sketch -->
    <title>accept icon</title>
    <desc>Created with Sketch.</desc>
    <defs>
        <polygon id="path-1" points="0.002578125 0.0104589836 21.999957 0.0104589836 21.999957 17.3878125 0.002578125 17.3878125"></polygon>
    </defs>
    <g id="Symbols" stroke="none" stroke-width="1" fill="none" fill-rule="evenodd">
        <g id="contact-request-bubble" transform="translate(-21.000000, -23.000000)">
            <g id="accept" transform="translate(15.000000, 20.000000)">
                <g id="accept-icon" transform="translate(6.000000, 0.000000)">
                    <g id="Group" transform="translate(0.000000, 3.000000)">
                        <mask id="mask-2" fill="white">
                            <use xlink:href="#path-1"></use>
                        </mask>
                        <g id="Clip-2"></g>
                        <path d="M9.03701563,17.390625 C8.24402734,17.390625 7.49843359,17.0536875 6.93769141,16.4420156 C6.71163281,16.1954531 6.71163281,15.7955625 6.93769141,15.5489062 C7.16375,15.3023906 7.53027344,15.3023906 7.75641797,15.5489062 C8.09844922,15.922125 8.55331641,16.127625 9.03710156,16.127625 C9.52084375,16.127625 9.97566797,15.922125 10.3177852,15.5489062 L20.3131758,4.64489062 C20.65525,4.27171875 20.843625,3.7755 20.843625,3.24773437 C20.843625,2.72001562 20.65525,2.22384375 20.3131758,1.85071875 C19.6069414,1.0801875 18.4579141,1.08028125 17.7518086,1.850625 L12.1830156,7.92576562 C11.9569141,8.17228125 11.5904766,8.17228125 11.364332,7.92576562 C11.1382734,7.67915625 11.1382734,7.27926562 11.364332,7.03260937 L16.933125,0.957515625 C18.0907031,-0.30515625 19.9741094,-0.305296875 21.1318164,0.957515625 C22.2893516,2.220375 22.2893516,4.27514062 21.1318164,5.53795312 L11.1364258,16.4420156 C10.5756836,17.0537812 9.83008984,17.390625 9.03701563,17.390625" id="Fill-1" fill="#000000" mask="url(#mask-2)"></path>
                        <path d="M12.3740547,14.1048281 L10.6840508,15.9484688 C9.75068359,16.9666875 8.23736719,16.9666875 7.304,15.9484688 L1.27750391,9.37415625 C0.344136719,8.3559375 0.344136719,6.70504688 1.27750391,5.68682813 C2.21087109,4.66860938 3.72414453,4.66860938 4.65751172,5.68682813 L12.3740547,14.1048281" id="Fill-3" fill="#00BCD4" mask="url(#mask-2)"></path>
                        <path d="M2.96750781,5.5546875 C2.48376562,5.5546875 2.02894141,5.76014062 1.68682422,6.13335937 C0.980632812,6.90375 0.980632812,8.15723437 1.68682422,8.927625 L7.71332031,15.5019375 C8.05539453,15.8751562 8.51021875,16.0806563 8.99400391,16.0806563 C9.47778906,16.0806563 9.93261328,15.8751562 10.2747305,15.5019375 L11.5554141,14.1048281 L4.24814844,6.13335937 C3.90607422,5.76014062 3.45129297,5.5546875 2.96750781,5.5546875 Z M8.99400391,17.3436094 C8.20097266,17.3436094 7.45542188,17.0067187 6.89467969,16.3950469 L0.868183594,9.8206875 C-0.289394531,8.55782813 -0.289394531,6.50310938 0.868183594,5.24025 C1.42896875,4.62853125 2.17451953,4.2916875 2.96750781,4.2916875 C3.76058203,4.2916875 4.50608984,4.62857812 5.06683203,5.24025 L12.783375,13.6582969 C13.0094336,13.9048594 13.0094336,14.30475 12.783375,14.5514062 L11.0933711,16.3950469 C10.532543,17.0067187 9.78703516,17.3436094 8.99400391,17.3436094 Z" id="Fill-4" fill="#000000" mask="url(#mask-2)"></path>
                    </g>
                </g>
            </g>
        </g>
    </g>
</svg>