<?xml version="1.0" encoding="UTF-8"?>
<svg width="23px" height="26px" viewBox="0 0 23 26" version="1.1" xmlns="http://www.w3.org/2000/svg" xmlns:xlink="http://www.w3.org/1999/xlink">
    <!-- Generator: Sketch 51.1 (57501) - http://www.bohemiancoding.com/sketch -->
    <title>last contacted</title>
    <desc>Created with Sketch.</desc>
    <defs></defs>
    <g id="My-network" stroke="none" stroke-width="1" fill="none" fill-rule="evenodd">
        <g id="my-network-sort-function" transform="translate(-250.000000, -135.000000)">
            <g id="sort-by-menu" transform="translate(20.000000, 135.000000)">
                <g id="last-contacted" transform="translate(228.000000, 0.000000)">
                    <circle id="Oval-5" fill="#00BCD4" cx="13.5" cy="14.5" r="8.5"></circle>
                    <g id="Group" stroke-width="1" transform="translate(2.000000, 0.000000)" fill="#000000">
                        <g id="Group-6">
                            <path d="M22.0783587,13.7945965 C21.6490799,13.7945965 21.3009435,14.1427329 21.3009435,14.5720117 C21.3009435,20.0160468 16.871922,24.4450682 11.4278869,24.4450682 C5.98385185,24.4450682 1.55483041,20.0160468 1.55483041,14.5720117 C1.55483041,9.12797661 5.98385185,4.69895517 11.4278869,4.69895517 C14.1514503,4.69895517 16.687692,5.78411306 18.5693216,7.75458869 C18.8658129,8.06516959 19.3580897,8.07662378 19.6684678,7.77992982 C19.7023236,7.74759454 19.731922,7.71272515 19.7585809,7.67623392 L21.3346472,6.10021832 C21.6381832,5.79663158 21.6381832,5.30435478 21.3346472,5.00071735 C21.0309591,4.69723197 20.538885,4.69723197 20.2351462,5.00071735 L19.1177544,6.11826121 C17.2019142,4.3688616 14.7942027,3.34214035 12.2053528,3.17063158 L12.2053528,1.60541131 L13.9027018,1.60541131 C14.3319805,1.60541131 14.680117,1.25727485 14.680117,0.827996101 C14.680117,0.398717349 14.3319805,0.0505808967 13.9027018,0.0505808967 L8.95322417,0.0505808967 C8.52394542,0.0505808967 8.17585965,0.398717349 8.17585965,0.827996101 C8.17585965,1.25727485 8.52394542,1.60541131 8.95322417,1.60541131 L10.6505731,1.60541131 L10.6505731,3.17108772 C7.99968811,3.35004678 5.59369981,4.43631969 3.74197271,6.12211306 L2.620577,5.00071735 C2.31688889,4.69723197 1.82481481,4.69723197 1.52107602,5.00071735 C1.21748928,5.30430409 1.21748928,5.79653021 1.52107602,6.10021832 L2.66558285,7.24472515 C1.00269786,9.23 0,11.7859571 0,14.5720624 C0,20.8734386 5.12651072,26 11.4278869,26 C17.7292632,26 22.8557739,20.8734386 22.8557739,14.5720624 C22.8557739,14.1427329 22.5077388,13.7945965 22.0783587,13.7945965" id="Fill-5"></path>
                        </g>
                    </g>
                    <path d="M10.0732596,20.8738654 C9.93419712,20.8738654 9.79657212,20.8122716 9.70419712,20.6943341 C9.70310337,20.6929279 9.70016587,20.6892404 9.69691587,20.6853341 L8.14416587,19.1326154 C7.82032212,18.8087716 7.64197837,18.3782091 7.64197837,17.9202404 C7.64197837,17.4623029 7.82032212,17.0317404 8.14416587,16.7078654 L9.80825962,15.0438029 C10.4767596,14.3753341 11.5644784,14.3753029 12.2329471,15.0438029 L12.7635096,15.5743654 C13.2500721,15.1422716 13.7646659,14.6551779 14.2979471,14.1218029 C14.8314159,13.5883341 15.3184784,13.0736154 15.7503221,12.5869591 L15.2200721,12.0567091 C14.8962284,11.7328654 14.7178846,11.3022716 14.7178846,10.8443341 C14.7178846,10.3863966 14.8962284,9.95580288 15.2200721,9.63195913 L16.8841034,7.96792788 C17.2079471,7.64411538 17.6385409,7.46574038 18.0964784,7.46574038 C18.0965409,7.46574038 18.0964784,7.46574038 18.0965409,7.46574038 C18.5544784,7.46574038 18.9850409,7.64411538 19.3088534,7.96792788 L20.8688534,9.52795913 C20.9109159,9.56999038 20.9478846,9.61739663 20.9782909,9.66861538 C21.0950096,9.86467788 21.3140721,10.4453341 20.8271971,11.5955216 C20.2630721,12.9278654 18.9345096,14.6458654 16.8784471,16.7020216 C15.7286971,17.8516466 14.6772909,18.7818029 13.7532909,19.4665529 C13.5453846,19.6206154 13.2519471,19.5769904 13.0979159,19.3690841 C12.9437909,19.1612091 12.9874784,18.8677716 13.1953534,18.7137091 C14.0824159,18.0563029 15.0986346,17.1565529 16.2158534,16.0393654 C18.1862596,14.0689591 19.4474471,12.4508966 19.9642909,11.2301779 C20.2495721,10.5562716 20.1969159,10.2389904 20.1746034,10.1588341 L18.6462596,8.63042788 C18.3431346,8.32730288 17.8498534,8.32724038 17.5467596,8.63042788 L15.8827284,10.2944591 C15.5795721,10.5976154 15.5795721,11.0908654 15.8827284,11.3939591 L16.7225721,12.2338029 C16.8957909,12.4070216 16.9063221,12.6844591 16.7467909,12.8702716 C16.2328221,13.4690529 15.6318534,14.1130216 14.9606346,14.7842404 C14.2896659,15.4553029 13.6458846,16.0563341 13.0472596,16.5706466 C12.8614471,16.7303341 12.5839159,16.7198341 12.4106659,16.5465216 L11.5703846,15.7062091 C11.2672596,15.4030529 10.7739784,15.4030529 10.4708846,15.7062091 L8.80682212,17.3703029 C8.50366587,17.6734279 8.50366587,18.1667091 8.80682212,18.4698029 L10.3667909,20.0297716 C10.3946034,20.0576466 10.4229159,20.0920841 10.4416971,20.1161154 C10.6013221,20.3198029 10.5656346,20.6142716 10.3619471,20.7738966 C10.2762284,20.8412716 10.1743221,20.8738654 10.0732596,20.8738654" id="Fill-1" fill="#000000"></path>
                    <path d="M8.56213462,22.3846154 C8.44219712,22.3846154 8.32235337,22.3388966 8.23085337,22.2473966 C8.04788462,22.0644279 8.04788462,21.7677404 8.23085337,21.5847716 L9.74160337,20.0739904 C9.92457212,19.8910841 10.2212596,19.8910529 10.4042284,20.0739904 C10.5871659,20.2569591 10.5871659,20.5536466 10.4042284,20.7366154 L8.89344712,22.2473966 C8.80191587,22.3388966 8.68204087,22.3846154 8.56213462,22.3846154" id="Fill-6" fill="#000000"></path>
                </g>
            </g>
        </g>
    </g>
</svg>