<?xml version="1.0" encoding="UTF-8"?>
<svg width="25px" preserveAspectRatio="none" height="26px" viewBox="0 0 25 26" version="1.1" xmlns="http://www.w3.org/2000/svg" xmlns:xlink="http://www.w3.org/1999/xlink">
    <!-- Generator: Sketch 51.1 (57501) - http://www.bohemiancoding.com/sketch -->
    <title>by frequency</title>
    <desc>Created with Sketch.</desc>
    <defs></defs>
    <g id="My-network" stroke="none" stroke-width="1" fill="none" fill-rule="evenodd">
        <g id="my-network-sort-function" transform="translate(-320.000000, -135.000000)">
            <g id="sort-by-menu" transform="translate(20.000000, 135.000000)">
                <g id="by-frequency" transform="translate(299.000000, 0.000000)">
                    <g id="Group" transform="translate(1.000000, 0.000000)">
                        <path d="M9.52441363,23.8492749 C9.52441363,21.4283017 7.54354258,19.4472409 5.12237956,19.4472409 C2.70140633,19.4472409 0.72059854,21.4280487 0.72059854,23.8492749 C0.72059854,24.6041606 1.33238929,25.2162676 2.0873382,25.2162676 L8.15735766,25.2162676 C8.91255961,25.2162676 9.52441363,24.6041606 9.52441363,23.8492749 Z" id="Fill-1" fill="#00BCD4"></path>
                        <path d="M8.15761071,25.9368662 L2.08759124,25.9368662 C0.936569343,25.9368662 0,25.0002968 0,23.8492749 C0,21.024764 2.29786861,18.7266423 5.1226326,18.7266423 C7.94708029,18.7266423 10.2452019,21.024764 10.2452019,23.8492749 C10.2452019,25.0002968 9.3086326,25.9368662 8.15761071,25.9368662 Z M5.1226326,20.1677762 C3.09260827,20.1677762 1.44113382,21.8192506 1.44113382,23.8492749 C1.44113382,24.2055572 1.7309927,24.4954161 2.08759124,24.4954161 L8.15761071,24.4954161 C8.5139562,24.4954161 8.80406813,24.2055572 8.80406813,23.8492749 C8.80406813,21.8192506 7.15259367,20.1677762 5.1226326,20.1677762 Z" id="Fill-2" fill="#000000"></path>
                        <path d="M5.12237956,20.1146375 C2.95640876,20.1146375 1.19429197,18.3525207 1.19429197,16.1863601 C1.19429197,14.0203893 2.95640876,12.2582725 5.12237956,12.2582725 C7.28854015,12.2582725 9.05065693,14.0203893 9.05065693,16.1863601 C9.05065693,18.3525207 7.28854015,20.1146375 5.12237956,20.1146375 Z M5.12237956,13.6994063 C3.75114842,13.6994063 2.63542579,14.815129 2.63542579,16.1866131 C2.63542579,17.557781 3.75114842,18.6735036 5.12237956,18.6735036 C6.49380049,18.6735036 7.60952311,17.557781 7.60952311,16.1866131 C7.60952311,14.815129 6.49380049,13.6994063 5.12237956,13.6994063 Z" id="Fill-3" fill="#000000"></path>
                        <path d="M23.8483893,23.8492749 C23.8483893,21.4283017 21.8675815,19.4472409 19.4463552,19.4472409 C17.0254453,19.4472409 15.0443212,21.4280487 15.0443212,23.8492749 C15.0443212,24.6041606 15.6564282,25.2162676 16.4113771,25.2162676 L22.4813966,25.2162676 C23.2365353,25.2162676 23.8483893,24.6041606 23.8483893,23.8492749 Z" id="Fill-4" fill="#00BCD4"></path>
                        <path d="M22.4816496,25.9368662 L16.4116302,25.9368662 C15.260545,25.9368662 14.3240389,25.0002968 14.3240389,23.8492749 C14.3240389,21.024764 16.6219075,18.7266423 19.4466083,18.7266423 C22.2711192,18.7266423 24.5689878,21.024764 24.5689878,23.8492749 C24.5689878,25.0002968 23.6324185,25.9368662 22.4816496,25.9368662 Z M19.4463552,20.1677762 C17.4163309,20.1677762 15.7649197,21.8192506 15.7649197,23.8492749 C15.7649197,24.2055572 16.0550316,24.4954161 16.4113771,24.4954161 L22.4813966,24.4954161 C22.8377421,24.4954161 23.127854,24.2055572 23.127854,23.8492749 C23.127854,21.8192506 21.4763796,20.1677762 19.4463552,20.1677762 Z" id="Fill-5" fill="#000000"></path>
                        <path d="M19.4463552,20.1146375 C17.2804477,20.1146375 15.5183309,18.3525207 15.5183309,16.1863601 C15.5183309,14.0203893 17.2804477,12.2582725 19.4463552,12.2582725 C21.6125791,12.2582725 23.3746959,14.0203893 23.3746959,16.1863601 C23.3746959,18.3525207 21.6125791,20.1146375 19.4463552,20.1146375 Z M19.4463552,13.6994063 C18.0751873,13.6994063 16.9594647,14.815129 16.9594647,16.1866131 C16.9594647,17.557781 18.0751873,18.6735036 19.4463552,18.6735036 C20.8178394,18.6735036 21.933562,17.557781 21.933562,16.1866131 C21.933562,14.815129 20.8178394,13.6994063 19.4463552,13.6994063 Z" id="Fill-6" fill="#000000"></path>
                        <path d="M18.1633723,11.4527153 C17.9076107,11.4527153 17.6580487,11.3548516 17.4660535,11.1700049 L15.054253,8.84936253 C14.7673674,8.57335766 14.7584477,8.11718735 15.0344526,7.8303017 C15.3104574,7.5436691 15.7666277,7.53474939 16.0535766,7.81075426 L17.8366959,9.526691 L17.984219,8.24744039 C18.0262238,7.88394647 18.3341119,7.60939659 18.700073,7.60939659 L20.2897421,7.60939659 L20.2897421,1.46643796 L4.27924574,1.46643796 L4.27924574,7.60939659 L5.86885158,7.60939659 C6.23506569,7.60939659 6.54301703,7.88394647 6.58476886,8.24744039 L6.73254501,9.526691 L8.51566423,7.81075426 C8.8023601,7.53500243 9.25846715,7.5436691 9.53453528,7.8303017 C9.8102871,8.11718735 9.80162044,8.57335766 9.51498783,8.84936253 L7.10293431,11.1700049 C6.82471533,11.4378491 6.42585888,11.5231241 6.06211192,11.392618 C5.698618,11.2619221 5.44507056,10.9423942 5.40085158,10.5586569 L5.22688564,9.05078345 L4.16898297,9.05078345 C3.43509976,9.05078345 2.83804866,8.45347932 2.83804866,7.71959611 L2.83804866,1.35623844 C2.83804866,0.622291971 3.43509976,0.0253041363 4.16898297,0.0253041363 L20.4000049,0.0253041363 C21.1338881,0.0253041363 21.7309392,0.622291971 21.7309392,1.35623844 L21.7309392,7.71959611 C21.7309392,8.45347932 21.1338881,9.05053041 20.4000049,9.05053041 L19.3421022,9.05053041 L19.1678832,10.5586569 C19.1236642,10.9423942 18.8703698,11.2619221 18.5066229,11.392618 C18.3942092,11.4329148 18.2780633,11.4527153 18.1633723,11.4527153 Z" id="Fill-7" fill="#000000"></path>
                        <path d="M12.6898978,9.05053041 L11.8793431,9.05053041 C11.4812457,9.05053041 11.1588078,8.7280292 11.1588078,8.32993187 C11.1588078,7.93208759 11.4812457,7.60939659 11.8793431,7.60939659 L12.6898978,7.60939659 C13.0877421,7.60939659 13.4104331,7.93208759 13.4104331,8.32993187 C13.4104331,8.7280292 13.0877421,9.05053041 12.6898978,9.05053041 Z" id="Fill-8" fill="#000000"></path>
                    </g>
                </g>
            </g>
        </g>
    </g>
</svg>