<?xml version="1.0" encoding="UTF-8"?>
<svg width="22px" preserveAspectRatio="none" height="24px" viewBox="0 0 22 24" version="1.1" xmlns="http://www.w3.org/2000/svg" xmlns:xlink="http://www.w3.org/1999/xlink">
    <!-- Generator: Sketch 51.1 (57501) - http://www.bohemiancoding.com/sketch -->
    <title>order labs</title>
    <desc>Created with Sketch.</desc>
    <defs></defs>
    <g id="patient-home" stroke="none" stroke-width="1" fill="none" fill-rule="evenodd">
        <g id="patient-home---notes-expanded" transform="translate(-95.000000, -1097.000000)">
            <g id="assessment-copy-3" transform="translate(80.000000, 996.000000)">
                <g id="call-recording" transform="translate(14.000000, 101.000000)">
                    <g id="Group" transform="translate(1.000000, 0.000000)">
                        <g id="Group-5">
                            <polyline id="Fill-1" fill="#00BCD4" points="0.6973125 9.00032812 0.6973125 8.77579687 8.69798438 0.6973125 8.69798438 9.00032812 0.6973125 9.00032812"></polyline>
                            <path d="M21.0249844,24 L0.6973125,24 C0.3121875,24 0,23.6878125 0,23.3026875 L0,13.4384531 C0,13.0533281 0.3121875,12.7411406 0.6973125,12.7411406 C1.0824375,12.7411406 1.394625,13.0533281 1.394625,13.4384531 L1.394625,22.605375 L20.3277656,22.605375 L20.3277656,13.6440937 C20.3277656,13.2589687 20.64,12.9467813 21.0250781,12.9467813 C21.4101094,12.9467813 21.7223906,13.2589687 21.7223906,13.6440937 L21.7223906,23.3026875 C21.7222969,23.6878125 21.4101094,24 21.0249844,24" id="Fill-3" fill="#000000"></path>
                            <path d="M2.146875,8.30301562 L8.00067188,2.3923125 L8.00067188,8.30301562 L2.146875,8.30301562 Z M21.0249844,0 L8.69798438,0 C8.68964063,0 8.68129687,0.000984375 8.67295313,0.001265625 C8.6649375,0.001546875 8.65692188,0.001875 8.64890625,0.0024375 C8.61890625,0.004546875 8.58914063,0.00796875 8.55984375,0.013828125 C8.559,0.013921875 8.55825,0.014203125 8.55740625,0.0144375 C8.52867188,0.02034375 8.50059375,0.028640625 8.47289062,0.0380625 C8.46548438,0.04059375 8.45826563,0.04321875 8.45090625,0.0459375 C8.42367188,0.056296875 8.3968125,0.067828125 8.37103125,0.081515625 C8.37004687,0.082078125 8.36901563,0.08240625 8.36803125,0.08296875 C8.34135938,0.097265625 8.316,0.113953125 8.29129688,0.13171875 C8.28501563,0.136265625 8.27882813,0.140859375 8.2726875,0.14559375 C8.24821875,0.164484375 8.22445313,0.184359375 8.20246875,0.206625 L0.201890625,8.28510937 C0.185484375,8.30165625 0.1700625,8.31890625 0.155578125,8.33685937 C0.14559375,8.34914063 0.136828125,8.3619375 0.127828125,8.37473437 C0.12375,8.3805 0.11925,8.3859375 0.11540625,8.39179687 C0.10509375,8.40735937 0.095859375,8.4234375 0.087046875,8.43960937 C0.085078125,8.44317187 0.08278125,8.44654687 0.08090625,8.45010937 C0.07209375,8.46670312 0.064453125,8.483625 0.05709375,8.50078125 C0.05559375,8.50439062 0.053671875,8.50790625 0.052171875,8.51160938 C0.045515625,8.52782812 0.0399375,8.544375 0.03459375,8.560875 C0.033,8.5659375 0.0309375,8.5708125 0.0294375,8.57582812 C0.024890625,8.59110937 0.021328125,8.60657812 0.017859375,8.62214063 C0.0163125,8.62879688 0.0144375,8.6353125 0.013125,8.6420625 C0.0103125,8.65635937 0.008578125,8.67070312 0.006703125,8.68509375 C0.005625,8.69325 0.004125,8.70126562 0.00328125,8.70946875 C0.00196875,8.72371875 0.0016875,8.73792187 0.001171875,8.75217187 C0.000890625,8.76004687 0,8.767875 0,8.77575 L0,9.00028125 C0,9.38540625 0.3121875,9.69759375 0.6973125,9.69759375 L8.69798438,9.69759375 C9.08310938,9.69759375 9.39529687,9.38540625 9.39529687,9.00028125 L9.39529687,1.394625 L20.3276719,1.394625 L20.3276719,8.8905 C20.3276719,9.275625 20.6399531,9.5878125 21.0249844,9.5878125 C21.4100625,9.5878125 21.7222969,9.275625 21.7222969,8.8905 L21.7222969,0.6973125 C21.7222969,0.3121875 21.4101094,0 21.0249844,0 Z" id="Fill-4" fill="#000000"></path>
                        </g>
                    </g>
                    <g id="Group-2" transform="translate(4.000000, 4.000000)" fill="#000000">
                        <path d="M3.69286865,15.9276447 C3.53376338,15.9276447 3.37630279,15.8571735 3.27061398,15.722238 C3.26936259,15.720629 3.26600172,15.7164101 3.2622833,15.7119408 L1.48573886,13.9354321 C1.11522023,13.5649135 0.911172186,13.072295 0.911172186,12.5483202 C0.911172186,12.0243812 1.11522023,11.5317627 1.48573886,11.1612083 L3.38967478,9.2573081 C4.15452422,8.49249442 5.39901348,8.49245866 6.16382715,9.2573081 L6.77085846,9.8643394 C7.32754814,9.36996893 7.91630916,8.81267143 8.52645106,8.20242227 C9.13680749,7.59206584 9.69406923,7.00316181 10.1881537,6.44636487 L9.5814799,5.8396911 C9.21096127,5.46917246 9.00691323,4.97651819 9.00691323,4.45257916 C9.00691323,3.92864014 9.21096127,3.43598586 9.5814799,3.06546722 L11.4853443,1.16160281 C11.855863,0.791119929 12.3485172,0.587036133 12.8724563,0.587036133 C12.8725278,0.587036133 12.8724563,0.587036133 12.8725278,0.587036133 C13.3964668,0.587036133 13.8890853,0.791119929 14.2595682,1.16160281 L16.0444076,2.94647793 C16.0925324,2.99456705 16.1348294,3.04880586 16.169618,3.10740666 C16.3031592,3.33172721 16.5537947,3.99607217 15.9967475,5.31203366 C15.3513164,6.83640518 13.8312711,8.80201674 11.4788728,11.1545223 C10.1634119,12.4698402 8.96046879,13.5340578 7.9032947,14.3174993 C7.66542338,14.4937665 7.32969338,14.4438539 7.15346195,14.2059826 C6.97712325,13.968147 7.02710733,13.632417 7.2649429,13.4561499 C8.27985576,12.7039931 9.44253989,11.6745641 10.7207809,10.3963588 C12.9751775,8.14196226 14.4181372,6.29069198 15.0094725,4.89403372 C15.3358707,4.12299885 15.2756252,3.75998855 15.2500968,3.66827956 L13.5014763,1.91958748 C13.1546625,1.57277374 12.5902857,1.57270223 12.2435078,1.91958748 L10.3396433,3.82345189 C9.99279385,4.17030138 9.99279385,4.73464242 10.3396433,5.0814204 L11.3005319,6.04230898 C11.4987163,6.24049337 11.5107654,6.55791733 11.3282413,6.77051057 C10.7401953,7.45559285 10.0526103,8.1923754 9.28465025,8.96033543 C8.51697625,9.72811669 7.78040823,10.4157732 7.09550472,11.0042125 C6.88291148,11.1869154 6.56538026,11.174902 6.36716012,10.9766104 L5.40577098,10.0151855 C5.05895724,9.66833601 4.49458045,9.66833601 4.14780247,10.0151855 L2.2439023,11.9191214 C1.89705281,12.2659352 1.89705281,12.830312 2.2439023,13.1770899 L4.02870591,14.9618935 C4.06052697,14.9937861 4.09292009,15.033187 4.11440824,15.0606818 C4.29703964,15.2937264 4.25620857,15.6306362 4.02316404,15.8132676 C3.92509084,15.8903533 3.80849707,15.9276447 3.69286865,15.9276447" id="Fill-1"></path>
                        <path d="M1.96394853,17.6561357 C1.8267247,17.6561357 1.68960814,17.6038276 1.58492044,17.49914 C1.37558081,17.2898003 1.37558081,16.9503519 1.58492044,16.7410123 L3.31341151,15.0124854 C3.52275115,14.8032173 3.86219956,14.8031816 4.0715392,15.0124854 C4.28084308,15.2218251 4.28084308,15.5612735 4.0715392,15.7706131 L2.34301237,17.49914 C2.23828892,17.6038276 2.1011366,17.6561357 1.96394853,17.6561357" id="Fill-6"></path>
                    </g>
                </g>
            </g>
        </g>
    </g>
</svg>