<?xml version="1.0" encoding="UTF-8"?>
<svg width="27px" preserveAspectRatio="none" height="24px" viewBox="0 0 27 24" version="1.1" xmlns="http://www.w3.org/2000/svg" xmlns:xlink="http://www.w3.org/1999/xlink">
    <!-- Generator: Sketch 51.1 (57501) - http://www.bohemiancoding.com/sketch -->
    <title>eraser</title>
    <desc>Created with Sketch.</desc>
    <defs></defs>
    <g id="patient-home" stroke="none" stroke-width="1" fill="none" fill-rule="evenodd">
        <g id="patient-home---contact--call" transform="translate(-301.000000, -629.000000)">
            <g id="eraser" transform="translate(301.000000, 629.000000)">
                <g>
                    <g id="Group-4" transform="translate(0.000000, 6.857143)">
                        <path d="M13.7459341,5.88745055 L9.03705495,1.17857143 L1.06964835,9.14604396 C0.739714286,9.47597802 0.739714286,10.0109011 1.06964835,10.3408352 L6.73582418,16.0073407 C6.8941978,16.1657143 7.10927473,16.2545934 7.33338462,16.2545934 L13.0041758,16.2545934 C13.5409451,16.2545934 14.0555604,16.0415604 14.4352088,15.6619121 L18.9779341,11.1191868 L13.7459341,5.88745055 Z" id="Fill-1" fill="#00BCD4"></path>
                        <path d="M13.0041758,17.0769231 L7.33338462,17.0769231 C6.88806593,17.0769231 6.46951648,16.9035824 6.15454945,16.5888791 L0.488307692,10.9223736 C0.173340659,10.6074066 0,10.1888571 0,9.7436044 C0,9.29828571 0.173604396,8.87973626 0.488307692,8.56476923 L9.03705495,0.015956044 L20.1405495,11.1194505 L15.0167473,16.2435165 C14.478989,16.7807473 13.7645275,17.0769231 13.0041758,17.0769231 Z M9.03705495,2.34118681 L1.65092308,9.72758242 C1.64835165,9.73015385 1.64426374,9.73430769 1.64426374,9.7436044 C1.64426374,9.75283516 1.64861538,9.75725275 1.65092308,9.75956044 L7.31736264,15.426 C7.32151648,15.4304176 7.32718681,15.4327253 7.33338462,15.4327253 L13.0041758,15.4327253 C13.3251429,15.4327253 13.626989,15.3075165 13.8538681,15.0806374 L17.8153187,11.1191868 L9.03705495,2.34118681 Z" id="Fill-3" fill="#000000"></path>
                    </g>
                    <path d="M18.9779341,19.1392088 L7.87450549,8.03571429 L15.4149231,0.495296703 C15.7296264,0.180527473 16.1481758,0.00725274725 16.5937582,0.00725274725 C17.0388132,0.00725274725 17.4575604,0.180527473 17.7723297,0.495296703 L26.5183516,9.24131868 C26.8331209,9.55608791 27.0067253,9.97483516 27.0067253,10.4201538 C27.0067253,10.8654725 26.8331209,11.284022 26.5183516,11.598989 L18.9779341,19.1392088 Z M10.1999341,8.03571429 L18.9779341,16.813978 L25.3555385,10.4361099 C25.3581099,10.4335385 25.3621978,10.4294505 25.3624615,10.4201538 C25.3624615,10.4106593 25.3581099,10.4065055 25.3555385,10.4039341 L16.6097143,1.65817582 C16.6071429,1.6556044 16.602989,1.65145055 16.5937582,1.65145055 L16.5934945,1.65145055 C16.5841978,1.65145055 16.5801099,1.6556044 16.5778022,1.65817582 L10.1999341,8.03571429 Z" id="Fill-5" fill="#000000"></path>
                    <polygon id="Fill-6" fill="#000000" points="7.31123077 23.9333407 19.5533407 23.9333407 19.5533407 22.2890769 7.31123077 22.2890769"></polygon>
                    <polygon id="Fill-7" fill="#000000" points="21.066989 23.9333407 23.6976264 23.9333407 23.6976264 22.2890769 21.066989 22.2890769"></polygon>
                </g>
            </g>
        </g>
    </g>
</svg>