<?xml version="1.0" encoding="UTF-8"?>
<svg preserveAspectRatio="none" width="20px" height="20px" viewBox="0 0 20 20" version="1.1" xmlns="http://www.w3.org/2000/svg" xmlns:xlink="http://www.w3.org/1999/xlink">
    <!-- Generator: Sketch 51.1 (57501) - http://www.bohemiancoding.com/sketch -->
    <title>add new icon</title>
    <desc>Created with Sketch.</desc>
    <defs>
        <polygon id="path-1" points="0.00234375 0.0001953125 19.9999219 0.0001953125 19.9999219 20 0.00234375 20"></polygon>
    </defs>
    <g id="Dashboard" stroke="none" stroke-width="1" fill="none" fill-rule="evenodd">
        <g id="dashboard" transform="translate(-330.000000, -32.000000)">
            <g id="add-new-icon" transform="translate(330.000000, 32.000000)">
                <g id="Group">
                    <mask id="mask-2" fill="white">
                        <use xlink:href="#path-1"></use>
                    </mask>
                    <g id="Clip-2"></g>
                    <polyline id="Fill-1" fill="#41CBC7" mask="url(#mask-2)" points="7.43507812 7.43519531 0.649414062 7.43527344 0.649414062 12.5651172 7.43507812 12.5651172 7.435 19.3507813 12.5649219 19.3507813 12.5649219 12.5651172 7.43507812 7.43519531"></polyline>
                    <path d="M11.9155859,18.7014063 L8.08441406,18.7014063 L8.08441406,12.5651172 C8.08441406,12.5433594 8.08332031,12.5217188 8.08117188,12.5003125 C8.07960938,12.4845313 8.076875,12.4690625 8.07421875,12.4535938 C8.07324219,12.4482031 8.0728125,12.4426953 8.07175781,12.4373047 C8.06804688,12.4186719 8.06324219,12.4004297 8.05792969,12.3823828 C8.05726563,12.3802344 8.056875,12.3780078 8.05625,12.3759375 C8.05066406,12.3576172 8.04410156,12.3396875 8.03695313,12.3221094 C8.03617188,12.3201563 8.03558594,12.318125 8.03480469,12.31625 C8.02792969,12.2996484 8.02007813,12.2835156 8.01183594,12.2676953 C8.0103125,12.2647656 8.00910156,12.2616406 8.00753906,12.2587109 C7.99988281,12.2444922 7.99136719,12.2308594 7.98273438,12.2173047 C7.97992188,12.2129297 7.97753906,12.2083203 7.9746875,12.2040625 C7.96648438,12.1918359 7.95746094,12.1802734 7.94851563,12.1687109 C7.94449219,12.1635156 7.94089844,12.1580859 7.93667969,12.1529297 C7.92617188,12.1401563 7.91480469,12.1280469 7.90335938,12.1161328 C7.90019531,12.1128125 7.89746094,12.1092188 7.89421875,12.1059766 C7.89117188,12.1029297 7.88773438,12.1002734 7.88460938,12.0972656 C7.87246094,12.0856641 7.86023438,12.0741797 7.84726563,12.0635156 C7.84246094,12.0595703 7.8371875,12.0560938 7.83226563,12.0523438 C7.82039063,12.043125 7.80855469,12.0339063 7.79609375,12.0255859 C7.79207031,12.0228516 7.78777344,12.0206641 7.78367188,12.0180469 C7.76984375,12.0092188 7.75589844,12.0005078 7.74140625,11.9927734 C7.73867188,11.9913672 7.73582031,11.9901953 7.73308594,11.98875 C7.71707031,11.9804688 7.70074219,11.9725391 7.68394531,11.9655078 C7.68210938,11.9647266 7.68015625,11.9642188 7.67835938,11.9634375 C7.66070313,11.9562891 7.64269531,11.9496875 7.62425781,11.9441016 C7.62203125,11.9434375 7.61984375,11.9430469 7.61761719,11.9423828 C7.59964844,11.9371484 7.58144531,11.9323437 7.56289063,11.9286328 C7.55742188,11.9275391 7.55183594,11.9270703 7.54640625,11.9260938 C7.53101563,11.9234375 7.515625,11.9207031 7.49988281,11.9191406 C7.47847656,11.9169922 7.45683594,11.9158984 7.43507813,11.9158984 L1.29878906,11.9158984 L1.29878906,8.08488281 L7.16605469,8.08488281 L11.9155859,12.8343359 L11.9155859,18.7014063 Z M19.3505859,6.78582031 L13.214375,6.78582031 L13.214375,0.649609375 C13.214375,0.2909375 12.9235937,0.0001953125 12.565,0.0001953125 L7.435,0.0001953125 C7.07640625,0.0001953125 6.785625,0.2909375 6.785625,0.649609375 L6.785625,6.78582031 L0.649414062,6.78582031 C0.290820312,6.78582031 0,7.0765625 0,7.43519531 L0,12.5650391 C0,12.5867969 0.00109375,12.6084375 0.0033203125,12.6298437 C0.0048828125,12.6454297 0.0075390625,12.6607031 0.0101953125,12.6759766 C0.011171875,12.6815625 0.011640625,12.6872656 0.0128125,12.6928516 C0.0164453125,12.7110156 0.021171875,12.7288281 0.02625,12.7464062 C0.02703125,12.7490234 0.0274609375,12.7516797 0.0282421875,12.7542969 C0.0336328125,12.7720703 0.040078125,12.7894141 0.046953125,12.8065625 C0.0479296875,12.8090234 0.0486328125,12.8115625 0.0496875,12.8140234 C0.0563671875,12.83 0.063984375,12.8455078 0.0718359375,12.8608594 C0.0736328125,12.8644141 0.0751171875,12.8680469 0.07703125,12.8715625 C0.084296875,12.8851172 0.0924609375,12.8982031 0.100742187,12.9110937 C0.103828125,12.9160937 0.106640625,12.9212891 0.109882812,12.92625 C0.11734375,12.9374219 0.125664062,12.9478516 0.133789062,12.9585156 C0.138515625,12.9647656 0.142851562,12.9713281 0.147851562,12.9773438 C0.1559375,12.9871484 0.164804687,12.99625 0.173398437,13.0055859 C0.179023437,13.0117188 0.18421875,13.0182031 0.190195312,13.0241016 C0.196171875,13.0300781 0.202734375,13.0353516 0.20890625,13.0410547 C0.218203125,13.0496484 0.227226562,13.0583984 0.236953125,13.0664453 C0.243125,13.0715234 0.249765625,13.0759375 0.256132812,13.0807422 C0.266640625,13.0887891 0.277109375,13.0970313 0.288125,13.1044531 C0.29328125,13.1078906 0.298671875,13.1107422 0.303867187,13.1139844 C0.316640625,13.1220312 0.329453125,13.1300781 0.342773437,13.1373047 C0.34671875,13.1394531 0.350859375,13.1410547 0.35484375,13.143125 C0.3696875,13.1507422 0.384726562,13.1581641 0.400234375,13.1645703 C0.403476562,13.1659375 0.406914062,13.1669141 0.41015625,13.1682031 C0.426484375,13.1746875 0.442890625,13.1808594 0.45984375,13.1860156 C0.463867187,13.1872266 0.468085937,13.1880078 0.472109375,13.1891797 C0.48828125,13.1937891 0.504570312,13.1982031 0.521210937,13.2015234 C0.52953125,13.2032031 0.538085937,13.2040625 0.546484375,13.2053516 C0.559023437,13.2073828 0.57140625,13.2097266 0.58421875,13.2110156 C0.60578125,13.2131641 0.627539062,13.2143359 0.649335937,13.2143359 L6.78554687,13.2143359 L6.78554687,19.3505859 C6.78554687,19.7092578 7.07636719,20 7.43496094,20 L12.5648437,20 C12.9234375,20 13.2142578,19.7092578 13.2142578,19.3505859 L13.2142578,12.5651172 C13.2142578,12.5433594 13.2131641,12.5217188 13.2110156,12.5003125 C13.2094531,12.4845312 13.2067187,12.4690625 13.2040625,12.4535938 C13.2030859,12.4482031 13.2026172,12.4426953 13.2016016,12.4373047 C13.1978906,12.4186719 13.1930859,12.4004297 13.1877734,12.3823828 C13.1871094,12.3802344 13.1867187,12.3780078 13.1861328,12.3759375 C13.1805469,12.3576172 13.1739453,12.3396875 13.1668359,12.3221094 C13.1660547,12.3201563 13.1654687,12.318125 13.1646875,12.31625 C13.1578125,12.2996484 13.1499609,12.2835156 13.1417187,12.2676953 C13.1402344,12.2647656 13.1389844,12.2616406 13.1374219,12.2587109 C13.1297656,12.2444922 13.12125,12.2308594 13.1126172,12.2173047 C13.1098437,12.2129297 13.1074219,12.2083203 13.1045703,12.2040625 C13.0964062,12.1918359 13.0873437,12.1802734 13.0783984,12.1687109 C13.074375,12.1635156 13.0708203,12.1580469 13.0665625,12.1529297 C13.0560547,12.1401563 13.0446875,12.1280469 13.0332812,12.1161328 C13.0300781,12.1128125 13.0273437,12.1092188 13.0241016,12.1059766 L8.08441406,7.16628906 L8.08441406,1.29898437 L11.9155078,1.29898437 L11.9155078,7.43519531 C11.9155078,7.79386719 12.2063281,8.08460938 12.5649219,8.08460938 L18.7011328,8.08460938 L18.7011328,11.9157031 L16.1692969,11.9157031 C15.8107031,11.9157031 15.5198828,12.2064453 15.5198828,12.5651172 C15.5198828,12.9237891 15.8107031,13.2145313 16.1692969,13.2145313 L19.3505469,13.2145313 C19.7091406,13.2145313 19.9999219,12.9237891 19.9999219,12.5651172 L19.9999219,7.43519531 C20,7.0765625 19.7091797,6.78582031 19.3505859,6.78582031 Z" id="Fill-3" fill="#000000" mask="url(#mask-2)"></path>
                </g>
            </g>
        </g>
    </g>
</svg>