<?xml version="1.0" encoding="UTF-8"?>
<svg width="23px" preserveAspectRatio="none" height="24px" viewBox="0 0 23 24" version="1.1" xmlns="http://www.w3.org/2000/svg" xmlns:xlink="http://www.w3.org/1999/xlink">
    <!-- Generator: Sketch 51.1 (57501) - http://www.bohemiancoding.com/sketch -->
    <title>filter icon</title>
    <desc>Created with Sketch.</desc>
    <defs></defs>
    <g id="patient-home" stroke="none" stroke-width="1" fill="none" fill-rule="evenodd">
        <g id="patient-home-vitals-history-filter-view" transform="translate(-332.000000, -134.000000)">
            <g id="active-filter-copy" transform="translate(331.000000, 134.000000)">
                <circle id="Oval-6" fill="#00BCD4" cx="18" cy="4" r="2"></circle>
                <circle id="Oval-6" fill="#00BCD4" cx="7" cy="2" r="2"></circle>
                <path d="M15,6 C15,4.8954305 14.1045695,4 13,4 C11.8954305,4 11,4.8954305 11,6 C11,7.1045695 15,7.1045695 15,6 Z" id="Oval-6-Copy" fill="#00BCD4"></path>
                <g id="Group" stroke-width="1" transform="translate(1.000000, 0.000000)">
                    <path d="M5.37885938,14.379 C5.25557812,14.379 5.13464062,14.3288437 5.04745312,14.2416094 C4.96026562,14.1544687 4.91010937,14.0335312 4.91010937,13.91025 C4.91010937,13.7869687 4.96026562,13.6660312 5.04745312,13.5788437 C5.13464062,13.4916563 5.25557812,13.4415 5.37885938,13.4415 C5.50214063,13.4415 5.62307813,13.4916094 5.71026562,13.5788437 C5.79745312,13.6660781 5.84760938,13.7869687 5.84760938,13.91025 C5.84760938,14.034 5.79745312,14.1544687 5.71026562,14.2416094 C5.62307813,14.3288437 5.50214063,14.379 5.37885938,14.379" id="Fill-1" fill="#0A090B"></path>
                    <g id="Group-5">
                        <polygon id="Path-3" fill="#00BCD4" points="4 6 10.9504395 16.4251651 10.9504395 22.8349609 13.642334 22.0521327 13.642334 17.6209508 22.2285156 8.96467659 22.2285156 6"></polygon>
                        <path d="M5.86045312,0.9375 C5.48484375,0.9375 5.1316875,1.08379687 4.86609375,1.34939062 C4.60045312,1.61498437 4.45420312,1.96809375 4.45420312,2.34375 C4.45420312,3.1190625 5.08504688,3.74985938 5.86045312,3.74990625 C6.63585937,3.74985938 7.26670312,3.1190625 7.26670312,2.34375 C7.26675,1.56834375 6.63590625,0.9375 5.86045312,0.9375 Z M5.8605,4.68740625 C4.56810937,4.68735938 3.51670312,3.63595313 3.51675,2.34375 C3.51675,1.71773437 3.76054688,1.12917188 4.2031875,0.686484375 C4.645875,0.243796875 5.2344375,0 5.86045312,0 C7.15279687,0 8.20420312,1.05140625 8.20420312,2.34375 C8.20425,3.63595313 7.15289062,4.68735938 5.8605,4.68740625 Z" id="Fill-2" fill="#0A090B"></path>
                        <path d="M10.5031875,5.2756875 C10.8219375,4.9569375 11.2456875,4.78139062 11.6964844,4.78139062 C12.4643438,4.78139062 13.1136094,5.2970625 13.3173281,6.00014062 L10.0750313,6.00014062 C10.1528906,5.72910938 10.29825,5.48057812 10.5031875,5.2756875 Z M15.9147656,5.50584375 C15.5960156,5.18709375 15.4205156,4.76334375 15.4205156,4.31264062 C15.4205156,3.86189063 15.5960156,3.43814062 15.9147656,3.1194375 C16.2335156,2.8006875 16.6572656,2.6251875 17.1080625,2.6251875 C18.0385781,2.6251875 18.7956094,3.382125 18.7956094,4.31264062 C18.7956094,5.24310938 18.0385781,6.00009375 17.1081094,6.00014062 C16.6573125,6.00014062 16.2335156,5.82459375 15.9147656,5.50584375 Z M22.4998125,6.00014062 L19.1167031,6.00014062 C19.5009844,5.54348437 19.7331094,4.95478125 19.7331094,4.31264062 C19.7331094,2.86523438 18.5555156,1.6876875 17.1080625,1.6876875 C16.4069063,1.6876875 15.7477031,1.96073438 15.2518594,2.45653125 C14.7560625,2.95228125 14.4830625,3.61148438 14.4830625,4.31264062 C14.4830625,4.93710937 14.7001406,5.52801562 15.0977813,6.00014062 L14.2787344,6.00014062 C14.0569688,4.77567187 12.9838125,3.84389062 11.6964375,3.84389062 C10.9952813,3.84389062 10.3360781,4.1169375 9.84023438,4.61273437 C9.45684375,4.996125 9.20732813,5.4774375 9.113625,6.00014062 L0.46875,6.00014062 C0.209859375,6.00014062 0,6.21004687 0,6.46889062 L0,9.00009375 C0,9.12440625 0.04940625,9.24360938 0.137296875,9.33154687 L3.82865625,13.0229531 C4.01170313,13.2059531 4.30851563,13.2059531 4.49160938,13.0229531 C4.67465625,12.8399062 4.67465625,12.5430937 4.49160938,12.36 L1.60045313,9.46879687 L17.7654844,9.46879687 C18.024375,9.46879687 18.2342344,9.25889062 18.2342344,9.00004687 C18.2342344,8.74125 18.024375,8.53134375 17.7654844,8.53134375 L0.9375,8.53134375 L0.9375,6.93759375 L22.0310625,6.93759375 L22.0310625,8.80589062 L13.4028281,17.4342187 C13.3149375,17.5221562 13.2655313,17.6413594 13.2655313,17.7656719 L13.2655313,21.6062344 L9.70303125,22.8679688 L9.70303125,17.7656719 C9.70303125,17.6413594 9.653625,17.5221562 9.56573438,17.4342187 L6.89390625,14.7623906 C6.71085938,14.5793906 6.41404688,14.5793906 6.23095313,14.7623906 C6.04790625,14.9453906 6.04790625,15.2422031 6.23095313,15.4252969 L8.76553125,17.959875 L8.76553125,23.53125 C8.76553125,23.6834531 8.83945313,23.8261875 8.96376563,23.9140313 C9.04392188,23.97075 9.13860937,24 9.23428125,24 C9.286875,24 9.33979687,23.9911406 9.39070313,23.9730938 L13.8907031,22.3793438 C14.077875,22.3130625 14.2029844,22.1360625 14.2029844,21.9375 L14.2029844,17.959875 L22.8312188,9.33159375 C22.9191094,9.24365625 22.9685156,9.12445312 22.9685156,9.00014062 L22.9685156,6.4689375 C22.9685625,6.21 22.7587031,6.00014062 22.4998125,6.00014062 Z" id="Fill-4" fill="#0A090B"></path>
                    </g>
                    <path d="M19.4998594,9.46884375 C19.3765781,9.46884375 19.2556406,9.4186875 19.1684531,9.33145312 C19.0812656,9.2443125 19.0311094,9.123375 19.0311094,9.00009375 C19.0311094,8.8768125 19.0812656,8.75592188 19.1684531,8.66873437 C19.2556406,8.58154688 19.3765781,8.53139063 19.4998594,8.53139063 C19.6231406,8.53139063 19.7440781,8.5815 19.8312656,8.66873437 C19.9184531,8.75596875 19.9686094,8.8768125 19.9686094,9.00009375 C19.9686094,9.123375 19.9184531,9.2443125 19.8312656,9.33145312 C19.7440781,9.4186875 19.6231406,9.46884375 19.4998594,9.46884375" id="Fill-6" fill="#0A090B"></path>
                </g>
            </g>
        </g>
    </g>
</svg>