<?xml version="1.0" encoding="UTF-8"?>
<svg preserveAspectRatio="none" width="24px" height="26px" viewBox="0 0 24 26" version="1.1" xmlns="http://www.w3.org/2000/svg" xmlns:xlink="http://www.w3.org/1999/xlink">
    <!-- Generator: Sketch 51.1 (57501) - http://www.bohemiancoding.com/sketch -->
    <title>appointment to do list icon copy 2</title>
    <desc>Created with Sketch.</desc>
    <defs>
        <polygon id="path-1" points="0.00379562044 0.0290364964 23.993081 0.0290364964 23.993081 22.5840681 0.00379562044 22.5840681"></polygon>
    </defs>
    <g id="Dashboard" stroke="none" stroke-width="1" fill="none" fill-rule="evenodd">
        <g id="dashboard" transform="translate(-21.000000, -467.000000)">
            <g id="to-do-list" transform="translate(20.000000, 275.000000)">
                <g id="to-do-list-content" transform="translate(0.000000, 40.000000)">
                    <g id="follow-up-cell-copy" transform="translate(0.000000, 150.000000)">
                        <g id="appointment-request-icon" transform="translate(0.000000, 2.000000)">
                            <g id="Group" transform="translate(1.000000, 0.000000)">
                                <g id="Group-3" transform="translate(0.000000, 3.352798)">
                                    <mask id="mask-2" fill="white">
                                        <use xlink:href="#path-1"></use>
                                    </mask>
                                    <g id="Clip-2"></g>
                                    <path d="M6.62082725,22.5840681 L6.62057421,22.5840681 C5.36624818,22.5840681 4.27823358,21.7769927 3.91347445,20.5757421 L0.123547445,8.09941119 C-0.0961557178,7.37609246 -0.0210024331,6.61057908 0.335090024,5.9436253 C0.691182482,5.27667153 1.28570316,4.788618 2.0090219,4.56891484 L16.5502336,0.151824818 C16.8183309,0.0702822384 17.0953479,0.0290364964 17.3733771,0.0290364964 C18.6279562,0.0290364964 19.7159708,0.836048662 20.0807299,2.03704623 L23.8706569,14.5133771 C24.3241071,16.0067007 23.4785061,17.5904234 21.9851825,18.0441265 L7.4439708,22.4612165 C7.17612652,22.5427591 6.89910949,22.5840681 6.62082725,22.5840681 Z M17.3736302,1.46422384 C17.2367348,1.46422384 17.1000292,1.48472019 16.9673723,1.52501703 L2.42616058,5.9423601 C2.06956204,6.05059854 1.77672993,6.29105109 1.60105596,6.61968856 C1.42557178,6.94832603 1.38875426,7.32567397 1.4969927,7.68227251 L5.28691971,20.1586667 C5.46385888,20.7416107 6.01245255,21.1485645 6.62082725,21.1485645 C6.75746959,21.1485645 6.89411192,21.1280681 7.02683212,21.0877713 L21.5680438,16.6706813 C22.3039513,16.447056 22.720837,15.6666764 22.4972117,14.9305158 L18.7072847,2.4543747 C18.5303455,1.87149392 17.9820049,1.46422384 17.3736302,1.46422384 Z" id="Fill-1" fill="#000000" mask="url(#mask-2)"></path>
                                </g>
                                <path d="M5.16438443,14.9823893 C4.85668613,14.9823893 4.5720146,14.7829927 4.47813625,14.4731436 C4.36274939,14.0938345 4.57701217,13.693017 4.95606813,13.57782 L17.1487397,9.87411679 C17.5277956,9.75898297 17.9286131,9.9729927 18.044,10.3523017 C18.1591971,10.7316107 17.9451873,11.1324282 17.5658783,11.247562 L5.37339659,14.9512652 C5.30374696,14.9722676 5.23352798,14.9823893 5.16438443,14.9823893 Z" id="Fill-4" fill="#000000"></path>
                                <path d="M6.53827251,19.5055036 C6.23063747,19.5055036 5.94596594,19.305854 5.85208759,18.9962579 C5.73695377,18.6169489 5.95090024,18.2161314 6.3299562,18.1009343 L18.522691,14.3972311 C18.902,14.2820973 19.3028175,14.495854 19.4179513,14.875163 C19.5330852,15.254472 19.3191387,15.6552895 18.9398297,15.7704866 L6.74734793,19.4741265 C6.6776983,19.495382 6.60747932,19.5055036 6.53827251,19.5055036 Z" id="Fill-5" fill="#000000"></path>
                                <path d="M7.28778102,6.32957664 L7.55663747,3.88342579 C7.59889538,3.49747445 7.29670073,3.16017032 6.90821898,3.16017032 L6.90796594,3.16017032 C6.5476983,3.16017032 6.2556253,2.86803406 6.2556253,2.50776642 L6.2556253,1.39527007 C6.2556253,1.03525547 6.5476983,0.743182482 6.90796594,0.743182482 L12.5636302,0.74292944 C12.9238978,0.74292944 13.2159708,1.03500243 13.2159708,1.39527007 L13.2159708,2.50776642 C13.2159708,2.86803406 12.9238978,3.16017032 12.5636302,3.16017032 C12.1751484,3.15991727 11.8727007,3.49747445 11.9152117,3.88342579 L12.1838151,6.32957664 C12.226326,6.71559124 11.9238151,7.05289538 11.5356496,7.05289538 L7.93619951,7.05289538 C7.54771776,7.05289538 7.24552311,6.71559124 7.28778102,6.32957664 Z" id="Fill-6" fill="#41CBC7"></path>
                                <path d="M11.5356496,7.77052068 L7.93619951,7.77052068 C7.54752798,7.77052068 7.17562044,7.60446229 6.91612652,7.31504623 C6.65669586,7.02544039 6.53213625,6.63771776 6.5746472,6.2510073 L6.83559611,3.87551825 C6.11354258,3.83775182 5.538,3.23848662 5.538,2.50751338 L5.538,1.39527007 C5.538,0.639878345 6.15257421,0.0253041363 6.90796594,0.0253041363 L12.5636302,0.0253041363 C13.3190219,0.0253041363 13.9335961,0.639878345 13.9335961,1.39527007 L13.9335961,2.50776642 C13.9335961,3.23873966 13.3580535,3.83800487 12.6365061,3.87577129 L12.897455,6.25126034 C12.9397129,6.63771776 12.8151533,7.02544039 12.5557226,7.31504623 C12.2962287,7.60446229 11.9243212,7.77052068 11.5356496,7.77052068 Z M8.00932847,6.33527007 L11.4624574,6.33527007 L11.2017616,3.96180535 C11.1592506,3.57528467 11.2838102,3.18756204 11.5433041,2.8979562 C11.7881849,2.62467153 12.1331436,2.46133333 12.4980925,2.44374696 L12.4980925,1.46074453 L6.97344039,1.46074453 L6.97344039,2.44374696 C7.33845255,2.46133333 7.68366423,2.62441849 7.92854501,2.89770316 C8.18803893,3.187309 8.31253528,3.57503163 8.27002433,3.96180535 L8.00932847,6.33527007 Z" id="Fill-7" fill="#000000"></path>
                                <path d="M9.7356399,10.3359805 C9.33956691,10.3359805 9.01807786,10.0144915 9.01807786,9.61816545 L9.01807786,7.05289538 C9.01807786,6.65650608 9.33956691,6.33527007 9.7356399,6.33527007 C10.1320292,6.33527007 10.4535182,6.65650608 10.4535182,7.05289538 L10.4535182,9.61816545 C10.4535182,10.0144915 10.1322822,10.3359805 9.7356399,10.3359805 Z" id="Fill-8" fill="#000000"></path>
                            </g>
                        </g>
                    </g>
                </g>
            </g>
        </g>
    </g>
</svg>