<?xml version="1.0" encoding="UTF-8"?>
<svg preserveAspectRatio="none" width="26px" height="26px" viewBox="0 0 26 26" version="1.1" xmlns="http://www.w3.org/2000/svg" xmlns:xlink="http://www.w3.org/1999/xlink">
    <!-- Generator: Sketch 51.1 (57501) - http://www.bohemiancoding.com/sketch -->
    <title>appointment to do list icon</title>
    <desc>Created with Sketch.</desc>
    <defs></defs>
    <g id="Dashboard" stroke="none" stroke-width="1" fill="none" fill-rule="evenodd">
        <g id="dashboard" transform="translate(-20.000000, -317.000000)">
            <g id="to-do-list" transform="translate(20.000000, 275.000000)">
                <g id="to-do-list-content" transform="translate(0.000000, 40.000000)">
                    <g id="appointment-">
                        <g id="appointment-to-do-list-icon" transform="translate(0.000000, 2.000000)">
                            <g id="Group">
                                <path d="M2.5884557,25.9990886 C1.54526582,25.9990886 0.696607595,25.150481 0.696607595,24.1073418 L0.696607595,7.89397468 C0.696607595,7.46663291 1.04313924,7.12005063 1.47058228,7.12005063 C1.89802532,7.12005063 2.24450633,7.46663291 2.24450633,7.89397468 L2.24450633,24.1073418 C2.24450633,24.296962 2.39883544,24.4511899 2.5884557,24.4511899 L23.3355949,24.4511899 C23.5252152,24.4511899 23.6795443,24.296962 23.6795443,24.1073418 L23.6795443,14.0861772 C23.6795443,13.6588354 24.0260253,13.3122532 24.4534684,13.3122532 C24.8809114,13.3122532 25.227443,13.6588354 25.227443,14.0861772 L25.227443,24.1073418 C25.227443,25.1505316 24.3787848,25.9990886 23.3355949,25.9990886 L2.5884557,25.9990886 Z" id="Fill-1" fill="#000000"></path>
                                <path d="M25.1501266,7.37832911 L25.1501266,3.2201519 C25.1501266,2.60278481 24.6495696,2.10232911 24.0322025,2.10232911 L1.8918481,2.10232911 C1.27448101,2.10227848 0.773974684,2.60278481 0.773974684,3.2201519 L0.773974684,7.37843038 L25.1501266,7.37843038 L25.1501266,7.37832911" id="Fill-3" fill="#41CBC7"></path>
                                <path d="M1.54789873,6.6044557 L24.3761519,6.6044557 L24.3761519,3.2201519 C24.3761519,3.03053165 24.2218228,2.8763038 24.0322025,2.8763038 L1.8918481,2.8763038 C1.70222785,2.8763038 1.54789873,3.03053165 1.54789873,3.2201519 L1.54789873,6.6044557 Z M25.1501266,8.15235443 L0.773974684,8.15235443 C0.346481013,8.15235443 0,7.80582278 0,7.37843038 L0,3.2201519 C0,2.17696203 0.848607595,1.32840506 1.8918481,1.32840506 L24.0322025,1.32840506 C25.075443,1.32840506 25.9240506,2.17701266 25.9240506,3.2201519 L25.9240506,7.37843038 C25.9240506,7.80577215 25.5775696,8.15235443 25.1501266,8.15235443 Z" id="Fill-4" fill="#000000"></path>
                                <path d="M8.42465823,4.3083038 C7.99721519,4.3083038 7.65068354,3.96177215 7.65068354,3.53437975 L7.65068354,0.773924051 C7.65068354,0.346582278 7.99721519,0 8.42465823,0 C8.85210127,0 9.19858228,0.346582278 9.19858228,0.773924051 L9.19858228,3.53437975 C9.19858228,3.96177215 8.85210127,4.3083038 8.42465823,4.3083038" id="Fill-7" fill="#000000"></path>
                                <path d="M17.4993924,4.3083038 C17.0719494,4.3083038 16.7254684,3.96177215 16.7254684,3.53437975 L16.7254684,0.773924051 C16.7254684,0.346582278 17.0719494,0 17.4993924,0 C17.9268354,0 18.2733671,0.346582278 18.2733671,0.773924051 L18.2733671,3.53437975 C18.2733671,3.96177215 17.9268354,4.3083038 17.4993924,4.3083038" id="Fill-8" fill="#000000"></path>
                                <path d="M22.0367595,4.3083038 C21.6093165,4.3083038 21.2627848,3.96177215 21.2627848,3.53437975 L21.2627848,0.773924051 C21.2627848,0.346582278 21.6093165,0 22.0367595,0 C22.4642025,0 22.8106835,0.346582278 22.8106835,0.773924051 L22.8106835,3.53437975 C22.8106835,3.96177215 22.4642025,4.3083038 22.0367595,4.3083038" id="Fill-10" fill="#000000"></path>
                                <path d="M3.88729114,4.3083038 C3.4598481,4.3083038 3.11336709,3.96177215 3.11336709,3.53437975 L3.11336709,0.773924051 C3.11336709,0.346582278 3.4598481,0 3.88729114,0 C4.31473418,0 4.66126582,0.346582278 4.66126582,0.773924051 L4.66126582,3.53437975 C4.66126582,3.96177215 4.31473418,4.3083038 3.88729114,4.3083038" id="Fill-6" fill="#000000"></path>
                                <path d="M12.9619747,4.3083038 C12.5345316,4.3083038 12.1880506,3.96177215 12.1880506,3.53437975 L12.1880506,0.773924051 C12.1880506,0.346582278 12.5345316,0 12.9619747,0 C13.3894177,0 13.7359494,0.346582278 13.7359494,0.773924051 L13.7359494,3.53437975 C13.7359494,3.96177215 13.3894177,4.3083038 12.9619747,4.3083038" id="Fill-9" fill="#000000"></path>
                                <path d="M12.868962,18.2640506 C12.6636962,18.2640506 12.4668354,18.182481 12.3217215,18.0373671 L9.92263291,15.6382785 C9.62040506,15.3360506 9.62040506,14.8459747 9.92263291,14.5436962 C10.2248608,14.241519 10.7148861,14.2416203 11.0171139,14.5436962 L12.8688608,16.3954937 L16.3948354,12.8695696 C16.6970633,12.5673924 17.1871392,12.5673924 17.4894177,12.8695696 C17.7916456,13.1717975 17.7916456,13.6618734 17.4894177,13.9641519 L13.4162025,18.0373671 C13.2710886,18.182481 13.0742785,18.2640506 12.868962,18.2640506" id="Fill-11" fill="#000000"></path>
                                <path d="M18.2618734,21.1295696 L7.66217722,21.1295696 C7.23468354,21.1295696 6.88820253,20.783038 6.88820253,20.3556456 L6.88820253,12.08 C6.88820253,11.6526076 7.23468354,11.3060253 7.66217722,11.3060253 L12.4718481,11.3060253 C12.8992911,11.3060253 13.2457722,11.6526076 13.2457722,12.08 C13.2457722,12.5073418 12.8992911,12.8539241 12.4718481,12.8539241 L8.43610127,12.8539241 L8.43610127,19.5817722 L17.4879494,19.5817722 L17.4879494,16.2689114 C17.4879494,15.841519 17.8344304,15.4949367 18.2618734,15.4949367 C18.6893671,15.4949367 19.0358481,15.841519 19.0358481,16.2689114 L19.0358481,20.3556962 C19.0358481,20.7830886 18.6893671,21.1295696 18.2618734,21.1295696" id="Fill-12" fill="#000000"></path>
                            </g>
                        </g>
                    </g>
                </g>
            </g>
        </g>
    </g>
</svg>