<?xml version="1.0" encoding="UTF-8"?>
<svg width="23px" preserveAspectRatio="none" height="26px" viewBox="0 0 23 26" version="1.1" xmlns="http://www.w3.org/2000/svg" xmlns:xlink="http://www.w3.org/1999/xlink">
    <!-- Generator: Sketch 51.1 (57501) - http://www.bohemiancoding.com/sketch -->
    <title>Group</title>
    <desc>Created with Sketch.</desc>
    <defs></defs>
    <g id="Symbols" stroke="none" stroke-width="1" fill="none" fill-rule="evenodd">
        <g id="invite-practiec-members" transform="translate(-2.000000, 0.000000)" fill="#FFFFFF">
            <g id="Group" transform="translate(2.000000, 0.000000)">
                <path d="M1.50759375,24.492457 L1.50759375,16.7226211 C1.50759375,14.3135078 3.46754688,12.3535547 5.87666016,12.3535547 L7.11135547,12.3535547 C7.12394922,12.3536563 7.13649219,12.3545703 7.14908594,12.3545703 L7.93086328,12.3545703 L7.93086328,19.6755508 C7.93086328,20.0918555 8.26835547,20.4292969 8.68460937,20.4292969 C9.10091406,20.4292969 9.43840625,20.0918555 9.43840625,19.6755508 L9.43840625,12.3545703 L10.2201836,12.3545703 C10.2328789,12.3545703 10.2453203,12.353707 10.2578633,12.3535547 L11.4926094,12.3535547 C12.6447344,12.3535547 13.7482617,12.8151055 14.56,13.6138438 C14.2437344,13.8078789 13.8894336,13.9406211 13.5148711,13.9969883 C13.5124336,13.9973945 13.5099961,13.9979023 13.507457,13.9983086 C13.4491094,14.0068906 13.3901523,14.0128828 13.3309922,14.0178086 C13.3213945,14.0185703 13.312,14.020043 13.3024023,14.0207539 C13.2395352,14.0253242 13.1762109,14.027457 13.1126328,14.0277617 C13.1081133,14.0277617 13.103543,14.0282188 13.0990234,14.0282188 C12.7221758,14.0282188 12.3568047,13.9547383 12.013168,13.8097578 C11.7804883,13.7115469 11.5140391,13.7364805 11.3034492,13.8761797 C11.0929609,14.0158281 10.9664141,14.2516055 10.9664141,14.504293 L10.9664141,21.1423672 C10.9664141,21.4976328 11.0269453,21.8437578 11.1406953,22.1684531 C11.3908438,22.882793 11.8983516,23.4931328 12.5846602,23.8670859 L13.7322656,24.4924063 L1.50759375,24.492457 Z M21.6615547,13.7505977 C21.24525,13.7505977 20.9078086,14.0880391 20.9078086,14.5043438 L20.9078086,21.1424687 C20.9078086,21.7269102 20.5889531,22.263668 20.075707,22.5433711 L16.6908828,24.3877969 L13.3061094,22.5433711 C12.7928633,22.2637695 12.4740078,21.7269102 12.4740078,21.1424687 L12.4740078,15.4909727 C12.6797227,15.5208828 12.8882813,15.5358633 13.099125,15.5358633 C13.1630586,15.5358633 13.2267383,15.5339336 13.2902148,15.5311406 C13.3068711,15.5303789 13.3235781,15.5297188 13.3401836,15.5288047 C13.3974648,15.5256562 13.454543,15.521543 13.5112656,15.5161602 C13.5384336,15.5135703 13.5653477,15.510168 13.5923125,15.5071719 C13.6201914,15.5039219 13.6480703,15.5005195 13.6758477,15.4967617 C14.4419336,15.3949453 15.1584063,15.0907148 15.764582,14.6099688 C15.7830664,14.5953945 15.8015,14.5808711 15.8197305,14.5659414 C15.8415156,14.5480664 15.86325,14.5301406 15.8847305,14.5118086 C15.9281484,14.4749414 15.9709063,14.4373633 16.0128516,14.3987695 C16.0198594,14.3923711 16.0266641,14.3857188 16.0335703,14.3792187 C16.0817617,14.3343789 16.1289375,14.2884727 16.1750977,14.2414492 C16.1755547,14.2409922 16.1759102,14.2406367 16.1763672,14.2401797 C16.176418,14.2400781 16.1765703,14.2399258 16.1766719,14.239875 C16.3667461,14.0455352 16.5395039,13.8325078 16.6914922,13.6024688 C17.055543,14.1513125 17.5450234,14.6174844 18.1144336,14.9503047 C18.4738125,15.1603359 18.9355156,15.0392227 19.1454961,14.6798437 C19.3555781,14.3204648 19.2344648,13.8587617 18.8750352,13.6487812 C18.3684414,13.3526758 17.9592461,12.8946289 17.7227578,12.3588359 C17.6022539,12.0856836 17.331793,11.9094727 17.03325,11.9094727 L16.3484648,11.9094727 C16.0498711,11.9094727 15.7794102,12.0856836 15.6589063,12.3588359 C15.6363086,12.4101758 15.6111719,12.4598398 15.5857813,12.5093008 C14.9322773,11.8760586 14.1411055,11.4040469 13.2809219,11.1277461 C14.1317109,10.3177852 14.663543,9.17576563 14.663543,7.91121094 L14.663543,4.44341016 C14.663543,4.02710547 14.3261016,3.68966406 13.9097969,3.68966406 C13.4934922,3.68966406 13.1560508,4.02710547 13.1560508,4.44341016 L13.1560508,7.91110938 C13.1560508,9.51732031 11.8593516,10.8256992 10.2578633,10.8460625 L7.11130469,10.8460625 C5.50986719,10.8256992 4.21316797,9.51732031 4.21316797,7.91110938 L4.21316797,4.44341016 C4.21316797,2.82455469 5.53023047,1.50754297 7.14908594,1.50754297 L10.2201836,1.50754297 C10.6364883,1.50754297 10.9739805,1.17005078 10.9739805,0.753746094 C10.9739805,0.337441406 10.6364883,0 10.2201836,0 L7.14908594,0 C4.69894141,0 2.705625,1.99331641 2.705625,4.44341016 L2.705625,7.91110938 C2.705625,9.17475 3.23674609,10.3160078 4.08636719,11.1258672 C1.71889453,11.8848945 0,14.1063711 0,16.7226211 L0,25.2462539 C0,25.6625586 0.337441406,26 0.753746094,26 L16.6154219,26 C16.6295391,26 16.6433008,25.9986289 16.6572656,25.9978672 C16.6684883,25.9984258 16.6796602,26 16.6908828,26 C16.8149414,26 16.9391016,25.9693789 17.0515313,25.9081367 L20.7970039,23.8671367 C21.7952109,23.3232188 22.41525,22.279207 22.41525,21.1425195 L22.41525,14.5044453 C22.4153516,14.0880391 22.0778594,13.7505977 21.6615547,13.7505977 Z" id="Fill-3"></path>
                <rect id="Rectangle" x="16.046875" y="16.3007812" width="1.47265625" height="5.33203125" rx="0.736328125"></rect>
                <rect id="Rectangle-Copy" transform="translate(16.783203, 18.966797) rotate(-270.000000) translate(-16.783203, -18.966797) " x="16.046875" y="16.3007812" width="1.47265625" height="5.33203125" rx="0.736328125"></rect>
            </g>
        </g>
    </g>
</svg>