<?xml version="1.0" encoding="UTF-8"?>
<svg width="26px" preserveAspectRatio="none" height="26px" viewBox="0 0 26 26" version="1.1" xmlns="http://www.w3.org/2000/svg" xmlns:xlink="http://www.w3.org/1999/xlink">
    <!-- Generator: Sketch 51.1 (57501) - http://www.bohemiancoding.com/sketch -->
    <title>Group</title>
    <desc>Created with Sketch.</desc>
    <defs></defs>
    <g id="Symbols" stroke="none" stroke-width="1" fill="none" fill-rule="evenodd">
        <g id="settings-icon" fill="#FFFFFF">
            <g id="Group" transform="translate(0.000000, 0.228516)">
                <path d="M0.822605469,13.6153164 C0.368367187,13.6153164 0,13.2470508 0,12.7927109 C0,12.3383711 0.368367187,11.9701055 0.822605469,11.9701055 L6.38833203,11.9701055 C6.84257031,11.9701055 7.2109375,12.3383711 7.2109375,12.7927109 C7.2109375,13.2470508 6.84267187,13.6153164 6.38833203,13.6153164 L0.822605469,13.6153164 Z" id="Fill-1"></path>
                <path d="M13.6702617,13.6153164 C13.2160234,13.6153164 12.8476562,13.2470508 12.8476562,12.7927109 C12.8476562,12.3383711 13.2160234,11.9701055 13.6702617,11.9701055 L25.0250508,11.9701055 C25.4792891,11.9701055 25.8476562,12.3383711 25.8476562,12.7927109 C25.8476562,13.2470508 25.4793906,13.6153164 25.0250508,13.6153164 L13.6702617,13.6153164 Z" id="Fill-1-Copy"></path>
                <path d="M10.0935352,10.0781484 C8.59670703,10.0781484 7.37892187,11.2959336 7.37892187,12.7927109 C7.37892187,14.2894883 8.59670703,15.5072734 10.0935352,15.5072734 C11.5903125,15.5072734 12.8080977,14.2894883 12.8080977,12.7927109 C12.8080977,11.2959336 11.5903125,10.0781484 10.0935352,10.0781484 Z M10.0935352,17.1524844 C7.6895,17.1524844 5.73376172,15.1966953 5.73376172,12.7927109 C5.73376172,10.3887773 7.6895,8.4329375 10.0935352,8.4329375 C12.4975703,8.4329375 14.4532578,10.3887773 14.4532578,12.7927109 C14.4532578,15.1966953 12.4975703,17.1524844 10.0935352,17.1524844 Z" id="Fill-5"></path>
                <path d="M16.537168,5.22483203 L0.822605469,5.22483203 C0.368367188,5.22483203 0,4.85656641 0,4.40222656 C0,3.94788672 0.368367188,3.57962109 0.822605469,3.57962109 L16.537168,3.57962109 C16.9914063,3.57962109 17.3597734,3.94788672 17.3597734,4.40222656 C17.3597734,4.85656641 16.9915078,5.22483203 16.537168,5.22483203" id="Fill-7"></path>
                <path d="M25.1773945,5.22483203 L23.6115039,5.22483203 C23.1572656,5.22483203 22.7888984,4.85656641 22.7888984,4.40222656 C22.7888984,3.94788672 23.1572656,3.57962109 23.6115039,3.57962109 L25.1773945,3.57962109 C25.6316328,3.57962109 26,3.94788672 26,4.40222656 C26,4.85656641 25.6317344,5.22483203 25.1773945,5.22483203" id="Fill-9"></path>
                <path d="M20.0743359,8.762 C19.6200977,8.762 19.2517305,8.39373437 19.2517305,7.93939453 C19.2517305,7.48505469 19.6200977,7.11678906 20.0743359,7.11678906 C21.5711133,7.11678906 22.7888984,5.89900391 22.7888984,4.40222656 C22.7888984,2.90539844 21.5711133,1.68766406 20.0743359,1.68766406 C18.5775586,1.68766406 17.3597734,2.90539844 17.3597734,4.40222656 C17.3597734,4.85656641 16.9914063,5.22483203 16.537168,5.22483203 C16.0829297,5.22483203 15.7145625,4.85656641 15.7145625,4.40222656 C15.7145625,1.99824219 17.6703008,0.042453125 20.0743359,0.042453125 C22.4783711,0.042453125 24.4341094,1.99824219 24.4341094,4.40222656 C24.4341094,6.80616016 22.4783711,8.762 20.0743359,8.762" id="Fill-10"></path>
                <path d="M16.537168,22.0058008 L0.822605469,22.0058008 C0.368367188,22.0058008 0,21.6375352 0,21.1831953 C0,20.7289062 0.368367188,20.3605898 0.822605469,20.3605898 L16.537168,20.3605898 C16.9914063,20.3605898 17.3597734,20.7289062 17.3597734,21.1831953 C17.3597734,21.6375352 16.9915078,22.0058008 16.537168,22.0058008" id="Fill-12"></path>
                <path d="M25.1773945,22.0058008 L23.6115039,22.0058008 C23.1572656,22.0058008 22.7888984,21.6375352 22.7888984,21.1831953 C22.7888984,20.7289062 23.1572656,20.3605898 23.6115039,20.3605898 L25.1773945,20.3605898 C25.6316328,20.3605898 26,20.7289062 26,21.1831953 C26,21.6375352 25.6317344,22.0058008 25.1773945,22.0058008" id="Fill-13"></path>
                <path d="M20.0743359,25.5429687 C19.6200977,25.5429687 19.2517305,25.1747031 19.2517305,24.7203633 C19.2517305,24.2660742 19.6200977,23.8977578 20.0743359,23.8977578 C21.5711133,23.8977578 22.7888984,22.6800234 22.7888984,21.1831953 C22.7888984,19.686418 21.5711133,18.4686328 20.0743359,18.4686328 C18.5775586,18.4686328 17.3597734,19.686418 17.3597734,21.1831953 C17.3597734,21.6375352 16.9914063,22.0058008 16.537168,22.0058008 C16.0829297,22.0058008 15.7145625,21.6375352 15.7145625,21.1831953 C15.7145625,18.7792617 17.6703008,16.8234219 20.0743359,16.8234219 C22.4783711,16.8234219 24.4341094,18.7792617 24.4341094,21.1831953 C24.4341094,23.5871797 22.4783711,25.5429687 20.0743359,25.5429687" id="Fill-14"></path>
            </g>
        </g>
    </g>
</svg>