<?xml version="1.0" encoding="UTF-8"?>
<svg width="22px" preserveAspectRatio="none" height="26px" viewBox="0 0 22 26" version="1.1" xmlns="http://www.w3.org/2000/svg" xmlns:xlink="http://www.w3.org/1999/xlink">
    <!-- Generator: Sketch 51.1 (57501) - http://www.bohemiancoding.com/sketch -->
    <title>Group 2</title>
    <desc>Created with Sketch.</desc>
    <defs></defs>
    <g id="Symbols" stroke="none" stroke-width="1" fill="none" fill-rule="evenodd">
        <g id="schedules-icon" transform="translate(-2.000000, 0.000000)" fill="#FFFFFF">
            <g id="Group-2" transform="translate(2.000000, 0.000000)">
                <path d="M19.149,25.974761 L2.78948293,25.974761 C1.25142439,25.974761 0,24.7232732 0,23.1852146 L0,8.1111122 C0,6.57305366 1.25142439,5.32188293 2.78948293,5.32188293 L19.149,5.32188293 C20.6870585,5.32188293 21.9384829,6.57330732 21.9384829,8.1111122 L21.9384829,23.1852146 C21.9384829,24.7232732 20.6870585,25.974761 19.149,25.974761 Z M2.78948293,6.67337561 C1.99654634,6.67337561 1.35149268,7.31842927 1.35149268,8.1111122 L1.35149268,23.184961 C1.35149268,23.9778976 1.99654634,24.6229512 2.78948293,24.6229512 L19.149,24.6229512 C19.9419366,24.6229512 20.5869902,23.9778976 20.5869902,23.184961 L20.5869902,8.1111122 C20.5869902,7.31842927 19.9419366,6.67337561 19.149,6.67337561 L2.78948293,6.67337561 Z" id="Fill-1"></path>
                <path d="M21.2627366,11.3868585 L0.675746341,11.3868585 C0.302487805,11.3868585 0,11.0841805 0,10.7111122 L0,8.1111122 C0,6.57305366 1.25142439,5.32188293 2.78948293,5.32188293 L19.149,5.32188293 C20.6870585,5.32188293 21.9384829,6.57330732 21.9384829,8.1111122 L21.9384829,10.7111122 C21.9384829,11.0841805 21.6358049,11.3868585 21.2627366,11.3868585 Z M1.35149268,10.0353659 L20.5869902,10.0353659 L20.5869902,8.1111122 C20.5869902,7.31842927 19.9419366,6.67337561 19.149,6.67337561 L2.78948293,6.67337561 C1.99654634,6.67337561 1.35149268,7.31842927 1.35149268,8.1111122 L1.35149268,10.0353659 Z" id="Fill-4"></path>
                <path d="M3.60372683,16.8348732 C3.23040488,16.8348732 2.92798049,16.5323854 2.92798049,16.1590634 L2.92798049,14.1920049 C2.92798049,13.6185463 3.39439512,13.1520683 3.9676,13.1520683 L6.30652195,13.1520683 C6.6798439,13.1520683 6.98226829,13.4548098 6.98226829,13.827878 C6.98226829,14.2008829 6.6798439,14.5036244 6.30652195,14.5036244 L4.27921951,14.5036244 L4.27921951,16.1593171 C4.27921951,16.5323854 3.97679512,16.8348732 3.60372683,16.8348732 Z" id="Fill-6"></path>
                <path d="M9.66280488,16.8348732 C9.28973659,16.8348732 8.98705854,16.5323854 8.98705854,16.1590634 L8.98705854,14.1920049 C8.98705854,13.6185463 9.45347317,13.1520683 10.0269317,13.1520683 L12.3658537,13.1520683 C12.7391756,13.1520683 13.0416,13.4548098 13.0416,13.827878 C13.0416,14.2008829 12.7391756,14.5036244 12.3658537,14.5036244 L10.3385512,14.5036244 L10.3385512,16.1593171 C10.3385512,16.5323854 10.0361268,16.8348732 9.66280488,16.8348732 Z" id="Fill-7"></path>
                <path d="M15.7221366,16.8348732 C15.3490683,16.8348732 15.0463902,16.5323854 15.0463902,16.1590634 L15.0463902,14.1920049 C15.0463902,13.6185463 15.5130585,13.1520683 16.0862634,13.1520683 L18.4251854,13.1520683 C18.7985073,13.1520683 19.1009317,13.4548098 19.1009317,13.827878 C19.1009317,14.2008829 18.7985073,14.5036244 18.4251854,14.5036244 L16.3978829,14.5036244 L16.3978829,16.1593171 C16.3978829,16.5323854 16.0953951,16.8348732 15.7221366,16.8348732 Z" id="Fill-8"></path>
                <path d="M3.60372683,23.1450732 C3.23040488,23.1450732 2.92798049,22.8423951 2.92798049,22.4693268 L2.92798049,20.5020146 C2.92798049,19.9288098 3.39439512,19.4623317 3.9676,19.4623317 L6.30652195,19.4623317 C6.6798439,19.4623317 6.98226829,19.7648195 6.98226829,20.138078 C6.98226829,20.5111463 6.6798439,20.8138878 6.30652195,20.8138878 L4.27921951,20.8138878 L4.27921951,22.4693268 C4.27921951,22.8423951 3.97679512,23.1450732 3.60372683,23.1450732 Z" id="Fill-9"></path>
                <path d="M9.66280488,23.1450732 C9.28973659,23.1450732 8.98705854,22.8423951 8.98705854,22.4693268 L8.98705854,20.5020146 C8.98705854,19.9288098 9.45347317,19.4623317 10.0269317,19.4623317 L12.3658537,19.4623317 C12.7391756,19.4623317 13.0416,19.7648195 13.0416,20.138078 C13.0416,20.5111463 12.7391756,20.8138878 12.3658537,20.8138878 L10.3385512,20.8138878 L10.3385512,22.4693268 C10.3385512,22.8423951 10.0361268,23.1450732 9.66280488,23.1450732 Z" id="Fill-10"></path>
                <path d="M15.7221366,23.1450732 C15.3490683,23.1450732 15.0463902,22.8423951 15.0463902,22.4693268 L15.0463902,20.5020146 C15.0463902,19.9288098 15.5130585,19.4623317 16.0862634,19.4623317 L18.4251854,19.4623317 C18.7985073,19.4623317 19.1009317,19.7648195 19.1009317,20.138078 C19.1009317,20.5111463 18.7985073,20.8138878 18.4251854,20.8138878 L16.3978829,20.8138878 L16.3978829,22.4693268 C16.3978829,22.8423951 16.0953951,23.1450732 15.7221366,23.1450732 Z" id="Fill-11"></path>
                <path d="M10.9692732,6.28451707 C10.5959512,6.28451707 10.2934634,5.98177561 10.2934634,5.60870732 L10.2934634,3.97332195 C10.2934634,3.60025366 10.5959512,3.2975122 10.9692732,3.2975122 C11.342278,3.2975122 11.6450195,3.60025366 11.6450195,3.97332195 L11.6450195,5.60870732 C11.6450195,5.98177561 11.342278,6.28451707 10.9692732,6.28451707 Z" id="Fill-12"></path>
                <path d="M10.9692732,4.45982439 C9.7396,4.45982439 8.73910732,3.45958537 8.73910732,2.2299122 C8.73910732,1.00023902 9.7396,0 10.9692732,0 C12.1986293,0 13.1991854,1.00023902 13.1991854,2.2299122 C13.1991854,3.45958537 12.1988829,4.45982439 10.9692732,4.45982439 Z M10.9692732,1.35149268 C10.484722,1.35149268 10.0906,1.74561463 10.0906,2.2299122 C10.0906,2.71446341 10.484722,3.10858537 10.9692732,3.10858537 C11.4535073,3.10858537 11.8476293,2.71446341 11.8476293,2.2299122 C11.8476293,1.74561463 11.4535073,1.35149268 10.9692732,1.35149268 Z" id="Fill-14"></path>
            </g>
        </g>
    </g>
</svg>