<?xml version="1.0" encoding="UTF-8"?>
<svg width="21px" preserveAspectRatio="none" height="21px" viewBox="0 0 21 21" version="1.1" xmlns="http://www.w3.org/2000/svg" xmlns:xlink="http://www.w3.org/1999/xlink">
    <!-- Generator: Sketch 51.1 (57501) - http://www.bohemiancoding.com/sketch -->
    <title>Group 2</title>
    <desc>Created with Sketch.</desc>
    <defs></defs>
    <g id="Symbols" stroke="none" stroke-width="1" fill="none" fill-rule="evenodd">
        <g id="edit-profile-icon" transform="translate(-4.000000, -1.000000)" fill="#FFFFFF">
            <g id="Group-2">
                <g id="Group" transform="translate(13.183455, 13.000000) rotate(-135.000000) translate(-13.183455, -13.000000) translate(6.933333, 1.733333)">
                    <path d="M11.8534654,10.7362835 C11.6329019,10.7362835 11.4191367,10.6191212 11.305867,10.4118255 L6.3344983,1.32617713 C6.31371938,1.28851192 6.28137226,1.2692133 6.23833414,1.2692133 C6.19529603,1.2692133 6.16294891,1.28851192 6.14216999,1.32617713 L1.1708013,10.4118255 C1.00550203,10.7140243 0.626656934,10.8249366 0.32445807,10.6595825 C0.0222592052,10.4942832 -0.0886530414,10.1154381 0.0766462287,9.81323925 L5.04801492,0.727371614 C5.28617745,0.2922206 5.74232668,0.0219302514 6.23833414,0.0219302514 C6.73434161,0.0219302514 7.19049084,0.2922206 7.42865337,0.727371614 L12.4000221,9.81323925 C12.5653762,10.1154381 12.4544091,10.4942832 12.1522102,10.6595825 C12.0573619,10.7116668 11.9545638,10.7362835 11.8534654,10.7362835 Z" id="Fill-1"></path>
                    <path d="M0.623860827,22.0273476 C0.279501054,22.0273476 0.000219302514,21.7480659 0.000219302514,21.4037061 L0.000219302514,10.3118235 C0.000219302514,10.1008545 0.10685515,9.90403049 0.283777453,9.78900633 C0.460644931,9.67381768 0.683840065,9.65627348 0.876552149,9.74169181 C1.51713479,10.0256886 2.2855708,10.1758011 3.098909,10.1758011 C3.4435429,10.1758011 3.72276983,10.4550829 3.72276983,10.7994427 C3.72276983,11.1440217 3.4435429,11.4230842 3.098909,11.4230842 C2.45388548,11.4230842 1.82722855,11.3429839 1.24750235,11.188595 L1.24750235,21.4037061 C1.24750235,21.7480659 0.9682206,22.0273476 0.623860827,22.0273476 Z" id="Fill-3"></path>
                    <path d="M10.827623,22.4786174 L7.26351857,22.4786174 C6.3544,22.4786174 5.61469262,21.7388552 5.61469262,20.8295173 L5.61469262,9.94301152 C5.61469262,9.71126358 5.74320389,9.4986498 5.94836139,9.39091744 C6.1537382,9.28318508 6.40176934,9.29815247 6.59256253,9.42967916 C7.28002109,9.90381119 8.29517242,10.1758011 9.37775929,10.1758011 C10.1911523,10.1758011 10.9597528,10.0256886 11.6001161,9.74169181 C11.7931024,9.65605418 12.0160234,9.67403698 12.1929457,9.78900633 C12.3698131,9.90403049 12.476449,10.1006352 12.476449,10.3118235 L12.476449,20.8295173 C12.4766683,21.7388552 11.7369609,22.4786174 10.827623,22.4786174 Z M6.86197567,10.9690732 L6.86197567,20.8295173 C6.86197567,21.050958 7.04207786,21.231115 7.26351857,21.231115 L10.827623,21.231115 C11.0490637,21.231115 11.2291659,21.050958 11.2291659,20.8295173 L11.2291659,11.188595 C10.6494397,11.3432032 10.0227828,11.4230842 9.37775929,11.4230842 C8.47998962,11.4233035 7.60815247,11.2624451 6.86197567,10.9690732 Z" id="Fill-5"></path>
                    <path d="M8.79052198,5.13913512 L3.68636561,5.13913512 C3.46602141,5.13913512 3.2621249,5.02306926 3.14967753,4.83353706 C3.03744947,4.64400487 3.03339238,4.40924152 3.13920584,4.21609084 L5.04801492,0.727371614 C5.28617745,0.2922206 5.74232668,0.0219302514 6.23833414,0.0219302514 C6.73434161,0.0219302514 7.19049084,0.2922206 7.42865337,0.727371614 L9.33746245,4.21609084 C9.44327591,4.40946083 9.43921882,4.64400487 9.32699075,4.83353706 C9.21454339,5.02306926 9.0107017,5.13913512 8.79052198,5.13913512 Z M4.73857908,3.89185207 L7.73836334,3.89185207 L6.3344983,1.32617713 C6.31393869,1.28851192 6.28159157,1.2692133 6.23833414,1.2692133 C6.19529603,1.2692133 6.16294891,1.28851192 6.14238929,1.32617713 L4.73857908,3.89185207 Z" id="Fill-7"></path>
                </g>
            </g>
        </g>
    </g>
</svg>