<?xml version="1.0" encoding="UTF-8"?>
<svg width="112px" preserveAspectRatio="none" height="150px" viewBox="0 0 112 150" version="1.1" xmlns="http://www.w3.org/2000/svg" xmlns:xlink="http://www.w3.org/1999/xlink">
    <!-- Generator: Sketch 51.1 (57501) - http://www.bohemiancoding.com/sketch -->
    <title>filter icon</title>
    <desc>Created with Sketch.</desc>
    <defs></defs>
    <g id="patient-home" stroke="none" stroke-width="1" fill="none" fill-rule="evenodd" opacity="0.0622209821">
        <g id="patient-home---adherence---filters-view" transform="translate(-263.000000, -143.000000)">
            <g id="filter-icon" transform="translate(257.000000, 143.000000)">
                <circle id="Oval-6" fill="#00BCD4" cx="112.5" cy="25" r="12.5"></circle>
                <circle id="Oval-6" fill="#00BCD4" cx="43.75" cy="12.5" r="12.5"></circle>
                <path d="M93.75,37.5 C93.75,30.5964406 88.1535594,25 81.25,25 C74.3464406,25 68.75,30.5964406 68.75,37.5 C68.75,44.4035594 93.75,44.4035594 93.75,37.5 Z" id="Oval-6-Copy" fill="#00BCD4"></path>
                <g id="Group" stroke-width="1" transform="translate(6.250000, 0.000000)" fill="#0A090B">
                    <path d="M33.6178711,89.86875 C32.8473633,89.86875 32.0915039,89.5552734 31.546582,89.0100586 C31.0016602,88.4654297 30.6881836,87.7095703 30.6881836,86.9390625 C30.6881836,86.1685547 31.0016602,85.4126953 31.546582,84.8677734 C32.0915039,84.3228516 32.8473633,84.009375 33.6178711,84.009375 C34.3883789,84.009375 35.1442383,84.3225586 35.6891602,84.8677734 C36.234082,85.4129883 36.5475586,86.1685547 36.5475586,86.9390625 C36.5475586,87.7125 36.234082,88.4654297 35.6891602,89.0100586 C35.1442383,89.5552734 34.3883789,89.86875 33.6178711,89.86875" id="Fill-1"></path>
                    <g id="Group-5">
                        <path d="M36.627832,5.859375 C34.2802734,5.859375 32.0730469,6.77373047 30.4130859,8.43369141 C28.752832,10.0936523 27.8387695,12.3005859 27.8387695,14.6484375 C27.8387695,19.4941406 31.781543,23.4366211 36.627832,23.4369141 C41.4741211,23.4366211 45.4168945,19.4941406 45.4168945,14.6484375 C45.4171875,9.80214844 41.4744141,5.859375 36.627832,5.859375 Z M36.628125,29.2962891 C28.5506836,29.2959961 21.9793945,22.724707 21.9796875,14.6484375 C21.9796875,10.7358398 23.503418,7.05732422 26.2699219,4.29052734 C29.0367188,1.52373047 32.7152344,0 36.627832,0 C44.7049805,0 51.2762695,6.57128906 51.2762695,14.6484375 C51.2765625,22.724707 44.7055664,29.2959961 36.628125,29.2962891 Z" id="Fill-2"></path>
                        <path d="M65.6449219,32.9730469 C67.6371094,30.9808594 70.2855469,29.8836914 73.1030273,29.8836914 C77.9021484,29.8836914 81.9600586,33.1066406 83.2333008,37.5008789 L62.9689453,37.5008789 C63.4555664,35.8069336 64.3640625,34.2536133 65.6449219,32.9730469 Z M99.4672852,34.4115234 C97.4750977,32.4193359 96.3782227,29.7708984 96.3782227,26.9540039 C96.3782227,24.1368164 97.4750977,21.4883789 99.4672852,19.4964844 C101.459473,17.5042969 104.10791,16.4074219 106.925391,16.4074219 C112.741113,16.4074219 117.472559,21.1382812 117.472559,26.9540039 C117.472559,32.7694336 112.741113,37.5005859 106.925684,37.5008789 C104.108203,37.5008789 101.459473,36.4037109 99.4672852,34.4115234 Z M140.623828,37.5008789 L119.479395,37.5008789 C121.881152,34.6467773 123.331934,30.9673828 123.331934,26.9540039 C123.331934,17.9077148 115.971973,10.5480469 106.925391,10.5480469 C102.543164,10.5480469 98.4231445,12.2545898 95.3241211,15.3533203 C92.2253906,18.4517578 90.5191406,22.5717773 90.5191406,26.9540039 C90.5191406,30.8569336 91.8758789,34.5500977 94.3611328,37.5008789 L89.2420898,37.5008789 C87.8560547,29.8479492 81.1488281,24.0243164 73.1027344,24.0243164 C68.7205078,24.0243164 64.6004883,25.7308594 61.5014648,28.8295898 C59.1052734,31.2257812 57.5458008,34.2339844 56.9601563,37.5008789 L2.9296875,37.5008789 C1.31162109,37.5008789 0,38.812793 0,40.4305664 L0,56.2505859 C0,57.0275391 0.308789063,57.7725586 0.858105469,58.322168 L23.9291016,81.393457 C25.0731445,82.537207 26.9282227,82.537207 28.0725586,81.393457 C29.2166016,80.2494141 29.2166016,78.3943359 28.0725586,77.25 L10.002832,59.1799805 L111.034277,59.1799805 C112.652344,59.1799805 113.963965,57.8680664 113.963965,56.250293 C113.963965,54.6328125 112.652344,53.3208984 111.034277,53.3208984 L5.859375,53.3208984 L5.859375,43.3599609 L137.694141,43.3599609 L137.694141,55.0368164 L83.7676758,108.963867 C83.2183594,109.513477 82.9095703,110.258496 82.9095703,111.035449 L82.9095703,135.038965 L60.6439453,142.924805 L60.6439453,111.035449 C60.6439453,110.258496 60.3351563,109.513477 59.7858398,108.963867 L43.0869141,92.2649414 C41.9428711,91.1211914 40.087793,91.1211914 38.943457,92.2649414 C37.7994141,93.4086914 37.7994141,95.2637695 38.943457,96.4081055 L54.7845703,112.249219 L54.7845703,147.070312 C54.7845703,148.021582 55.246582,148.913672 56.0235352,149.462695 C56.5245117,149.817187 57.1163086,150 57.7142578,150 C58.0429688,150 58.3737305,149.944629 58.6918945,149.831836 L86.8168945,139.870898 C87.9867188,139.456641 88.7686523,138.350391 88.7686523,137.109375 L88.7686523,112.249219 L142.695117,58.3224609 C143.244434,57.7728516 143.553223,57.027832 143.553223,56.2508789 L143.553223,40.4308594 C143.553516,38.8125 142.241895,37.5008789 140.623828,37.5008789 Z" id="Fill-4"></path>
                    </g>
                    <path d="M121.874121,59.1802734 C121.103613,59.1802734 120.347754,58.8667969 119.802832,58.321582 C119.25791,57.7769531 118.944434,57.0210938 118.944434,56.2505859 C118.944434,55.4800781 119.25791,54.7245117 119.802832,54.1795898 C120.347754,53.634668 121.103613,53.3211914 121.874121,53.3211914 C122.644629,53.3211914 123.400488,53.634375 123.94541,54.1795898 C124.490332,54.7248047 124.803809,55.4800781 124.803809,56.2505859 C124.803809,57.0210938 124.490332,57.7769531 123.94541,58.321582 C123.400488,58.8667969 122.644629,59.1802734 121.874121,59.1802734" id="Fill-6"></path>
                </g>
            </g>
        </g>
    </g>
</svg>