<?xml version="1.0" encoding="UTF-8"?>
<svg preserveAspectRatio="none" width="26px" height="26px" viewBox="0 0 26 26" version="1.1" xmlns="http://www.w3.org/2000/svg" xmlns:xlink="http://www.w3.org/1999/xlink">
    <!-- Generator: Sketch 51.1 (57501) - http://www.bohemiancoding.com/sketch -->
    <title>appointment to do list icon copy 2</title>
    <desc>Created with Sketch.</desc>
    <defs></defs>
    <g id="Dashboard" stroke="none" stroke-width="1" fill="none" fill-rule="evenodd">
        <g id="dashboard" transform="translate(-20.000000, -417.000000)">
            <g id="to-do-list" transform="translate(20.000000, 275.000000)">
                <g id="to-do-list-content" transform="translate(0.000000, 40.000000)">
                    <g id="follow-up-cell" transform="translate(0.000000, 100.000000)">
                        <g id="follow-up-icon" transform="translate(0.000000, 2.000000)">
                            <rect id="Rectangle-2" fill="#41CBC7" x="11" y="10" width="3" height="3"></rect>
                            <rect id="Rectangle" fill="#41CBC7" x="18" y="10" width="3" height="3"></rect>
                            <rect id="Rectangle-3" fill="#41CBC7" x="11" y="16" width="3" height="4"></rect>
                            <g id="Group-2" stroke-width="1" fill="#000000">
                                <path d="M1.49428906,5.16232031 L23.68275,5.16232031 L23.68275,3.32505469 C23.68275,3.14097266 23.5330469,2.99121875 23.3489648,2.99121875 L1.828125,2.99121875 C1.64404297,2.99121875 1.49428906,3.14097266 1.49428906,3.32505469 L1.49428906,5.16232031 Z M24.4299453,6.65660938 L0.747144531,6.65660938 C0.334496094,6.65660938 0,6.3220625 0,5.90946484 L0,3.32505469 C0,2.31709766 0.820167969,1.49692969 1.828125,1.49692969 L23.3488633,1.49692969 C24.3569219,1.49692969 25.1769883,2.31709766 25.1769883,3.32505469 L25.1769883,5.90956641 C25.1770898,6.32211328 24.8425937,6.65660938 24.4299453,6.65660938 Z" id="Fill-3"></path>
                                <path d="M7.32458594,13.9682969 L3.80503906,13.9682969 C3.39239063,13.9682969 3.05789453,13.6336992 3.05789453,13.2211016 L3.05789453,10.0846484 C3.05789453,9.67205078 3.39239063,9.33750391 3.80503906,9.33750391 L7.32458594,9.33750391 C7.73723438,9.33750391 8.07173047,9.67205078 8.07173047,10.0846484 C8.07173047,10.4971953 7.73723438,10.831793 7.32458594,10.831793 L4.55218359,10.831793 L4.55218359,12.473957 L7.32458594,12.473957 C7.73723438,12.473957 8.07173047,12.8085547 8.07173047,13.2211016 C8.07173047,13.6336992 7.73723438,13.9682969 7.32458594,13.9682969" id="Fill-5"></path>
                                <path d="M11.5759414,12.473957 L13.6011992,12.473957 L13.6011992,10.831793 L11.5759414,10.831793 L11.5759414,12.473957 Z M14.3483438,13.9682969 L10.8287969,13.9682969 C10.4161484,13.9682969 10.0816523,13.6336992 10.0816523,13.2211016 L10.0816523,10.0846484 C10.0816523,9.67205078 10.4161484,9.33750391 10.8287969,9.33750391 L14.3483438,9.33750391 C14.7609922,9.33750391 15.0954883,9.67205078 15.0954883,10.0846484 L15.0954883,13.2211016 C15.0954883,13.6336992 14.7609922,13.9682969 14.3483438,13.9682969 Z" id="Fill-7"></path>
                                <path d="M7.32458594,20.2471445 L3.80503906,20.2471445 C3.39239063,20.2471445 3.05789453,19.9125469 3.05789453,19.5 L3.05789453,16.3634961 C3.05789453,15.9509492 3.39239063,15.6163516 3.80503906,15.6163516 L7.32458594,15.6163516 C7.73723438,15.6163516 8.07173047,15.9509492 8.07173047,16.3634961 C8.07173047,16.7760938 7.73723438,17.1106406 7.32458594,17.1106406 L4.55218359,17.1106406 L4.55218359,18.7528047 L7.32458594,18.7528047 C7.73723438,18.7528047 8.07173047,19.0874023 8.07173047,19.5 C8.07173047,19.9125469 7.73723438,20.2471445 7.32458594,20.2471445" id="Fill-8"></path>
                                <path d="M11.5759414,18.7528047 L13.6011992,18.7528047 L13.6011992,17.1106406 L11.5759414,17.1106406 L11.5759414,18.7528047 Z M14.3483438,20.2471445 L10.8287969,20.2471445 C10.4161484,20.2471445 10.0816523,19.9125469 10.0816523,19.5 L10.0816523,16.3634961 C10.0816523,15.9509492 10.4161484,15.6163516 10.8287969,15.6163516 L14.3483438,15.6163516 C14.7609922,15.6163516 15.0954883,15.9509492 15.0954883,16.3634961 L15.0954883,19.5 C15.0954883,19.9125469 14.7609922,20.2471445 14.3483438,20.2471445 Z" id="Fill-10"></path>
                                <path d="M18.5995977,12.473957 L20.6248047,12.473957 L20.6248047,10.831793 L18.5995977,10.831793 L18.5995977,12.473957 Z M21.372,13.9682969 L17.8524531,13.9682969 C17.4398047,13.9682969 17.1052578,13.6336992 17.1052578,13.2211016 L17.1052578,10.0846484 C17.1052578,9.67205078 17.4398047,9.33750391 17.8524531,9.33750391 L21.372,9.33750391 C21.7846484,9.33750391 22.1191445,9.67205078 22.1191445,10.0846484 L22.1191445,13.2211016 C22.1191445,13.6336992 21.7846484,13.9682969 21.372,13.9682969 Z" id="Fill-12"></path>
                                <path d="M5.05435937,4.34337109 C4.64171094,4.34337109 4.30721484,4.00877344 4.30721484,3.59622656 L4.30721484,0.747144531 C4.30721484,0.334597656 4.64171094,0 5.05435937,0 C5.46700781,0 5.80150391,0.334597656 5.80150391,0.747144531 L5.80150391,3.59627734 C5.80150391,4.008875 5.46700781,4.34337109 5.05435937,4.34337109" id="Fill-13"></path>
                                <path d="M12.5885195,4.34337109 C12.1758711,4.34337109 11.841375,4.00877344 11.841375,3.59622656 L11.841375,0.747144531 C11.841375,0.334597656 12.1758711,0 12.5885195,0 C13.001168,0 13.3356641,0.334597656 13.3356641,0.747144531 L13.3356641,3.59627734 C13.3356641,4.008875 13.001168,4.34337109 12.5885195,4.34337109" id="Fill-14"></path>
                                <path d="M20.1227305,4.34337109 C19.710082,4.34337109 19.3755859,4.00877344 19.3755859,3.59622656 L19.3755859,0.747144531 C19.3755859,0.334597656 19.710082,0 20.1227305,0 C20.5353789,0 20.869875,0.334597656 20.869875,0.747144531 L20.869875,3.59627734 C20.869875,4.008875 20.5353789,4.34337109 20.1227305,4.34337109" id="Fill-15"></path>
                                <path d="M19.7985938,25.2538203 C16.3791367,25.2538203 13.5972383,22.4719219 13.5972383,19.0524141 C13.5972383,15.632957 16.3791367,12.8510586 19.7985938,12.8510586 C21.664957,12.8510586 23.4142695,13.6798594 24.5980313,15.1249922 C24.8595547,15.4442031 24.8127852,15.9149961 24.4935234,16.1764688 C24.1743125,16.4379414 23.7035703,16.3912227 23.4420469,16.0719609 C22.5432188,14.9746797 21.2152383,14.3454492 19.7985938,14.3454492 C17.2031641,14.3454492 15.0915273,16.4570352 15.0915273,19.0525156 C15.0915273,21.6479961 17.2031641,23.759582 19.7985938,23.759582 C22.3940742,23.759582 24.5057109,21.6479961 24.5057109,19.0525156 C24.5057109,18.639918 24.840207,18.3053711 25.2528555,18.3053711 C25.6655039,18.3053711 26,18.639918 26,19.0525156 C26,22.4718711 23.2181016,25.2538203 19.7985938,25.2538203" id="Fill-17"></path>
                                <path d="M11.6022461,24.5404961 L1.828125,24.5404961 C0.820167969,24.5404961 0,23.7203789 0,22.7123711 L0,3.32505469 C0,2.31709766 0.820167969,1.49692969 1.828125,1.49692969 L23.3488633,1.49692969 C24.3569219,1.49692969 25.1769883,2.31709766 25.1769883,3.32505469 L25.1769883,11.6887773 C25.1769883,12.101375 24.8424922,12.4359219 24.4298437,12.4359219 C24.0171953,12.4359219 23.6826992,12.101375 23.6826992,11.6887773 L23.6826992,3.32505469 C23.6826992,3.14097266 23.5329453,2.99121875 23.3488633,2.99121875 L1.828125,2.99121875 C1.64404297,2.99121875 1.49428906,3.14097266 1.49428906,3.32505469 L1.49428906,22.7123711 C1.49428906,22.8964531 1.64404297,23.046207 1.828125,23.046207 L11.6021953,23.046207 C12.0148438,23.046207 12.3493398,23.3807539 12.3493398,23.7933516 C12.3493398,24.2059492 12.0148945,24.5404961 11.6022461,24.5404961" id="Fill-18"></path>
                                <polyline id="Fill-20" points="21.8159297 19.0524141 19.7985938 19.0524141 19.7985938 17.0351289"></polyline>
                                <path d="M21.8159297,19.7996094 L19.7985937,19.7996094 C19.3859453,19.7996094 19.0514492,19.4650117 19.0514492,19.0524141 L19.0514492,17.0351289 C19.0514492,16.6225312 19.3859453,16.2879844 19.7985937,16.2879844 C20.211293,16.2879844 20.5457891,16.6225312 20.5457891,17.0351289 L20.5457891,18.3052695 L21.8159297,18.3052695 C22.2285781,18.3052695 22.5630742,18.6398672 22.5630742,19.0524141 C22.5630742,19.4650117 22.2285781,19.7996094 21.8159297,19.7996094" id="Fill-21"></path>
                            </g>
                        </g>
                    </g>
                </g>
            </g>
        </g>
    </g>
</svg>