<?xml version="1.0" encoding="UTF-8"?>
<svg  preserveAspectRatio="none" width="27px" height="24px" viewBox="0 0 27 24" version="1.1" xmlns="http://www.w3.org/2000/svg" xmlns:xlink="http://www.w3.org/1999/xlink">
    <!-- Generator: Sketch 51.1 (57501) - http://www.bohemiancoding.com/sketch -->
    <title>Group</title>
    <desc>Created with Sketch.</desc>
    <defs></defs>
    <g id="Symbols" stroke="none" stroke-width="1" fill="none" fill-rule="evenodd">
        <g id="my-network-icon" transform="translate(1.000000, 0.000000)" fill="#FFFFFF">
            <g id="Group" transform="translate(-1.000000, 0.000000)">
                <path d="M17.8258824,12.8896807 L9.71011765,12.8896807 C9.29909244,12.8896807 8.96557983,12.5561681 8.96557983,12.1449412 L8.96557983,10.9640336 C8.96557983,8.31616807 11.12,6.16147899 13.7681345,6.16147899 C16.416,6.16147899 18.5703529,8.31616807 18.5703529,10.9640336 L18.5703529,12.1449412 C18.5703529,12.5561681 18.2371092,12.8896807 17.8258824,12.8896807 Z M10.4548571,11.4004706 L17.0814118,11.4004706 L17.0814118,10.9643025 C17.0814118,9.13707563 15.5950924,7.6507563 13.7681345,7.6507563 C11.9411765,7.6507563 10.4548571,9.13707563 10.4548571,10.9643025 L10.4548571,11.4004706 Z" id="Fill-2"></path>
                <path d="M13.7681345,7.61741176 C11.6680336,7.61741176 9.95932773,5.90890756 9.95932773,3.80880672 C9.95932773,1.7085042 11.6680336,0 13.7681345,0 C15.8681681,0 17.5766723,1.7085042 17.5766723,3.80880672 C17.5769412,5.90890756 15.8681681,7.61741176 13.7681345,7.61741176 Z M13.7681345,1.48921008 C12.4889412,1.48921008 11.4485378,2.52968067 11.4485378,3.80853782 C11.4485378,5.08773109 12.4889412,6.12813445 13.7681345,6.12813445 C15.0469916,6.12813445 16.0877311,5.08773109 16.0877311,3.80853782 C16.0877311,2.52968067 15.0469916,1.48921008 13.7681345,1.48921008 Z" id="Fill-4"></path>
                <path d="M25.7914622,23.944605 L18.9503866,23.944605 C18.5391597,23.944605 18.2056471,23.6110924 18.2056471,23.2001345 L18.2056471,22.2045714 C18.2056471,19.9078319 20.0742857,18.039395 22.3708235,18.039395 C22.7820504,18.039395 23.115563,18.3729076 23.115563,18.7838655 C23.115563,19.1950924 22.7820504,19.528605 22.3708235,19.528605 C20.8954622,19.528605 19.6948571,20.7290084 19.6948571,22.2045714 L19.6948571,22.4553277 L25.0469916,22.4553277 L25.0469916,22.2045714 C25.0469916,21.986084 25.0205042,21.7689412 24.9687395,21.5590588 C24.8699832,21.1599328 25.113479,20.7563025 25.5128739,20.6575462 C25.9117311,20.5585882 26.3156303,20.8022857 26.4143866,21.2016807 C26.4949916,21.5283361 26.536,21.8658151 26.536,22.2045714 L26.536,23.2001345 C26.5362689,23.6113613 26.2027563,23.944605 25.7914622,23.944605 Z" id="Fill-5"></path>
                <path d="M22.3697479,19.528605 C20.5349244,19.528605 19.0422857,18.0356975 19.0422857,16.2011429 C19.0422857,14.3663193 20.5349244,12.8736807 22.3697479,12.8736807 C24.2043025,12.8736807 25.6972101,14.3663193 25.6972101,16.2011429 C25.6972101,18.0359664 24.2045714,19.528605 22.3697479,19.528605 Z M22.3697479,14.3626891 C21.3561008,14.3626891 20.5314958,15.1872269 20.5314958,16.2008739 C20.5314958,17.214521 21.3561008,18.039395 22.3697479,18.039395 C23.383395,18.039395 24.208,17.214521 24.208,16.2008739 C24.208,15.1872269 23.383395,14.3626891 22.3697479,14.3626891 Z" id="Fill-6"></path>
                <path d="M7.58588235,23.944605 L0.744470588,23.944605 C0.333512605,23.944605 0,23.6113613 0,23.2001345 L0,22.2045714 C0,19.9078319 1.86843697,18.039395 4.16517647,18.039395 C4.57640336,18.039395 4.90964706,18.3729076 4.90964706,18.7841345 C4.90964706,19.1950924 4.57640336,19.528605 4.16517647,19.528605 C2.68961345,19.528605 1.48921008,20.7290084 1.48921008,22.2045714 L1.48921008,22.4553277 L6.84141176,22.4553277 L6.84141176,22.2045714 C6.84141176,21.986084 6.81485714,21.7689412 6.76315966,21.5590588 C6.66440336,21.1599328 6.90783193,20.7563025 7.30722689,20.6575462 C7.70615126,20.5585882 8.11005042,20.8025546 8.2087395,21.2016807 C8.28941176,21.5283361 8.33035294,21.8658151 8.33035294,22.2048403 L8.33035294,23.2001345 C8.33035294,23.6113613 7.99710924,23.944605 7.58588235,23.944605 Z" id="Fill-8"></path>
                <path d="M4.16410084,19.528605 C2.32927731,19.528605 0.836638655,18.0356975 0.836638655,16.2011429 C0.836638655,14.3663193 2.32927731,12.8736807 4.16410084,12.8736807 C5.99865546,12.8736807 7.49163025,14.3663193 7.49163025,16.2011429 C7.49163025,18.0359664 5.99865546,19.528605 4.16410084,19.528605 Z M4.16410084,14.3626891 C3.15045378,14.3626891 2.32564706,15.1872269 2.32564706,16.2008739 C2.32564706,17.214521 3.15045378,18.039395 4.16410084,18.039395 C5.17781513,18.039395 6.00235294,17.214521 6.00235294,16.2008739 C6.00235294,15.1872269 5.17781513,14.3626891 4.16410084,14.3626891 Z" id="Fill-10"></path>
                <path d="M13.7681345,19.2095462 C13.3569076,19.2095462 13.023395,18.8760336 13.023395,18.4648067 L13.023395,15.672 C13.023395,15.261042 13.3569076,14.9275294 13.7681345,14.9275294 C14.1790924,14.9275294 14.512605,15.261042 14.512605,15.672 L14.512605,18.4648067 C14.512605,18.8760336 14.1793613,19.2095462 13.7681345,19.2095462 Z" id="Fill-11"></path>
                <path d="M16.7928067,19.2095462 L10.7434622,19.2095462 C10.3321681,19.2095462 9.99892437,18.8760336 9.99892437,18.4648067 C9.99892437,18.0538487 10.3321681,17.7203361 10.7434622,17.7203361 L16.7928067,17.7203361 C17.2040336,17.7203361 17.5372773,18.0538487 17.5372773,18.4648067 C17.5372773,18.8760336 17.2040336,19.2095462 16.7928067,19.2095462 Z" id="Fill-12"></path>
            </g>
        </g>
    </g>
</svg>