<?xml version="1.0" encoding="UTF-8"?>
<svg  preserveAspectRatio="none" width="23px" height="24px" viewBox="0 0 23 24" version="1.1" xmlns="http://www.w3.org/2000/svg" xmlns:xlink="http://www.w3.org/1999/xlink">
    <!-- Generator: Sketch 51.1 (57501) - http://www.bohemiancoding.com/sketch -->
    <title>Group</title>
    <desc>Created with Sketch.</desc>
    <defs></defs>
    <g id="Symbols" stroke="none" stroke-width="1" fill="none" fill-rule="evenodd">
        <g id="home-icon" transform="translate(-1.000000, 0.000000)" fill="#FFFFFF">
            <g id="Group" transform="translate(1.000000, 0.000000)">
                <path d="M14.4356287,24.0000117 L2.89945682,24.0000117 C2.52614432,24.0000117 2.22337869,23.6973398 2.22337869,23.3239336 L2.22337869,10.6485117 C2.22337869,10.4441836 2.31581619,10.2507773 2.47481619,10.1224336 L10.8204412,3.38579297 C11.0683162,3.18582422 11.4218943,3.18582422 11.6697693,3.38579297 L20.0153943,10.1224336 C20.1744412,10.2507773 20.2668318,10.4441836 20.2668318,10.6485117 L20.2668318,23.2884023 C20.2668318,23.6617617 19.9641131,23.9644336 19.5908006,23.9644336 C19.2174412,23.9644336 18.9147224,23.6617617 18.9147224,23.2884023 L18.9147224,10.9715742 L11.2451756,4.78065234 L3.57553494,10.9715742 L3.57553494,22.6479023 L14.4356287,22.6479023 C14.8089412,22.6479023 15.1116599,22.9505742 15.1116599,23.3239336 C15.1116599,23.6973398 14.8089881,24.0000117 14.4356287,24.0000117" id="Fill-1"></path>
                <path d="M11.2451756,8.39837109 C10.5079256,8.39837109 9.90811307,8.99818359 9.90811307,9.73548047 C9.90811307,10.4727773 10.5079256,11.0725898 11.2451756,11.0725898 C11.9823787,11.0725898 12.5821912,10.4727773 12.5821912,9.73548047 C12.5821912,8.99818359 11.9823787,8.39837109 11.2451756,8.39837109 Z M11.2451756,12.4246992 C9.76228494,12.4246992 8.55600369,11.2183711 8.55600369,9.73548047 C8.55600369,8.25258984 9.76233182,7.04626172 11.2451756,7.04626172 C12.7279724,7.04626172 13.9343006,8.25258984 13.9343006,9.73548047 C13.9343006,11.2183711 12.7279724,12.4246992 11.2451756,12.4246992 Z" id="Fill-6"></path>
                <path d="M8.73065994,22.6479023 L13.7595506,22.6479023 L13.7595506,15.9412617 L8.73065994,15.9412617 L8.73065994,22.6479023 Z M14.4356287,24.0000117 L8.05462869,24.0000117 C7.68131619,24.0000117 7.37855057,23.6973398 7.37855057,23.3239336 L7.37855057,15.2651836 C7.37855057,14.8917773 7.68131619,14.5891055 8.05462869,14.5891055 L14.4356287,14.5891055 C14.8089412,14.5891055 15.1116599,14.8917773 15.1116599,15.2651836 L15.1116599,23.3239336 C15.1116599,23.6973398 14.8089881,24.0000117 14.4356287,24.0000117 Z" id="Fill-8"></path>
                <path d="M21.8138006,9.83635547 C21.6652537,9.83635547 21.5157693,9.78765234 21.3909881,9.68748047 L11.2451756,1.54299609 L1.09931619,9.68743359 C0.808222445,9.92105859 0.38264432,9.87460547 0.14892557,9.58337109 C-0.0848869301,9.29218359 -0.0382931801,8.86669922 0.25289432,8.63298047 L10.8219412,0.148886719 C11.0691131,-0.0496289063 11.4211443,-0.0496289063 11.6683631,0.148886719 L22.2374099,8.63302734 C22.5285974,8.86679297 22.5751912,9.29227734 22.3413787,9.58341797 C22.2078787,9.74982422 22.0117537,9.83635547 21.8138006,9.83635547" id="Fill-3"></path>
                <path d="M19.7047537,7.75083984 C19.3314412,7.75083984 19.0287224,7.44816797 19.0287224,7.07476172 L19.0287224,3.43655859 L17.6916599,3.43655859 C17.3183474,3.43655859 17.0155818,3.13388672 17.0155818,2.76048047 C17.0155818,2.38712109 17.3183474,2.08444922 17.6916599,2.08444922 L19.7047537,2.08444922 C20.0780662,2.08444922 20.3808318,2.38712109 20.3808318,2.76048047 L20.3808318,7.07485547 C20.3808318,7.44816797 20.0780662,7.75083984 19.7047537,7.75083984" id="Fill-9"></path>
            </g>
        </g>
    </g>
</svg>