<?xml version="1.0" encoding="UTF-8"?>
<svg  preserveAspectRatio="none" width="18px" height="24px" viewBox="0 0 18 24" version="1.1" xmlns="http://www.w3.org/2000/svg" xmlns:xlink="http://www.w3.org/1999/xlink">
    <!-- Generator: Sketch 51.1 (57501) - http://www.bohemiancoding.com/sketch -->
    <title>Group</title>
    <desc>Created with Sketch.</desc>
    <defs></defs>
    <g id="Symbols" stroke="none" stroke-width="1" fill="none" fill-rule="evenodd">
        <g id="notifications-icon" transform="translate(-3.000000, 0.000000)" fill="#FFFFFF">
            <g id="Group" transform="translate(3.000000, 0.000000)">
                <g id="Group-6">
                    <path d="M1.61253801,19.1312281 L2.88977778,15.7741754 L15.141848,15.7741754 L16.4189942,19.1312281 L1.61253801,19.1312281 Z M9.01576608,22.6837895 C8.39962573,22.6837895 7.8982924,22.1824561 7.8982924,21.566269 C7.8982924,20.9500351 8.39962573,20.4487953 9.01576608,20.4487953 C9.63195322,20.4487953 10.1332865,20.9501287 10.1332865,21.566269 C10.1333333,22.1825029 9.632,22.6837895 9.01576608,22.6837895 Z M8.02928655,3.25333333 L8.02928655,2.34947368 C8.02928655,1.80547368 8.47185965,1.36290058 9.01576608,1.36290058 C9.55967251,1.36290058 10.0022456,1.80547368 10.0022456,2.34947368 L10.0022456,3.25333333 C9.99185965,3.25188304 9.98138012,3.25094737 9.97099415,3.24959064 C9.90465497,3.24084211 9.83812865,3.23274854 9.77127485,3.22582456 C9.76584795,3.22521637 9.76046784,3.22451462 9.75499415,3.224 C9.6820117,3.2165614 9.6085614,3.2105731 9.53492398,3.20528655 C9.51349708,3.20378947 9.49202339,3.20252632 9.47050292,3.20121637 C9.41525146,3.19780117 9.35976608,3.19494737 9.30414035,3.19279532 C9.28247953,3.19195322 9.26091228,3.19097076 9.23925146,3.19031579 C9.16495906,3.18807018 9.09052632,3.18652632 9.01562573,3.18652632 C8.94077193,3.18652632 8.86633918,3.18807018 8.79204678,3.19031579 C8.77038596,3.19097076 8.74877193,3.19195322 8.72720468,3.19279532 C8.67153216,3.19494737 8.61604678,3.19780117 8.56070175,3.20126316 C8.53932164,3.20261988 8.51784795,3.20383626 8.49646784,3.20538012 C8.42283041,3.21061988 8.34933333,3.21660819 8.27630409,3.22404678 C8.27106433,3.2245614 8.26587135,3.22530994 8.26063158,3.22582456 C8.19354386,3.23279532 8.12687719,3.24088889 8.06035088,3.24963743 C8.05015205,3.25094737 8.0397193,3.25188304 8.02928655,3.25333333 Z M17.973614,19.5157427 L16.2107135,14.8820117 C16.1134971,14.6266667 15.8688187,14.4579181 15.5956023,14.4579181 L3.09300585,14.4579181 L3.09300585,10.4254503 C3.09300585,7.57506433 5.11700585,5.18872515 7.80322807,4.62760234 C7.81581287,4.62507602 7.82830409,4.62236257 7.84088889,4.61983626 C7.87471345,4.61300585 7.90867836,4.60654971 7.94269006,4.60032749 C7.97436257,4.5945731 8.00608187,4.58905263 8.03780117,4.58385965 C8.05707602,4.58063158 8.07635088,4.57726316 8.0957193,4.57426901 C8.70311111,4.4802807 9.32851462,4.4802807 9.93590643,4.57426901 C9.95494737,4.57721637 9.97389474,4.5805848 9.99288889,4.5837193 C10.0250292,4.58900585 10.057076,4.5945731 10.0891228,4.60037427 C10.1229006,4.60654971 10.1565848,4.61300585 10.1901287,4.61978947 C10.2030409,4.62236257 10.2159532,4.62512281 10.2287719,4.62774269 C12.9147602,5.18905263 14.9385263,7.57525146 14.9385263,10.4254503 L14.9385263,12.3523275 C14.9385263,12.7157895 15.2332164,13.0104327 15.5965848,13.0104327 C15.96,13.0104327 16.2546901,12.7157895 16.2546901,12.3523275 L16.2546901,10.4254503 C16.2546901,7.23850292 14.1845146,4.52612865 11.3183626,3.56205848 L11.3183626,2.34947368 C11.3185029,1.0797193 10.2854737,0.0467368421 9.01576608,0.0467368421 C7.74610526,0.0467368421 6.71312281,1.0797193 6.71312281,2.34947368 L6.71312281,3.56205848 C3.84697076,4.52612865 1.77679532,7.23850292 1.77679532,10.4254503 L1.77679532,14.9980819 L0.042994152,19.5552749 C-0.0339181287,19.7575205 -0.0065497076,19.9847018 0.11625731,20.1628538 C0.239111111,20.3410058 0.441684211,20.4473918 0.65805848,20.4473918 L6.85567251,20.4473918 C6.68126316,20.7826901 6.58208187,21.1629942 6.58208187,21.5663626 C6.58208187,22.9082573 7.67382456,24 9.01576608,24 C10.3577544,24 11.4494503,22.9082573 11.4494503,21.5663626 C11.4494503,21.1630877 11.350269,20.7826901 11.1759064,20.4473918 L17.3734737,20.4473918 C17.3740351,20.4473918 17.3745497,20.4473918 17.3748304,20.4473918 C17.7382924,20.4473918 18.0328889,20.1527485 18.0328889,19.7892865 C18.0328889,19.6916491 18.0116959,19.5990643 17.973614,19.5157427 Z" id="Fill-5"></path>
                </g>
            </g>
        </g>
    </g>
</svg>