<?xml version="1.0" encoding="UTF-8"?>
<svg  preserveAspectRatio="none" width="19px" height="24px" viewBox="0 0 19 24" version="1.1" xmlns="http://www.w3.org/2000/svg" xmlns:xlink="http://www.w3.org/1999/xlink">
    <!-- Generator: Sketch 51.1 (57501) - http://www.bohemiancoding.com/sketch -->
    <title>Group</title>
    <desc>Created with Sketch.</desc>
    <defs></defs>
    <g id="Symbols" stroke="none" stroke-width="1" fill="none" fill-rule="evenodd">
        <g id="reports-icon" transform="translate(-3.000000, 0.000000)" fill="#FFFFFF">
            <g id="Group" transform="translate(3.000000, 0.000000)">
                <path d="M13.575922,20.7686049 L4.9667122,20.7686049 C3.99693659,20.7686049 3.20809756,19.9794732 3.20809756,19.0099902 L3.20809756,5.04649756 C3.20809756,4.69205854 3.49527805,4.40487805 3.84971707,4.40487805 L14.6929171,4.40487805 C15.0473561,4.40487805 15.3345366,4.69205854 15.3345366,5.04649756 L15.3345366,12.9843512 C15.3345366,13.3385561 15.0473561,13.6259707 14.6929171,13.6259707 C14.3387122,13.6259707 14.0512976,13.3385561 14.0512976,12.9843512 L14.0512976,5.68811707 L4.49133659,5.68811707 L4.49133659,19.0099902 C4.49133659,19.272 4.70440976,19.4851317 4.9667122,19.4851317 L13.575922,19.4851317 C13.8381659,19.4851317 14.0512976,19.272 14.0512976,19.0099902 L14.0512976,15.5830829 C14.0512976,15.228878 14.3387122,14.9416976 14.6929171,14.9416976 C15.0473561,14.9416976 15.3345366,15.228878 15.3345366,15.5830829 L15.3345366,19.0099902 C15.3345366,19.9797073 14.545639,20.7686049 13.575922,20.7686049 Z" id="Fill-1"></path>
                <path d="M15.6004683,23.9767024 L2.9424,23.9767024 C1.31982439,23.9767024 0,22.6566439 0,21.0343024 L0,7.34727805 C0,5.72493659 1.31982439,4.40487805 2.9424,4.40487805 L15.6004683,4.40487805 C17.2228098,4.40487805 18.5426341,5.72493659 18.5426341,7.34727805 L18.5426341,16.1601951 C18.5426341,16.5146341 18.2553951,16.8018146 17.9010146,16.8018146 C17.5468098,16.8018146 17.2593951,16.5146341 17.2593951,16.1601951 L17.2593951,7.34727805 C17.2593951,6.43240976 16.5153366,5.68811707 15.6004683,5.68811707 L2.9424,5.68811707 C2.02753171,5.68811707 1.28323902,6.43240976 1.28323902,7.34727805 L1.28323902,21.0343024 C1.28323902,21.9491707 2.02753171,22.6932293 2.9424,22.6932293 L15.6004683,22.6932293 C16.5153366,22.6932293 17.2593951,21.9491707 17.2593951,21.0343024 L17.2593951,18.7589268 C17.2593951,18.404722 17.5468098,18.1173073 17.9010146,18.1173073 C18.2553951,18.1173073 18.5426341,18.404722 18.5426341,18.7589268 L18.5426341,21.0343024 C18.5426341,22.6566439 17.2228098,23.9767024 15.6004683,23.9767024 Z" id="Fill-4"></path>
                <path d="M13.5477659,7.75106341 L4.9950439,7.75106341 C4.02667317,7.75106341 3.23894634,6.96333659 3.23894634,5.99496585 L3.23894634,4.09802927 C3.23894634,3.12965854 4.02667317,2.34193171 4.9950439,2.34193171 L6.31990244,2.34193171 L6.31990244,1.76435122 C6.31990244,0.791590244 7.11149268,0 8.08419512,0 L10.4583805,0 C11.4310829,0 12.2227317,0.791590244 12.2227317,1.76435122 L12.2227317,2.34193171 L13.5475902,2.34193171 C14.5159024,2.34193171 15.3036878,3.12965854 15.3036878,4.09802927 L15.3036878,5.99473171 C15.3038634,6.96310244 14.5159024,7.75106341 13.5477659,7.75106341 Z M4.9950439,3.62517073 C4.73414634,3.62517073 4.52218537,3.83736585 4.52218537,4.09802927 L4.52218537,5.99473171 C4.52218537,6.25562927 4.73414634,6.46782439 4.9950439,6.46782439 L13.5477659,6.46782439 C13.8084878,6.46782439 14.0206829,6.25562927 14.0206829,5.99473171 L14.0206829,4.09802927 C14.0206829,3.83736585 13.8084878,3.62517073 13.5477659,3.62517073 L11.5811122,3.62517073 C11.2269073,3.62517073 10.9397268,3.33793171 10.9397268,2.98355122 L10.9397268,1.76435122 C10.9397268,1.49906341 10.7238439,1.28323902 10.4583805,1.28323902 L8.08442927,1.28323902 C7.81896585,1.28323902 7.60314146,1.49906341 7.60314146,1.76435122 L7.60314146,2.98355122 C7.60314146,3.33793171 7.31590244,3.62517073 6.96152195,3.62517073 L4.9950439,3.62517073 Z" id="Fill-6"></path>
            </g>
        </g>
    </g>
</svg>