<?xml version="1.0" encoding="UTF-8"?>
<svg width="95px" height="100px" preserveAspectRatio="none" viewBox="0 0 95 100" version="1.1" xmlns="http://www.w3.org/2000/svg" xmlns:xlink="http://www.w3.org/1999/xlink">
    <!-- Generator: Sketch 51.1 (57501) - http://www.bohemiancoding.com/sketch -->
    <title>type pad 1</title>
    <desc>Created with Sketch.</desc>
    <defs>
        <radialGradient cx="50%" cy="0%" fx="50%" fy="0%" r="113.505145%" gradientTransform="translate(0.500000,0.000000),rotate(90.000000),scale(1.000000,1.582465),translate(-0.500000,-0.000000)" id="radialGradient-1">
            <stop stop-color="#00BCD4" offset="0%"></stop>
            <stop stop-color="#039BE5" offset="100%"></stop>
        </radialGradient>
        <circle id="path-2" cx="42.5" cy="42.5" r="42.5"></circle>
        <filter x="-22.9%" y="-11.2%" width="145.9%" height="145.9%" filterUnits="objectBoundingBox" id="filter-3">
            <feMorphology radius="3.5" operator="erode" in="SourceAlpha" result="shadowSpreadOuter1"></feMorphology>
            <feOffset dx="0" dy="10" in="shadowSpreadOuter1" result="shadowOffsetOuter1"></feOffset>
            <feGaussianBlur stdDeviation="6" in="shadowOffsetOuter1" result="shadowBlurOuter1"></feGaussianBlur>
            <feColorMatrix values="0 0 0 0 0.0117647059   0 0 0 0 0.607843137   0 0 0 0 0.898039216  0 0 0 0.76 0" type="matrix" in="shadowBlurOuter1"></feColorMatrix>
        </filter>
        <polygon id="path-4" points="0.0043902439 0.0471219512 28.0675945 0.0471219512 28.0675945 28.0974878 0.0043902439 28.0974878"></polygon>
    </defs>
    <g id="patient-home" stroke="none" stroke-width="1" fill="none" fill-rule="evenodd">
        <g id="patient-home---contact--call" transform="translate(-170.000000, -694.000000)">
            <g id="numpad" transform="translate(78.000000, 314.000000)">
                <g id="type-pad-1" transform="translate(97.000000, 380.000000)">
                    <g id="Oval-4">
                        <use fill="black" fill-opacity="1" filter="url(#filter-3)" xlink:href="#path-2"></use>
                        <use fill="url(#radialGradient-1)" fill-rule="evenodd" xlink:href="#path-2"></use>
                    </g>
                    <g id="call-button" transform="translate(28.000000, 28.000000)">
                        <g id="Group" transform="translate(15.000000, 15.500000) scale(-1, 1) translate(-15.000000, -15.500000) translate(0.000000, 1.000000)">
                            <g id="Group-4">
                                <mask id="mask-5" fill="white">
                                    <use xlink:href="#path-4"></use>
                                </mask>
                                <g id="Clip-2"></g>
                                <path d="M20.0379512,18.855439 L18.5170244,20.376 C18.387,20.3050976 18.2463659,20.2347805 18.1046341,20.1550976 C16.7989756,19.4310732 14.2216829,17.6538293 12.3418537,15.7737073 C10.4577073,13.8892683 8.67358537,11.310878 7.95014634,10.0055122 C7.87214634,9.86831707 7.84039024,9.77853659 7.76956098,9.65019512 L9.19609756,8.30941463 L9.34382927,8.16160976 C10.4742439,7.03119512 10.4742439,5.19878049 9.34382927,4.06865854 L7.11497561,1.83980488 C5.97856098,0.703097561 4.13356098,0.710487805 3.006,1.85612195 L2.41178049,2.4594878 C2.02478049,2.95419512 1.69668293,3.52990244 1.45653659,4.1435122 C1.23417073,4.7297561 1.09214634,5.29082927 1.03068293,5.84963415 C0.487902439,10.3373415 2.53814634,14.4397317 8.1024878,20.006122 C15.7960244,27.6973902 21.9563415,27.1643415 22.2241463,27.1342683 C22.805561,27.0657073 23.4038049,26.8813171 23.9719756,26.6615122 C24.5810488,26.4234878 25.1615854,26.0904878 25.6540244,25.7034878 L26.2576829,25.1097805 C27.4044146,23.9825122 27.4121707,22.1367073 26.2751707,20.9997073 L24.1309024,18.855439 C23.0004878,17.7253171 21.1683659,17.7253171 20.0379512,18.855439 Z" id="Fill-1" fill="#00BCD4" mask="url(#mask-5)"></path>
                                <path d="M21.7783171,28.0974878 L21.7780244,28.0974878 C20.1548049,28.0974878 14.3240488,27.561878 7.4345122,20.6743902 C1.6397561,14.8776585 -0.487609756,10.550561 0.0920487805,5.74156098 C0.162073171,5.10987805 0.319243902,4.47768293 0.573073171,3.80853659 C0.574243902,3.80539024 0.575341463,3.8022439 0.576804878,3.79909756 C0.846878049,3.10887805 1.22414634,2.44463415 1.6674878,1.87726829 C1.68980488,1.84895122 1.71321951,1.82209756 1.73839024,1.79663415 L2.33260976,1.19297561 C3.06,0.454170732 4.03156098,0.0471219512 5.06853659,0.0471219512 C6.09402439,0.0471219512 7.05812195,0.446414634 7.7832439,1.17153659 L10.0120976,3.40039024 C10.7369268,4.1255122 11.1365122,5.08960976 11.1365122,6.11487805 C11.1365122,7.14036585 10.7372195,8.10446341 10.0120976,8.82958537 L9.86407317,8.97739024 C9.85719512,8.98426829 9.85031707,8.99107317 9.84314634,8.99765854 L8.94570732,9.84139024 C9.6822439,11.0867561 11.2726098,13.3673415 13.010122,15.105439 C14.7722195,16.8678293 17.1188049,18.4901707 18.3498293,19.2070244 L19.3699756,18.1871707 C20.0950976,17.4620488 21.0589024,17.0627561 22.0843902,17.0627561 C23.1099512,17.0627561 24.0737561,17.4620488 24.798878,18.1871707 L26.9431463,20.331439 C27.6728049,21.060878 28.0718049,22.0306098 28.067561,23.0621707 C28.0632439,24.0937317 27.6556829,25.0600976 26.9202439,25.7834634 L26.3162927,26.376878 C26.2914146,26.4014634 26.2651463,26.4245854 26.2377073,26.4463171 C25.6677805,26.8939024 25.0029512,27.2726341 24.3158049,27.5413171 C23.5707073,27.8296829 22.9235854,28.0031707 22.3347805,28.0723902 C22.2785122,28.0791951 22.0892927,28.0974878 21.7783171,28.0974878 Z M2.33831707,4.48339024 C2.14221951,5.001 2.02192683,5.48202439 1.96990244,5.95309756 C1.96960976,5.95653659 1.96902439,5.95968293 1.96873171,5.96312195 C1.46539024,10.1260976 3.43587805,14.001 8.7707561,19.3382195 C15.1466341,25.7120488 20.3386098,26.2076341 21.7780244,26.2076341 L21.7783171,26.2076341 C22.0012683,26.2076341 22.1187073,26.1953415 22.119878,26.1953415 C22.5425854,26.1456585 23.0390488,26.009561 23.631,25.7803902 C24.1295122,25.5856829 24.6130976,25.3130488 25.0303902,24.9914634 L25.5951951,24.4360976 C25.9687317,24.0688537 26.1756585,23.5783902 26.178,23.0544878 C26.1802683,22.5305122 25.9772927,22.0383659 25.6069024,21.6679024 L23.4629268,19.5237073 C23.0948049,19.1555122 22.6052195,18.9529024 22.0843902,18.9529024 C21.5639268,18.9529024 21.0743415,19.1555122 20.7061463,19.5237073 L19.1852927,21.0442683 C18.8891707,21.3406829 18.4330244,21.4060976 18.0649024,21.2057561 C18.015439,21.1786098 17.9642927,21.1517561 17.9122683,21.1246098 C17.8239512,21.078 17.7330732,21.03 17.6418293,20.9787805 C16.3530732,20.2639756 13.6952195,18.4630244 11.673878,16.4419756 C9.654,14.4211463 7.81382927,11.7072439 7.12617073,10.4673659 C7.06953659,10.3673415 7.03068293,10.2861951 6.9995122,10.2207073 C6.98239024,10.1847073 6.96578049,10.1487073 6.94265854,10.1072195 C6.73368293,9.72907317 6.80773171,9.2574878 7.12243902,8.96165854 L8.53836585,7.63090244 L8.67585366,7.49341463 C9.0437561,7.12521951 9.24665854,6.63592683 9.24665854,6.11517073 C9.24665854,5.59441463 9.0437561,5.10504878 8.67556098,4.73692683 L6.44670732,2.50807317 C6.07858537,2.13995122 5.58929268,1.93697561 5.06853659,1.93697561 C4.542,1.93697561 4.04868293,2.14360976 3.67909756,2.51890244 L3.12460976,3.0822439 C2.80704878,3.4967561 2.53580488,3.9797561 2.33831707,4.48339024 Z" id="Fill-3" fill="#FFFFFF" mask="url(#mask-5)"></path>
                            </g>
                            <path d="M23.607,14.219122 C23.3509024,14.219122 23.0933415,14.1590488 22.854439,14.0381707 C22.2956341,13.7546341 21.9474878,13.190122 21.9452195,12.5639268 L17.3631951,12.5639268 C15.9406098,12.5639268 14.7830488,11.4065854 14.7830488,9.98378049 L14.7830488,8.24370732 C14.7830488,6.82082927 15.9406098,5.66356098 17.3631951,5.66356098 L17.9745366,5.66356098 C18.4964634,5.66356098 18.9194634,6.08656098 18.9194634,6.6084878 C18.9194634,7.13012195 18.4964634,7.55341463 17.9745366,7.55341463 L17.3631951,7.55341463 C16.9824878,7.55341463 16.6729024,7.86292683 16.6729024,8.24370732 L16.6729024,9.98378049 C16.6729024,10.3644878 16.9827805,10.674 17.3631951,10.674 L22.8901463,10.674 C23.4117805,10.674 23.8347805,11.0973659 23.8347805,11.6189268 L23.8347805,12.105439 L27.9220976,9.11370732 L23.8347805,6.12226829 L23.8347805,6.6084878 C23.8347805,7.13012195 23.4117805,7.55341463 22.8901463,7.55341463 L21.3624146,7.55341463 C20.8404878,7.55341463 20.4174878,7.13012195 20.4174878,6.6084878 C20.4174878,6.08656098 20.8404878,5.66356098 21.3624146,5.66356098 L21.9452195,5.66356098 C21.9474878,5.03729268 22.2956341,4.47307317 22.854439,4.1892439 C23.4155122,3.90490244 24.0791707,3.95919512 24.5865366,4.33046341 L29.2909024,7.77380488 C29.7164634,8.08529268 29.970878,8.58636585 29.9705854,9.11370732 C29.9705854,9.64134146 29.7164634,10.142122 29.2909024,10.4536829 L24.5865366,13.8969512 C24.2952439,14.1101707 23.9522927,14.219122 23.607,14.219122 Z" id="Fill-5" fill="#FFFFFF"></path>
                        </g>
                    </g>
                </g>
            </g>
        </g>
    </g>
</svg>