<?xml version="1.0" encoding="UTF-8"?>
<svg width="25px" preserveAspectRatio="none" height="26px" viewBox="0 0 25 26" version="1.1" xmlns="http://www.w3.org/2000/svg" xmlns:xlink="http://www.w3.org/1999/xlink">
    <!-- Generator: Sketch 51.1 (57501) - http://www.bohemiancoding.com/sketch -->
    <title>Group 5</title>
    <desc>Created with Sketch.</desc>
    <defs></defs>
    <g id="Symbols" stroke="none" stroke-width="1" fill="none" fill-rule="evenodd">
        <g id="locations-icon" transform="translate(-1.000000, 0.000000)" fill="#FFFFFF">
            <g id="Group-5" transform="translate(1.000000, 0.000000)">
                <path d="M22.4612632,3.75981287 L20.207271,5.88182846 L14.0947368,5.88182846 L14.0947368,1.63779727 L20.207271,1.63779727 L22.4612632,3.75981287 Z M18.241154,20.7129786 L19.4752164,24.4127836 L4.11119298,24.4127836 L5.34530604,20.7129786 L9.49182456,20.7129786 L9.49182456,22.3248265 C9.49182456,22.763076 9.84715789,23.1184094 10.2854074,23.1184094 C10.7236062,23.1184094 11.0789903,22.763076 11.0789903,22.3248265 L11.0789903,20.7129786 L18.241154,20.7129786 Z M12.5075712,16.8018285 C12.5075712,17.2401287 12.8629552,17.5954113 13.301154,17.5954113 C13.7393528,17.5954113 14.0947368,17.2401287 14.0947368,16.8018285 L14.0947368,7.46899415 L20.5220585,7.46899415 C20.7242807,7.46899415 20.9188499,7.39180507 21.0659805,7.25323977 L24.1629201,4.33764133 C24.3223158,4.18762183 24.4125809,3.97860819 24.4125809,3.75981287 C24.4125809,3.54101754 24.3223158,3.3320039 24.1629201,3.18203509 L21.0659805,0.266385965 C20.9188499,0.127871345 20.7242807,0.0506315789 20.5220585,0.0506315789 L13.301154,0.0506315789 C13.2855945,0.0506315789 13.2704405,0.0520506823 13.2551345,0.0529122807 L10.2854074,0.0529122807 C10.2728382,0.0529122807 10.2606238,0.0541793372 10.2482573,0.0548382066 C10.221345,0.0520506823 10.1940273,0.0506315789 10.1664561,0.0506315789 L0.793633528,0.0506315789 C0.468253411,0.0506315789 0.175918129,0.249204678 0.0559025341,0.551625731 C-0.0640116959,0.854046784 0.0127719298,1.19904094 0.249610136,1.42204288 L2.73273684,3.75981287 L0.249610136,6.09763353 C0.0127719298,6.32068616 -0.0640116959,6.66568031 0.0559025341,6.968 C0.175918129,7.27047173 0.468253411,7.46899415 0.793633528,7.46899415 L6.75401949,7.46899415 C7.19226901,7.46899415 7.54760234,7.1137115 7.54760234,6.67541131 C7.54760234,6.23711111 7.19226901,5.88182846 6.75401949,5.88182846 L2.79426511,5.88182846 L4.43449513,4.33764133 C4.59384016,4.18762183 4.68415595,3.97860819 4.68415595,3.75981287 C4.68415595,3.54101754 4.59384016,3.3320039 4.43449513,3.18203509 L2.79426511,1.63779727 L9.4917232,1.63779727 L9.4917232,19.1258129 L4.77340741,19.1258129 C4.43185965,19.1258129 4.12862768,19.3443041 4.02062378,19.6683158 L2.2571345,24.9552865 C2.17644834,25.1972437 2.21699415,25.4633255 2.36610136,25.6703119 C2.51530994,25.8772476 2.75478363,25.9999493 3.00991813,25.9999493 L20.5764405,25.9999493 C20.5770994,25.9999493 20.5776569,26.0000507 20.5781131,25.9999493 C21.0163119,25.9999493 21.3716959,25.6446667 21.3716959,25.2063665 C21.3716959,25.1001871 21.3508148,24.9988733 21.3129552,24.9063275 L19.5658869,19.6683665 C19.457883,19.3443548 19.1546004,19.1259142 18.8131033,19.1259142 L11.0789903,19.1259142 L11.0789903,1.64007797 L12.5075712,1.64007797 L12.5075712,16.8018285 Z" id="Fill-4"></path>
            </g>
        </g>
    </g>
</svg>