<?xml version="1.0" encoding="UTF-8"?>
<svg preserveAspectRatio="none" width="20px" height="20px" viewBox="0 0 20 20" version="1.1" xmlns="http://www.w3.org/2000/svg" xmlns:xlink="http://www.w3.org/1999/xlink">
    <!-- Generator: Sketch 51.1 (57501) - http://www.bohemiancoding.com/sketch -->
    <title>search icon</title>
    <desc>Created with Sketch.</desc>
    <defs></defs>
    <g id="Dashboard" stroke="none" stroke-width="1" fill="none" fill-rule="evenodd">
        <g id="dashboard" transform="translate(-30.000000, -87.000000)" fill="#000000">
            <g id="search-bar" transform="translate(20.000000, 79.000000)">
                <g id="search-icon" transform="translate(10.000000, 8.000000)">
                    <g>
                        <path d="M11.9520012,13.687027 C8.88722072,13.687027 6.39365975,11.1751351 6.39365975,8.08776413 C6.39365975,7.74412776 6.67014755,7.46560197 7.01122072,7.46560197 C7.35234267,7.46560197 7.62883048,7.74412776 7.62883048,8.08776413 C7.62883048,10.4890909 9.56819633,12.442801 11.9520012,12.442801 C14.3357573,12.442801 16.2749768,10.4890909 16.2749768,8.08776413 C16.2749768,5.68638821 14.3355622,3.73287469 11.9520012,3.73287469 C11.6108793,3.73287469 11.3343915,3.45420147 11.3343915,3.11056511 C11.3343915,2.76717445 11.6108793,2.48845209 11.9520012,2.48845209 C15.0167817,2.48845209 17.5100988,5.00034398 17.5100988,8.08776413 C17.5100988,11.1751351 15.0167817,13.687027 11.9520012,13.687027 Z" id="Fill-1"></path>
                        <path d="M11.9520012,16.1754791 C9.25780609,16.1754791 6.75722072,14.8247174 5.26317194,12.5623587 C5.07414755,12.2761671 5.15112316,11.8901229 5.43522072,11.6997052 C5.71912316,11.509484 6.1025378,11.587027 6.29156219,11.8732678 C7.55600121,13.7880098 9.67224511,14.9312531 11.9520012,14.9312531 C15.6978061,14.9312531 18.7454158,11.8613268 18.7454158,8.08776413 C18.7454158,4.31429975 15.6978061,1.24422604 11.9520012,1.24422604 C8.20600121,1.24422604 5.1585378,4.31429975 5.1585378,8.08776413 C5.1585378,8.43135135 4.88204999,8.70987715 4.54097682,8.70987715 C4.19990365,8.70987715 3.92341584,8.43135135 3.92341584,8.08776413 C3.92341584,3.62810811 7.52497682,0 11.9520012,0 C16.3790256,0 19.9805866,3.62810811 19.9805866,8.08776413 C19.9805866,12.547371 16.3790256,16.1754791 11.9520012,16.1754791 Z" id="Fill-2"></path>
                        <path d="M2.64995243,19.9541032 C2.10595243,19.9541032 1.5945378,19.7406388 1.20980609,19.3531204 L0.596586576,18.7353808 C0.211123162,18.3470762 -0.000584155207,17.8311057 1.2106462e-06,17.282113 C0.0005865765,16.7331204 0.213806089,16.217543 0.600049991,15.830172 L5.07639145,11.3434398 C5.21263536,11.2067813 5.40395243,11.1417199 5.59487926,11.1680098 C5.78546463,11.1939066 5.95292804,11.3077641 6.04839145,11.4759214 C6.61736706,12.479656 7.43600121,13.3288452 8.41561097,13.931941 C8.57736706,14.0315971 8.68463536,14.2002948 8.70673292,14.3899754 C8.7290256,14.5796069 8.66351341,14.7690418 8.52897682,14.9038329 L4.08648902,19.3569533 C3.70219633,19.7420147 3.19209877,19.9541032 2.64995243,19.9541032 Z M5.40492804,12.7692875 L1.47141584,16.7121867 C1.31936706,16.8646192 1.23551341,17.0675184 1.23512316,17.2836364 C1.23473292,17.4996069 1.31819633,17.7027027 1.46990365,17.8554791 L2.0832695,18.4733661 C2.23458658,18.6257985 2.43580609,18.7098771 2.64995243,18.7098771 C2.86317194,18.7098771 3.06400121,18.6263391 3.21531828,18.474742 L7.12785487,14.5529238 C6.46683048,14.0511548 5.8845378,13.4484029 5.40492804,12.7692875 Z" id="Fill-5"></path>
                    </g>
                </g>
            </g>
        </g>
    </g>
</svg>