<?xml version="1.0" encoding="UTF-8"?>
<svg width="20px" preserveAspectRatio="none" height="24px" viewBox="0 0 20 24" version="1.1" xmlns="http://www.w3.org/2000/svg" xmlns:xlink="http://www.w3.org/1999/xlink">
    <!-- Generator: Sketch 51.1 (57501) - http://www.bohemiancoding.com/sketch -->
    <title>med</title>
    <desc>Created with Sketch.</desc>
    <defs></defs>
    <g id="Symbols" stroke="none" stroke-width="1" fill="none" fill-rule="evenodd">
        <g id="medication-patien-home" transform="translate(-15.000000, -15.000000)">
            <g id="new-dosage-list">
                <g id="med" transform="translate(15.000000, 15.000000)">
                    <g id="Group">
                        <path d="M17.2196429,10.7971406 C15.2246429,8.70234375 12.3192411,8.14907812 9.84116071,9.13303125 L9.84116071,17.9282344 C9.84116071,19.4718281 9.13651786,20.8502812 8.04897321,21.7288594 C10.7758929,23.9512969 14.715,23.7497344 17.2195536,21.1198594 C19.9344196,18.2693437 19.9344196,13.6476562 17.2196429,10.7971406" id="Fill-1" fill="#00BCD4"></path>
                        <path d="M9.18589286,21.6366094 C10.1283482,22.2060469 11.2104911,22.5132656 12.3067411,22.5133125 C12.306875,22.5133125 12.3070982,22.5133125 12.3071429,22.5133125 C13.9737054,22.5133125 15.5404911,21.8318906 16.7190625,20.5942969 C17.8983482,19.3560469 18.5478571,17.7096562 18.5478571,15.9585 C18.5478571,14.2072969 17.8983482,12.5609531 16.7190625,11.3227031 C15.5407143,10.0854375 13.97375,9.4040625 12.3067857,9.4040625 C11.7077679,9.4040625 11.1185714,9.49242187 10.5491518,9.6673125 L10.5491518,17.9281406 C10.5491518,19.3183594 10.0611161,20.62575 9.18589286,21.6366094 Z M12.3072321,24 C12.3069196,24 12.3069196,24 12.3066518,24 C10.6134375,23.9998594 8.94723214,23.401875 7.61495536,22.3160625 C7.44183036,22.1749219 7.34066964,21.9575156 7.34116071,21.7273125 C7.34165179,21.4971094 7.44366071,21.280125 7.61736607,21.1397813 C8.58075893,20.3615625 9.13334821,19.1910469 9.13334821,17.9283281 L9.13334821,9.13303125 C9.13334821,8.82398438 9.31549107,8.54709375 9.59084821,8.43773437 C10.4603125,8.0925 11.3740625,7.91746875 12.3067857,7.91746875 C14.3519196,7.91746875 16.2744196,8.7534375 17.7202679,10.2714844 C19.1670089,11.7905625 19.9636607,13.8102188 19.9636607,15.9585 C19.9636607,18.1067812 19.1669196,20.1264844 17.7202679,21.6454687 C16.2742857,23.1637969 14.3516964,24 12.3072321,24 Z" id="Fill-2" fill="#000000"></path>
                        <path d="M10.0485714,19.0700156 C9.86736607,19.0700156 9.68629464,18.9974531 9.54803571,18.8522813 C9.27160714,18.5620313 9.27160714,18.0914063 9.54803571,17.8010625 L14.0588393,13.0647188 C14.3353571,12.7744219 14.7834375,12.7744219 15.0600446,13.0647188 C15.3364732,13.3549688 15.3364732,13.8255938 15.0600446,14.1159375 L10.5491964,18.8522813 C10.4108929,18.9974063 10.2298214,19.0700156 10.0485714,19.0700156" id="Fill-3" fill="#000000"></path>
                        <path d="M5.27455357,23.4665625 C2.36616071,23.4665625 0,20.9820937 0,17.9282344 L0,5.53828125 C0,2.48446875 2.36616071,0 5.27455357,0 C8.18299107,0 10.5491518,2.48446875 10.5491518,5.53828125 C10.5491518,5.9488125 10.2321429,6.28157813 9.84125,6.28157813 C9.45035714,6.28157813 9.13334821,5.9488125 9.13334821,5.53828125 C9.13334821,3.30417187 7.40232143,1.48659375 5.27455357,1.48659375 C3.14683036,1.48659375 1.41580357,3.30417187 1.41580357,5.53828125 L1.41580357,17.9282344 C1.41580357,20.1623437 3.14683036,21.9799687 5.27455357,21.9799687 C7.40232143,21.9799687 9.13334821,20.1623437 9.13334821,17.9282344 C9.13334821,17.5177031 9.45035714,17.1849375 9.84125,17.1849375 C10.2321429,17.1849375 10.5491518,17.5177031 10.5491518,17.9282344 C10.5491518,20.9820469 8.18299107,23.4665625 5.27455357,23.4665625" id="Fill-5" fill="#000000"></path>
                        <path d="M6.79049107,12.4765313 L3.75866071,12.4765313 C3.36776786,12.4765313 3.05075893,12.1437656 3.05075893,11.7332344 C3.05075893,11.3227031 3.36776786,10.9899375 3.75866071,10.9899375 L6.79049107,10.9899375 C7.18138393,10.9899375 7.49839286,11.3227031 7.49839286,11.7332344 C7.49839286,12.1437656 7.18138393,12.4765313 6.79049107,12.4765313" id="Fill-7" fill="#000000"></path>
                    </g>
                </g>
            </g>
        </g>
    </g>
</svg>