<?xml version="1.0" encoding="UTF-8"?>
<svg width="18px" preserveAspectRatio="none" height="24px" viewBox="0 0 18 24" version="1.1" xmlns="http://www.w3.org/2000/svg" xmlns:xlink="http://www.w3.org/1999/xlink">
    <!-- Generator: Sketch 51.1 (57501) - http://www.bohemiancoding.com/sketch -->
    <title>appointment to do list icon copy</title>
    <desc>Created with Sketch.</desc>
    <defs></defs>
    <g id="My-network" stroke="none" stroke-width="1" fill="none" fill-rule="evenodd">
        <g id="my-network-swipe-function" transform="translate(-324.000000, -340.000000)">
            <g id="contextual-swipe-menu" transform="translate(183.000000, 325.000000)">
                <g id="delete" transform="translate(135.000000, 15.000000)">
                    <g id="delete-icon-white" transform="translate(3.000000, 0.000000)">
                        <g id="Group" transform="translate(3.692308, 0.000000)">
                            <path d="M13.2226569,23.9414891 L2.48175182,23.9414891 C2.15211679,23.9414891 1.87661314,23.6910365 1.84537226,23.3630365 L0.566832117,9.93921168 C0.549722628,9.75994161 0.609051095,9.58178102 0.730160584,9.44858394 C0.851270073,9.31538686 1.02306569,9.23941606 1.2030365,9.23941606 L14.5011387,9.23941606 C14.8542482,9.23941606 15.1404964,9.52543066 15.1404964,9.87854015 C15.1404964,10.2316496 14.8542482,10.5178978 14.5011387,10.5178978 L1.90627737,10.5178978 L3.06294891,22.6632409 L12.6414015,22.6632409 L13.4605547,14.0626569 C13.494073,13.7111241 13.806365,13.4529051 14.1573723,13.4866569 C14.5089051,13.5202336 14.7666569,13.8322336 14.7331387,14.1837664 L13.8588029,23.3630365 C13.8277956,23.6910365 13.5522336,23.9414891 13.2226569,23.9414891 Z" id="Fill-1" fill="#FFFFFF"></path>
                            <g id="Group-5" transform="translate(0.000000, 1.927007)">
                                <polygon id="Fill-2" fill="#00BCD4" points="15.3752409 9.23007299 0.640058394 3.95585401 1.81156204 0.683094891 16.5465109 5.95725547"></polygon>
                                <path d="M15.3743066,9.86989781 C15.3028905,9.86989781 15.2301314,9.85781022 15.1590073,9.83223358 L0.423824818,4.55760584 C0.264116788,4.50037956 0.13389781,4.38218978 0.0613722628,4.22890511 C-0.0111532847,4.07562044 -0.0198540146,3.8999708 0.0374306569,3.74032117 L1.20893431,0.46750365 C1.2659854,0.307854015 1.38411679,0.177576642 1.53763504,0.105051095 C1.69091971,0.0325255474 1.86656934,0.0240583942 2.02621898,0.0811094891 L16.7614015,5.3559708 C16.9210511,5.41325547 17.0513285,5.53138686 17.123854,5.68467153 C17.1963796,5.8379562 17.2050803,6.01360584 17.1477956,6.17325547 L15.976292,9.44607299 C15.8827445,9.70727007 15.6368467,9.86989781 15.3743066,9.86989781 Z M1.45640876,3.56922628 L14.9879124,8.41325547 L15.7285839,6.34435036 L2.19731387,1.50037956 L1.45640876,3.56922628 Z" id="Fill-4" fill="#FFFFFF"></path>
                            </g>
                            <path d="M12.8859562,4.6340438 C12.8143066,4.6340438 12.7415474,4.6219562 12.670365,4.59637956 C12.3380438,4.47731387 12.1651387,4.11147445 12.2839708,3.77909489 L12.5209927,3.11737226 L7.94686131,1.47982482 L7.71007299,2.14178102 C7.5910073,2.47410219 7.22493431,2.6470073 6.89278832,2.52817518 C6.56046715,2.40910949 6.38732847,2.04327007 6.50639416,1.71089051 L6.95871533,0.447240876 C7.01576642,0.287532847 7.13389781,0.157313869 7.28741606,0.0847883212 C7.44070073,0.0122043796 7.61635036,0.00379562044 7.776,0.0607883212 L13.5538102,2.1289927 C13.7135182,2.18627737 13.8437372,2.30440876 13.9162628,2.45769343 C13.9886131,2.6109781 13.9972555,2.78662774 13.9402628,2.94627737 L13.4878832,4.2099854 C13.3941606,4.47118248 13.1482628,4.6340438 12.8859562,4.6340438 Z" id="Fill-6" fill="#FFFFFF"></path>
                        </g>
                    </g>
                </g>
            </g>
        </g>
    </g>
</svg>