<?xml version="1.0" encoding="UTF-8"?>
<svg width="24px" height="24px" preserveAspectRatio="none" viewBox="0 0 24 24" version="1.1" xmlns="http://www.w3.org/2000/svg" xmlns:xlink="http://www.w3.org/1999/xlink">
    <!-- Generator: Sketch 51.1 (57501) - http://www.bohemiancoding.com/sketch -->
    <title>appointment to do list icon copy 2</title>
    <desc>Created with Sketch.</desc>
    <defs></defs>
    <g id="My-network" stroke="none" stroke-width="1" fill="none" fill-rule="evenodd">
        <g id="my-network-swipe-function" transform="translate(-267.000000, -340.000000)">
            <g id="contextual-swipe-menu" transform="translate(183.000000, 325.000000)">
                <g id="IM" transform="translate(84.000000, 15.000000)">
                    <g id="message-icon-white">
                        <g id="Group" transform="translate(0.923077, 0.923077)">
                            <g id="Group-3" fill="#FFFFFF">
                                <path d="M5.09014334,22.1289075 C4.90545591,22.1289075 4.72055235,22.0835191 4.54958949,21.9923642 C4.18907617,21.800058 3.96262064,21.4412737 3.94381689,21.0328324 L3.83515497,17.799277 L1.94202777,17.799277 C0.871294559,17.7990609 0,16.9279825 0,15.8569791 L0,1.95348293 C0,0.88247955 0.871294559,0.0111849906 1.94202777,0.0111849906 L20.1900428,0.0111849906 C21.2610462,0.0111849906 22.1323407,0.88247955 22.1323407,1.95326679 L22.1323407,15.8569791 C22.1323407,16.9279825 21.2610462,17.7990609 20.1900428,17.7990609 L17.7766784,17.7990609 C17.3965508,17.7990609 17.0883962,17.4911224 17.0883962,17.1109948 C17.0883962,16.7310294 17.3965508,16.4228748 17.7766784,16.4228748 L20.1900428,16.4228748 C20.5022499,16.4228748 20.7561546,16.1689701 20.7561546,15.8569791 L20.7561546,1.95348293 C20.7561546,1.6412758 20.5022499,1.38737111 20.1900428,1.38737111 L1.94202777,1.38737111 C1.63009081,1.38737111 1.37618612,1.6412758 1.37618612,1.95348293 L1.37618612,15.8569791 C1.37618612,16.1691862 1.63009081,16.4228748 1.94202777,16.4228748 L4.4926379,16.4228748 C4.86049981,16.4228748 5.16341313,16.7122796 5.18005553,17.0797093 L5.30098311,20.584082 L10.5946176,16.5227292 C10.7022529,16.4575104 10.825558,16.4228748 10.9515647,16.4228748 L14.9561696,16.4228748 C15.3360811,16.4228748 15.6442356,16.7310294 15.6442356,17.1111569 C15.6442356,17.4911224 15.3360811,17.799277 14.9561696,17.799277 L11.1438169,17.799277 L5.68408255,21.9613488 C5.50004353,22.0727664 5.29530957,22.1289075 5.09014334,22.1289075 Z" id="Fill-1"></path>
                            </g>
                            <path d="M20.7084428,2.86930131 L11.7310019,9.71446154 C11.3382304,10.0137546 10.7938942,10.0137546 10.4012848,9.71446154 L1.42389794,2.86930131 C0.589292308,2.23310769 1.03928555,0.900634897 2.08872946,0.900634897 L20.0435572,0.900634897 C21.0930011,0.900851032 21.5429944,2.23310769 20.7084428,2.86930131 Z" id="Fill-4" fill="#00BCD4"></path>
                            <path d="M11.0661704,10.627146 C10.6773433,10.627146 10.2930011,10.4973568 9.98381989,10.2615535 L1.00659512,3.41660938 C0.387746341,2.94484053 0.148809006,2.16345816 0.397850657,1.42622139 C0.646730206,0.689146717 1.31053508,0.212784991 2.08872946,0.212784991 L20.0435572,0.212784991 C20.8218056,0.212784991 21.4853944,0.689146717 21.734436,1.42622139 C21.9833156,2.16345816 21.7443782,2.94484053 21.1257456,3.41660938 L12.1480886,10.2617696 C11.8390694,10.4973568 11.4549433,10.627146 11.0661704,10.627146 Z M2.08872946,1.58891707 C1.82407205,1.58891707 1.72994522,1.78311445 1.70163152,1.86670469 C1.67358799,1.9500788 1.63073921,2.16178311 1.84093058,2.32220938 L10.8183715,9.16736961 C10.9091482,9.23642477 11.003275,9.25095985 11.0661704,9.25095985 C11.1290657,9.25095985 11.2229764,9.23642477 11.3137531,9.16736961 L20.2913561,2.32220938 C20.5018176,2.16178311 20.4587527,1.95029493 20.430439,1.86670469 C20.4023955,1.78311445 20.3082687,1.58891707 20.0435572,1.58891707 L2.08872946,1.58891707 Z" id="Fill-5" fill="#FFFFFF"></path>
                        </g>
                    </g>
                </g>
            </g>
        </g>
    </g>
</svg>