<?xml version="1.0" encoding="UTF-8"?>
<svg width="23px" preserveAspectRatio="none" height="23px" viewBox="0 0 23 23" version="1.1" xmlns="http://www.w3.org/2000/svg" xmlns:xlink="http://www.w3.org/1999/xlink">
    <!-- Generator: Sketch 51.1 (57501) - http://www.bohemiancoding.com/sketch -->
    <title>appointment to do list icon copy</title>
    <desc>Created with Sketch.</desc>
    <defs></defs>
    <g id="My-network" stroke="none" stroke-width="1" fill="none" fill-rule="evenodd">
        <g id="my-network-swipe-function" transform="translate(-213.000000, -341.000000)">
            <g id="contextual-swipe-menu" transform="translate(183.000000, 325.000000)">
                <g id="call-copy" transform="translate(30.000000, 15.000000)">
                    <g id="call-now-icon-white">
                        <g id="Group-2" stroke-width="1" transform="translate(5.328671, 6.000000) scale(-1, 1) translate(-5.328671, -6.000000) translate(-0.671329, 1.846154)">
                            <path d="M1.67754316,2.59058168 L1.67754316,5.82586832 L6.23112033,5.82586832 L6.55491969,7.38294796 L10.2206963,4.515086 L6.23112033,0.923076923 L6.23112033,2.59058168 L1.67754316,2.59058168 Z" id="Path-2" fill="#00BCD4"></path>
                            <path d="M6.67982019,7.63856119 C6.50084291,7.63856119 6.32084291,7.59657823 6.15388269,7.51210096 C5.76335428,7.31394755 5.52004746,6.91943051 5.51846223,6.48180551 L2.31625201,6.48180551 C1.32205882,6.48180551 0.513081551,5.67298164 0.513081551,4.67863505 L0.513081551,3.46256119 C0.513081551,2.46816346 1.32205882,1.65939073 2.31625201,1.65939073 L2.74349632,1.65939073 C3.10825201,1.65939073 3.40387132,1.95501005 3.40387132,2.31976573 C3.40387132,2.68431687 3.10825201,2.98014073 2.74349632,2.98014073 L2.31625201,2.98014073 C2.05018951,2.98014073 1.83383155,3.19644755 1.83383155,3.46256119 L1.83383155,4.67863505 C1.83383155,4.94469755 2.05039405,5.16100437 2.31625201,5.16100437 L6.17883723,5.16100437 C6.54338837,5.16100437 6.83900769,5.45687937 6.83900769,5.82137937 L6.83900769,6.16138505 L9.69548496,4.07057255 L6.83900769,1.9799646 L6.83900769,2.31976573 C6.83900769,2.68431687 6.54338837,2.98014073 6.17883723,2.98014073 L5.1111611,2.98014073 C4.74640541,2.98014073 4.4507861,2.68431687 4.4507861,2.31976573 C4.4507861,1.95501005 4.74640541,1.65939073 5.1111611,1.65939073 L5.51846223,1.65939073 C5.52004746,1.2217146 5.76335428,0.827402098 6.15388269,0.629044143 C6.54599632,0.430328234 7.00980314,0.468271416 7.36438269,0.727737325 L10.6520929,3.13416346 C10.949502,3.35185096 11.1273031,3.70203278 11.1270986,4.07057255 C11.1270986,4.43931687 10.949502,4.78929414 10.6520929,5.00703278 L7.36438269,7.41340778 C7.16080882,7.56241914 6.92113269,7.63856119 6.67982019,7.63856119 Z" id="Fill-5" fill="#FFFFFF"></path>
                        </g>
                        <path d="M6.10988942,21.733875 C5.90129567,21.733875 5.69485817,21.6414844 5.55629567,21.4645781 C5.55465505,21.4624688 5.5502488,21.4569375 5.5453738,21.4510781 L3.2162488,19.122 C2.73048317,18.6362344 2.46296755,17.9903906 2.46296755,17.3034375 C2.46296755,16.6165313 2.73048317,15.9706875 3.2162488,15.484875 L5.71238942,12.9887813 C6.71513942,11.9860781 8.34671755,11.9860313 9.34942067,12.9887813 L10.1452644,13.784625 C10.8751082,13.1364844 11.6469988,12.4058438 12.4469207,11.6057813 C13.2471238,10.8055781 13.9777175,10.0335 14.6254832,9.30351563 L13.8301082,8.50814063 C13.3443425,8.022375 13.0768269,7.37648438 13.0768269,6.68957813 C13.0768269,6.00267188 13.3443425,5.35678125 13.8301082,4.87101562 L16.326155,2.37496875 C16.8119207,1.88925 17.4578113,1.6216875 18.1447175,1.6216875 C18.1448113,1.6216875 18.1447175,1.6216875 18.1448113,1.6216875 C18.8317175,1.6216875 19.4775613,1.88925 19.96328,2.37496875 L22.30328,4.71501562 C22.3663738,4.7780625 22.4218269,4.84917188 22.4674363,4.926 C22.6425144,5.22009375 22.9711082,6.09107813 22.2407957,7.81635938 C21.3946082,9.814875 19.4017644,12.391875 16.3176707,15.4761094 C14.5930457,17.2005469 13.0159363,18.5957813 11.6299363,19.6229063 C11.3180769,19.854 10.8779207,19.7885625 10.6468738,19.4767031 C10.4156863,19.1648906 10.4812175,18.7247344 10.79303,18.4936406 C12.1236238,17.5075313 13.6479519,16.1579063 15.32378,14.482125 C18.2793894,11.5265156 20.1711707,9.09942188 20.9464363,7.26834375 C21.3743582,6.25748438 21.2953738,5.7815625 21.261905,5.66132812 L18.9693894,3.36871875 C18.5147019,2.91403125 17.77478,2.9139375 17.3201394,3.36871875 L14.8240925,5.86476563 C14.3693582,6.3195 14.3693582,7.059375 14.8240925,7.51401563 L16.0838582,8.77378125 C16.3436863,9.03360938 16.3594832,9.44976563 16.1201863,9.72848438 C15.3492332,10.6266563 14.44778,11.5926094 13.4409519,12.5994375 C12.4344988,13.6060313 11.4688269,14.5075781 10.5708894,15.2790469 C10.2921707,15.5185781 9.8758738,15.5028281 9.6159988,15.2428594 L8.35557692,13.9823906 C7.90088942,13.5276563 7.16096755,13.5276563 6.70632692,13.9823906 L4.21023317,16.4785313 C3.7554988,16.9332188 3.7554988,17.6731406 4.21023317,18.1277813 L6.5501863,20.4677344 C6.59190505,20.5095469 6.6343738,20.5612031 6.66254567,20.59725 C6.90198317,20.9027813 6.84845192,21.3444844 6.54292067,21.5839219 C6.41434255,21.6849844 6.26148317,21.733875 6.10988942,21.733875" id="Fill-1" fill="#FFFFFF"></path>
                        <path d="M3.84320192,24 C3.66329567,24 3.48353005,23.9314219 3.34628005,23.7941719 C3.07182692,23.5197187 3.07182692,23.0746875 3.34628005,22.8002344 L5.61240505,20.5340625 C5.88685817,20.2597031 6.33188942,20.2596562 6.60634255,20.5340625 C6.8807488,20.8085156 6.8807488,21.2535469 6.60634255,21.528 L4.34017067,23.7941719 C4.2028738,23.9314219 4.0230613,24 3.84320192,24" id="Fill-6" fill="#FFFFFF"></path>
                    </g>
                </g>
            </g>
        </g>
    </g>
</svg>