<?xml version="1.0" encoding="UTF-8"?>
<svg width="24px" preserveAspectRatio="none" height="24px" viewBox="0 0 24 24" version="1.1" xmlns="http://www.w3.org/2000/svg" xmlns:xlink="http://www.w3.org/1999/xlink">
    <!-- Generator: Sketch 51.1 (57501) - http://www.bohemiancoding.com/sketch -->
    <title>filter icon</title>
    <desc>Created with Sketch.</desc>
    <defs></defs>
    <g id="My-network" stroke="none" stroke-width="1" fill="none" fill-rule="evenodd">
        <g id="my-network-with-pending-requests" transform="translate(-331.000000, -174.000000)">
            <g id="search-and-sort" transform="translate(20.000000, 174.000000)">
                <g id="filter-icon" transform="translate(311.000000, 0.000000)">
                    <g id="Group">
                        <path d="M7.48607813,19.009875 L5.2978125,19.009875 C4.3820625,19.009875 3.63698437,18.2648438 3.63698437,17.3490469 L3.63698437,10.8703125 C3.63698437,10.4753906 3.95709375,10.1553281 4.35196875,10.1553281 C4.74684375,10.1553281 5.06695312,10.4753906 5.06695312,10.8703125 L5.06695312,17.3490469 C5.06695312,17.4763125 5.1705,17.5799063 5.2978125,17.5799063 L7.48607813,17.5799063 C7.881,17.5799063 8.2010625,17.8999687 8.2010625,18.2948906 C8.2010625,18.6897656 7.881,19.009875 7.48607813,19.009875" id="Fill-1" fill="#000000"></path>
                        <path d="M7.03795312,4.80754687 L4.23857812,7.68445313 L1.13910937,7.68445313 C0.76246875,7.68445313 0.573140625,7.22976563 0.83840625,6.9624375 L7.03795312,0.715125 L13.2374531,6.9624375 C13.5028125,7.22976563 13.3133906,7.68445313 12.93675,7.68445313 L9.83723437,7.68445313 L7.03795312,4.80754687" id="Fill-2" fill="#00BCD4"></path>
                        <path d="M10.13925,6.96951562 L7.5504375,4.30898437 C7.4158125,4.17060937 7.23107812,4.09260937 7.038,4.09260937 C6.84496875,4.09260937 6.66014062,4.17060937 6.52560937,4.30898437 L3.93670313,6.96951562 L1.83867187,6.96951562 L7.03795312,1.73015625 L12.2372344,6.96951562 L10.13925,6.96951562 Z M13.7450625,6.45876562 L7.54542187,0.2115 C7.41121875,0.07621875 7.22854688,0.000140625 7.03795312,0.000140625 C6.8473125,0.000140625 6.66464062,0.07621875 6.5304375,0.2115 L0.3309375,6.45885937 C0.006046875,6.78623437 -0.089296875,7.27284375 0.08803125,7.69860937 C0.265359375,8.12442187 0.67790625,8.3994375 1.13910938,8.3994375 L4.238625,8.3994375 C4.43170313,8.3994375 4.61653125,8.3214375 4.7510625,8.18310937 L7.03795312,5.83279687 L9.00885937,7.85835937 L9.00885937,12.9967969 C9.00885937,13.3916719 9.32896875,13.7117812 9.72384375,13.7117812 C10.1187187,13.7117812 10.4388281,13.3916719 10.4388281,12.9967969 L10.4388281,8.39953125 L12.93675,8.39953125 C13.398,8.39953125 13.8105469,8.12442187 13.9878281,7.69870312 C14.16525,7.27284375 14.0699063,6.78623437 13.7450625,6.45876562 Z" id="Fill-4" fill="#000000"></path>
                        <path d="M18.8736562,13.8449063 C18.4787812,13.8449063 18.1586719,13.5247969 18.1586719,13.1299219 L18.1586719,6.6511875 C18.1586719,6.52392187 18.0551719,6.42032812 17.9278125,6.42032812 L15.7395469,6.42032812 C15.3446719,6.42032812 15.0245625,6.10021875 15.0245625,5.70534375 C15.0245625,5.31046875 15.3446719,4.99035937 15.7395469,4.99035937 L17.9278125,4.99035937 C18.8435625,4.99035937 19.5886406,5.73534375 19.5886406,6.6511875 L19.5886406,13.1299219 C19.5886406,13.5247969 19.2685781,13.8449063 18.8736562,13.8449063" id="Fill-6" fill="#000000"></path>
                        <path d="M16.1877656,19.1927344 L18.9871406,16.3157813 L22.0866562,16.3157813 C22.4632969,16.3157813 22.652625,16.7705156 22.3873594,17.0378438 L16.1878594,23.2851562 L9.9883125,17.0378438 C9.723,16.7705156 9.912375,16.3157813 10.2890156,16.3157813 L13.3885312,16.3157813 L16.1877656,19.1927344" id="Fill-7" fill="#00BCD4"></path>
                        <path d="M16.1877656,22.2700781 L10.9884844,17.0307656 L13.0865625,17.0307656 L15.6753281,19.6912969 C15.81,19.8296719 15.9947344,19.9076719 16.1877656,19.9076719 C16.3807969,19.9076719 16.565625,19.8296719 16.7002031,19.6912969 L19.2890156,17.0307656 L21.3870469,17.0307656 L16.1877656,22.2700781 Z M23.1376875,16.301625 C22.9603594,15.8758594 22.5478125,15.6008437 22.0866094,15.6008437 L18.9870937,15.6008437 C18.7940156,15.6008437 18.6091875,15.6788438 18.4746562,15.8171719 L16.1877656,18.1674844 L14.2168594,16.1419219 L14.2168594,11.0034844 C14.2168594,10.6086094 13.89675,10.2885 13.501875,10.2885 C13.107,10.2885 12.7868906,10.6086094 12.7868906,11.0034844 L12.7868906,15.60075 L10.2889687,15.60075 C9.82771875,15.60075 9.41517187,15.8758594 9.23789062,16.3015781 C9.0605625,16.7273437 9.15585937,17.2139531 9.48075,17.541375 L15.6802969,23.7886406 C15.8145,23.9239219 15.9972187,24 16.1877656,24 C16.3783125,24 16.5610781,23.9239219 16.6952812,23.7886406 L22.8948281,17.5412813 C23.2196719,17.2140469 23.3150156,16.7274375 23.1376875,16.301625 Z" id="Fill-9" fill="#000000"></path>
                    </g>
                </g>
            </g>
        </g>
    </g>
</svg>