<?xml version="1.0" encoding="UTF-8"?>
<svg width="25px" preserveAspectRatio="none" height="25px" viewBox="0 0 25 25" version="1.1" xmlns="http://www.w3.org/2000/svg" xmlns:xlink="http://www.w3.org/1999/xlink">
    <!-- Generator: Sketch 51.1 (57501) - http://www.bohemiancoding.com/sketch -->
    <title>icon-contact-patoenthome</title>
    <desc>Created with Sketch.</desc>
    <defs></defs>
    <g id="Symbols" stroke="none" stroke-width="1" fill="none" fill-rule="evenodd">
        <g id="side-bar-menu-patient-home" transform="translate(-18.000000, -394.000000)">
            <g id="CONTACT" transform="translate(0.000000, 382.000000)">
                <g transform="translate(14.000000, 12.000000)" id="icon-contact-patoenthome">
                    <g transform="translate(4.000000, 0.000000)">
                        <g id="Group" stroke-width="1" transform="translate(3.000000, 0.000000)">
                            <g id="Group-8">
                                <path d="M15.4543796,4.92779805 L15.4543796,2.6629562 C15.4543796,1.60225061 14.5945255,0.742153285 13.53382,0.742153285 L2.6386253,0.742153285 C1.57791971,0.742153285 0.717822384,1.60225061 0.717822384,2.6629562 L0.717822384,4.92779805 L10.2484185,4.92779805" id="Fill-1" fill="#00BCD4"></path>
                                <path d="M15.4543796,5.64586375 C15.05809,5.64586375 14.736618,5.32439173 14.736618,4.92804136 L14.736618,2.6629562 C14.736618,1.99981752 14.1969586,1.46015815 13.53382,1.46015815 L2.6386253,1.46015815 C1.97548662,1.46015815 1.43582725,1.99981752 1.43582725,2.6629562 L1.43582725,4.20997567 L10.2484185,4.20997567 C10.6450122,4.20997567 10.9662409,4.53150852 10.9662409,4.92779805 C10.9662409,5.32439173 10.6450122,5.64586375 10.2484185,5.64586375 L0.717822384,5.64586375 C0.321472019,5.64586375 0,5.32439173 0,4.92779805 L0,2.6629562 C0,1.20809002 1.18375912,0.0243309002 2.6386253,0.0243309002 L13.53382,0.0243309002 C14.9889294,0.0243309002 16.1724453,1.20809002 16.1724453,2.6629562 L16.1724453,4.92804136 C16.1724453,5.32439173 15.8509732,5.64586375 15.4543796,5.64586375 Z" id="Fill-3" fill="#000000"></path>
                                <path d="M0.717822384,19.7273723 L0.717822384,22.3006691 C0.717822384,23.3613139 1.57791971,24.2212287 2.6386253,24.2212287 L13.53382,24.2212287 C14.5947689,24.2212287 15.4546229,23.3613139 15.4546229,22.3006691 L15.4546229,19.7273723 L5.92402676,19.7273723" id="Fill-4" fill="#00BCD4"></path>
                                <path d="M13.53382,24.9392944 L2.6386253,24.9392944 C1.18375912,24.9392944 0,23.7555353 0,22.3006691 L0,19.727129 C0,19.3307786 0.321472019,19.0093066 0.717822384,19.0093066 C1.11435523,19.0093066 1.43582725,19.3307786 1.43582725,19.727129 L1.43582725,22.3006691 C1.43582725,22.9638078 1.97524331,23.5034063 2.6386253,23.5034063 L13.53382,23.5034063 C14.1969586,23.5034063 14.736618,22.9638078 14.736618,22.3006691 L14.736618,20.4451946 L5.92402676,20.4451946 C5.52743309,20.4451946 5.20596107,20.1237226 5.20596107,19.7273723 C5.20596107,19.3307786 5.52743309,19.0093066 5.92402676,19.0093066 L15.4543796,19.0093066 C15.8509732,19.0093066 16.1724453,19.3307786 16.1724453,19.7273723 L16.1724453,22.3006691 C16.1724453,23.7555353 14.9886861,24.9392944 13.53382,24.9392944 Z" id="Fill-5" fill="#000000"></path>
                                <path d="M9.22554745,22.6808394 L7.00608273,22.6808394 C6.60973236,22.6808394 6.28826034,22.3593066 6.28826034,21.963017 C6.28826034,21.5664234 6.60973236,21.2449513 7.00608273,21.2449513 L9.22554745,21.2449513 C9.62214112,21.2449513 9.94336983,21.5664234 9.94336983,21.963017 C9.94336983,22.3593066 9.62214112,22.6808394 9.22554745,22.6808394 Z" id="Fill-6" fill="#000000"></path>
                                <path d="M0.717822384,21.0537105 C0.321472019,21.0537105 0,20.7322384 0,20.3358881 L0,17.7180657 C0,17.321472 0.321472019,17 0.717822384,17 C1.11435523,17 1.43582725,17.321472 1.43582725,17.7180657 L1.43582725,20.3357056 C1.43582725,20.7322384 1.11435523,21.0537105 0.717822384,21.0537105 Z" id="Fill-7" fill="#000000"></path>
                                <path d="M0.717822384,7.05371046 C0.321472019,7.05371046 0,6.73223844 0,6.33588808 L0,3.71806569 C0,3.32147202 0.321472019,3 0.717822384,3 C1.11435523,3 1.43582725,3.32147202 1.43582725,3.71806569 L1.43582725,6.3357056 C1.43582725,6.73223844 1.11435523,7.05371046 0.717822384,7.05371046 Z" id="Fill-7-Copy" fill="#000000"></path>
                            </g>
                            <path d="M15.4543796,21.3065085 C15.05809,21.3065085 14.736618,20.9850365 14.736618,20.5886861 L14.736618,17.5074209 C14.736618,17.1108273 15.05809,16.7895985 15.4543796,16.7895985 C15.8509732,16.7895985 16.1724453,17.1110706 16.1724453,17.5074209 L16.1724453,20.5886861 C16.1724453,20.9852798 15.8509732,21.3065085 15.4543796,21.3065085 Z" id="Fill-9" fill="#000000"></path>
                            <path d="M15.4543796,9.01654501 C15.05809,9.01654501 14.736618,8.69507299 14.736618,8.29872263 L14.736618,4.15918491 C14.736618,3.76259124 15.05809,3.44111922 15.4543796,3.44111922 C15.8509732,3.44111922 16.1724453,3.76259124 16.1724453,4.15918491 L16.1724453,8.29872263 C16.1724453,8.69507299 15.8509732,9.01654501 15.4543796,9.01654501 Z" id="Fill-10" fill="#000000"></path>
                            <path d="M20.7202555,15.268674 L12.6223844,15.268674 C12.0675791,15.268674 11.6158759,14.8172141 11.6158759,14.2621655 L11.6158759,13.4854623 L9.35145985,12.3252433 C9.01100973,12.1505474 8.80139903,11.8043796 8.80425791,11.421837 C8.80711679,11.0392944 9.02189781,10.6964112 9.36502433,10.5270073 L11.6158759,9.41575426 L11.6158759,8.58716545 C11.6158759,8.0323601 12.0675791,7.58071776 12.6223844,7.58071776 L20.7202555,7.58071776 C21.2753041,7.58071776 21.726764,8.03211679 21.726764,8.58716545 L21.726764,14.2621655 C21.726764,14.8172141 21.2753041,15.268674 20.7202555,15.268674 Z M13.0517032,13.8328467 L20.2908759,13.8328467 L20.2908759,9.01654501 L13.0517032,9.01654501 L13.0517032,9.86173966 C13.0517032,10.1349757 12.8965937,10.3844282 12.6515815,10.5054136 L10.7659367,11.4365572 L12.6613139,12.4079075 C12.9010949,12.5305353 13.0517032,12.7773723 13.0517032,13.0465937 L13.0517032,13.8328467 Z" id="Fill-11" fill="#000000"></path>
                        </g>
                        <path d="M3.49942953,14.9651661 C3.29110067,14.9651661 3.0848255,14.8731124 2.94565772,14.6966158 C2.70477181,14.391099 2.75714094,13.9482265 3.06265772,13.707099 C3.1568255,13.6327433 3.24718792,13.5527701 3.33096644,13.4689916 C4.51165772,12.2883003 4.51165772,10.3672534 3.33096644,9.18656209 C3.05583221,8.91142786 3.05583221,8.46523323 3.33096644,8.1899178 C3.60604027,7.91478357 4.0522349,7.91478357 4.32736913,8.1899178 C6.05754362,9.92009229 6.05754362,12.7354614 4.32736913,14.4656359 C4.20469128,14.5883138 4.07277181,14.7053742 3.93547651,14.8136762 C3.80615436,14.9155755 3.65206711,14.9651661 3.49942953,14.9651661 Z" id="Fill-9" fill="#000000" transform="translate(4.209677, 11.474367) scale(-1, 1) translate(-4.209677, -11.474367) "></path>
                        <path d="M0.704957084,15.9537769 C0.504420172,15.9537769 0.30503091,15.8686091 0.165802722,15.7029849 C-0.0849892244,15.4054413 -0.0469959358,14.9608775 0.250789299,14.7100856 C0.34912487,14.6272735 0.443775876,14.5406561 0.531540977,14.4526493 C2.25464836,12.7297836 2.25464836,9.92601175 0.531540977,8.20290437 C0.256406749,7.92777014 0.256406749,7.48157551 0.531540977,7.20626008 C0.806675205,6.93112585 1.25280943,6.93136746 1.52794366,7.20626008 C3.80059467,9.47891108 3.80059467,13.1766426 1.52794366,15.4492936 C1.4118497,15.5653876 1.28754098,15.6793675 1.15870205,15.7881527 C1.02654098,15.8992936 0.865145004,15.9537769 0.704957084,15.9537769 Z" id="Fill-7" fill="#000000" transform="translate(1.616216, 11.476888) scale(-1, 1) translate(-1.616216, -11.476888) "></path>
                    </g>
                </g>
            </g>
        </g>
    </g>
</svg>