<?xml version="1.0" encoding="UTF-8"?>
<svg width="19px" preserveAspectRatio="none" height="25px" viewBox="0 0 19 25" version="1.1" xmlns="http://www.w3.org/2000/svg" xmlns:xlink="http://www.w3.org/1999/xlink">
    <!-- Generator: Sketch 51.1 (57501) - http://www.bohemiancoding.com/sketch -->
    <title>icon-records-patienthome</title>
    <desc>Created with Sketch.</desc>
    <defs></defs>
    <g id="Symbols" stroke="none" stroke-width="1" fill="none" fill-rule="evenodd">
        <g id="side-bar-menu-patient-home" transform="translate(-21.000000, -699.000000)">
            <g id="records" transform="translate(0.000000, 687.000000)">
                <g id="RECOIRDS" transform="translate(14.000000, 12.000000)">
                    <g id="icon-records-patienthome" transform="translate(4.000000, 0.000000)">
                        <g id="Group" transform="translate(3.000000, 0.000000)">
                            <path d="M9.41940389,4.58187348 C8.38753041,4.58187348 7.55115572,5.41824818 7.55115572,6.45018248 L7.55115572,7.91715328 L6.08412409,7.91715328 C5.05225061,7.91715328 4.21587591,8.75352798 4.21587591,9.78521898 C4.21587591,10.8171533 5.05225061,11.653528 6.08412409,11.653528 L7.55115572,11.653528 L7.55115572,13.1204988 C7.55115572,14.1524331 8.38753041,14.9888078 9.41940389,14.9888078 C10.4510949,14.9888078 11.2874696,14.1524331 11.2874696,13.1204988 L11.2874696,11.653528 L12.7545012,11.653528 C13.7863747,11.653528 14.6227494,10.8171533 14.6227494,9.78521898 C14.6227494,8.75352798 13.7863747,7.91715328 12.7545012,7.91715328 L11.2874696,7.91715328 L11.2874696,6.44993917 C11.2874696,5.41824818 10.4510949,4.58187348 9.41940389,4.58187348 Z" id="Fill-1" fill="#00BCD4"></path>
                            <path d="M9.41940389,15.6614355 C8.01824818,15.6614355 6.87822384,14.5216545 6.87822384,13.1204988 L6.87822384,12.3261557 L6.08412409,12.3261557 C4.68296837,12.3261557 3.54294404,11.1863747 3.54294404,9.78521898 C3.54294404,8.38406326 4.68296837,7.2439781 6.08412409,7.2439781 L6.87822384,7.2439781 L6.87822384,6.44993917 C6.87822384,5.04896594 8.01800487,3.90894161 9.41940389,3.90894161 C10.8206204,3.90894161 11.9604015,5.04878345 11.9604015,6.44993917 L11.9604015,7.24422141 L12.7545012,7.24422141 C14.1556569,7.24422141 15.2956813,8.38406326 15.2956813,9.78521898 C15.2956813,11.1863747 14.1556569,12.326399 12.7545012,12.326399 L11.9604015,12.326399 L11.9604015,13.1204988 C11.9604015,14.5216545 10.8203771,15.6614355 9.41940389,15.6614355 Z M6.08412409,8.58978102 C5.42506083,8.58978102 4.88874696,9.12609489 4.88874696,9.78521898 C4.88874696,10.4443431 5.42506083,10.9808394 6.08412409,10.9808394 L7.55115572,10.9808394 C7.92250608,10.9808394 8.22378345,11.2818735 8.22378345,11.653528 L8.22378345,13.1204988 C8.22378345,13.7796229 8.76009732,14.3158759 9.41922141,14.3158759 C10.0783455,14.3158759 10.6145985,13.7796229 10.6145985,13.1204988 L10.6145985,11.653528 C10.6145985,11.2818735 10.9158759,10.9808394 11.2874696,10.9808394 L12.7545012,10.9808394 C13.4136253,10.9808394 13.9498783,10.4443431 13.9498783,9.78521898 C13.9498783,9.12609489 13.4136253,8.58978102 12.7545012,8.58978102 L11.2874696,8.58978102 C10.9158759,8.58978102 10.6145985,8.28850365 10.6145985,7.91715328 L10.6145985,6.45018248 C10.6145985,5.79081509 10.0783455,5.25474453 9.41922141,5.25474453 C8.76009732,5.25474453 8.22378345,5.79105839 8.22378345,6.45018248 L8.22378345,7.91715328 C8.22378345,8.28850365 7.92250608,8.58978102 7.55115572,8.58978102 L6.08412409,8.58978102 Z" id="Fill-2" fill="#000000"></path>
                            <path d="M11.5172749,21.6004258 L15.3952555,21.6004258 L15.3952555,24.0796229 C15.3952555,24.2126521 15.233455,24.3027372 15.0863747,24.2518856 L13.54191,23.7158151 C13.4870438,23.696837 13.4254866,23.696837 13.3705596,23.7158151 L11.8261557,24.2518856 C11.6790754,24.3029805 11.5172749,24.2126521 11.5172749,24.0796229 L11.5172749,21.6004258 Z" id="Fill-3" fill="#00BCD4"></path>
                            <g id="Group-7" fill="#000000">
                                <path d="M15.1721411,24.9392944 C15.0675791,24.9392944 14.9647202,24.9216545 14.8658759,24.8874696 L13.4561436,24.398236 L12.0466545,24.8874696 C11.9478102,24.9216545 11.844708,24.9392944 11.740146,24.9392944 C11.2464112,24.9392944 10.8443431,24.5536496 10.8443431,24.0798662 L10.8443431,21.6004258 C10.8443431,21.2290146 11.1456204,20.9277372 11.5172749,20.9277372 L15.3952555,20.9277372 C15.7666058,20.9277372 16.0678832,21.2290146 16.0678832,21.6004258 L16.0678832,24.0798662 C16.0678832,24.5536496 15.6661192,24.9390511 15.1721411,24.9392944 Z M13.4561436,23.0288929 C13.5608881,23.0288929 13.6638078,23.0460462 13.7619221,23.0802311 L14.7223236,23.413382 L14.7223236,22.2732968 L12.1899027,22.2732968 L12.1899027,23.413382 L13.1498783,23.0802311 C13.2484793,23.0460462 13.3515815,23.0288929 13.4561436,23.0288929 Z" id="Fill-4"></path>
                                <path d="M16.6856448,22.2270073 L3.02755474,22.2270073 C1.35815085,22.2270073 0,20.8688564 0,19.1993917 L0,3.05188564 C0,1.38248175 1.35815085,0.0243309002 3.02755474,0.0243309002 L16.6856448,0.0243309002 C17.8727494,0.0243309002 18.8386253,0.990206813 18.8386253,2.17731144 L18.8386253,14.4332725 C18.8386253,14.8046229 18.5373479,15.1059002 18.1657543,15.1059002 C17.7943431,15.1059002 17.4930657,14.8046229 17.4930657,14.4332725 L17.4930657,2.17731144 C17.4930657,1.73199513 17.1309611,1.36989051 16.6856448,1.36989051 L3.02755474,1.36989051 C2.10018248,1.36989051 1.34555961,2.12451338 1.34555961,3.05188564 L1.34555961,19.1993917 C1.34555961,20.126764 2.10018248,20.8814477 3.02755474,20.8814477 L16.6856448,20.8814477 C17.1309611,20.8814477 17.4930657,20.5192822 17.4930657,20.0740268 L17.4930657,17.8645377 C17.4930657,17.4931265 17.7940998,17.1918491 18.1657543,17.1918491 C18.5373479,17.1918491 18.8386253,17.4931265 18.8386253,17.8645377 L18.8386253,20.0740268 C18.8386253,21.2611314 17.8727494,22.2270073 16.6856448,22.2270073 Z" id="Fill-6"></path>
                            </g>
                            <path d="M12.9378954,17.9956813 L5.90072993,17.9956813 C5.52907543,17.9956813 5.22804136,17.6944039 5.22804136,17.3230535 C5.22804136,16.951399 5.52907543,16.6501217 5.90072993,16.6501217 L12.9378954,16.6501217 C13.3095499,16.6501217 13.6108273,16.951399 13.6108273,17.3230535 C13.6108273,17.6944039 13.3095499,17.9956813 12.9378954,17.9956813 Z" id="Fill-8" fill="#000000"></path>
                        </g>
                    </g>
                </g>
            </g>
        </g>
    </g>
</svg>