<?xml version="1.0" encoding="UTF-8"?>
<svg width="25px" preserveAspectRatio="none" height="23px" viewBox="0 0 25 23" version="1.1" xmlns="http://www.w3.org/2000/svg" xmlns:xlink="http://www.w3.org/1999/xlink">
    <!-- Generator: Sketch 51.1 (57501) - http://www.bohemiancoding.com/sketch -->
    <title>icon-meds-patient home</title>
    <desc>Created with Sketch.</desc>
    <defs></defs>
    <g id="Symbols" stroke="none" stroke-width="1" fill="none" fill-rule="evenodd">
        <g id="side-bar-menu-patient-home" transform="translate(-18.000000, -151.000000)">
            <g id="meds" transform="translate(0.000000, 138.000000)">
                <g id="Group" transform="translate(18.000000, 12.000000)">
                    <g id="icon-meds-patient-home">
                        <g id="Group" transform="translate(0.000000, 1.000000)">
                            <g id="Group-5">
                                <path d="M11.2159668,9.25595703 L3.63579102,12.5067383 L1.05654297,6.49248047 C0.158886719,4.39931641 1.12802734,1.9746582 3.22128906,1.07700195 C5.31450195,0.179345703 7.73911133,1.14848633 8.63681641,3.24174805 L11.2159668,9.25595703" id="Fill-1" fill="#00BCD4"></path>
                                <path d="M4.84467773,1.46484375 C4.38413086,1.46484375 3.93374023,1.55786133 3.50615234,1.74121094 C1.78251953,2.48037109 0.981591797,4.4840332 1.72075195,6.20756836 L4.01508789,11.5576172 L10.2668457,8.87661133 L7.97250977,3.5265625 C7.43540039,2.27412109 6.20766602,1.46484375 4.84467773,1.46484375 Z M3.63608398,13.2296387 C3.35571289,13.2296387 3.08901367,13.0655273 2.9715332,12.7915527 L0.392285156,6.77734375 C-0.661035156,4.32119141 0.480322266,1.46606445 2.93637695,0.412695312 C3.54511719,0.151660156 4.18710938,0.0193359375 4.84462891,0.0193359375 C6.78647461,0.0193359375 8.53569336,1.17231445 9.30092773,2.95683594 L11.8801758,8.97114258 C12.0375488,9.33798828 11.8676758,9.76293945 11.5008301,9.92026367 L3.9206543,13.1709473 C3.8277832,13.2108398 3.73115234,13.2296387 3.63608398,13.2296387 Z" id="Fill-3" fill="#000000"></path>
                                <path d="M21.3639648,13.2296387 C21.2689941,13.2296387 21.1723633,13.210791 21.0793945,13.1709473 L19.0906738,12.3181152 C18.7237793,12.1607422 18.5539551,11.7358398 18.7112793,11.3689453 C18.8685547,11.0021484 19.2934082,10.8321777 19.6604004,10.9895996 L20.9848633,11.5575195 L23.2791992,6.20751953 C24.0183594,4.48388672 23.2174805,2.48032227 21.4938477,1.74116211 C20.6588867,1.38310547 19.7345703,1.37167969 18.8908691,1.70883789 C18.0472656,2.04609375 17.3855469,2.69160156 17.0274902,3.52651367 L14.7331543,8.87651367 L16.4947266,9.63193359 C16.8615234,9.78920898 17.0314453,10.214209 16.8741211,10.5811035 C16.7168457,10.9479004 16.2918945,11.1177246 15.9249512,10.9604492 L13.4991699,9.92021484 C13.3229492,9.84467773 13.1841309,9.70219727 13.1129395,9.52416992 C13.041748,9.34619141 13.0441895,9.1472168 13.1197754,8.97104492 L15.6990234,2.95673828 C16.2093262,1.76694336 17.1522949,0.847070312 18.3543945,0.366601562 C19.556543,-0.113916016 20.8737305,-0.0976074219 22.0635742,0.412695312 C24.5196777,1.46606445 25.6609863,4.32119141 24.6077148,6.77734375 L22.0284668,12.7915527 C21.9110352,13.0655762 21.6443359,13.2296387 21.3639648,13.2296387" id="Fill-4" fill="#000000"></path>
                            </g>
                            <path d="M12.5000488,22.7539062 C11.2340332,22.7539062 10.2041016,21.7239746 10.2041016,20.457959 C10.2041016,19.1919922 11.2340332,18.1620605 12.5000488,18.1620605 C13.7660156,18.1620605 14.7959473,19.1919922 14.7959473,20.457959 C14.7959473,20.8571289 14.4723145,21.1807129 14.0731934,21.1807129 C13.6740723,21.1807129 13.3504395,20.8571289 13.3504395,20.457959 C13.3504395,19.9890625 12.9689453,19.6075684 12.5000488,19.6075684 C12.0311035,19.6075684 11.6496094,19.9890625 11.6496094,20.457959 C11.6496094,20.9269043 12.0311035,21.3083496 12.5000488,21.3083496 C12.8991211,21.3083496 13.2228027,21.6319336 13.2228027,22.0311523 C13.2228027,22.4303223 12.8991211,22.7539062 12.5000488,22.7539062" id="Fill-6" fill="#000000"></path>
                            <path d="M15.8566895,13.2263672 C16.7254883,13.2263672 17.429834,13.9307129 17.429834,14.7995605 C17.429834,15.6683594 16.7254883,16.3727051 15.8566895,16.3727051 C14.9878418,16.3727051 14.2834961,15.6683594 14.2834961,14.7995605 C14.2834961,13.9307129 14.9878418,13.2263672 15.8566895,13.2263672" id="Fill-7" fill="#00BCD4"></path>
                            <path d="M15.8568359,13.948877 C15.3879395,13.948877 15.0063965,14.3303223 15.0063965,14.7992676 C15.0063965,15.2682129 15.3878906,15.6496582 15.8568359,15.6496582 C16.3257324,15.6496582 16.7072266,15.2682129 16.7072266,14.7992676 C16.7072266,14.3303223 16.3257324,13.948877 15.8568359,13.948877 Z M15.8568359,17.0951172 C14.5908203,17.0951172 13.5608887,16.0651855 13.5608887,14.7991699 C13.5608887,13.5332031 14.5908203,12.5032715 15.8568359,12.5032715 C17.1228027,12.5032715 18.1527344,13.5332031 18.1527344,14.7991699 C18.1527344,16.0651855 17.1228027,17.0951172 15.8568359,17.0951172 Z" id="Fill-8" fill="#000000"></path>
                            <path d="M9.14321289,17.0951172 C7.87724609,17.0951172 6.84731445,16.0651855 6.84731445,14.7991699 C6.84731445,13.5332031 7.87724609,12.5032715 9.14321289,12.5032715 C10.4092285,12.5032715 11.4391602,13.5332031 11.4391602,14.7991699 C11.4391602,15.1983887 11.1155273,15.5219727 10.7164063,15.5219727 C10.3172852,15.5219727 9.99365234,15.1983887 9.99365234,14.7991699 C9.99365234,14.3302734 9.6121582,13.9487793 9.14321289,13.9487793 C8.67436523,13.9487793 8.29282227,14.3302734 8.29282227,14.7991699 C8.29282227,15.2681152 8.67431641,15.6496094 9.14321289,15.6496094 C9.54233398,15.6496094 9.86601563,15.9731934 9.86601563,16.3723633 C9.86601563,16.7715332 9.54233398,17.0951172 9.14321289,17.0951172" id="Fill-9" fill="#000000"></path>
                        </g>
                    </g>
                </g>
            </g>
        </g>
    </g>
</svg>