<?xml version="1.0" encoding="UTF-8"?>
<svg width="25px" preserveAspectRatio="none" height="25px" viewBox="0 0 25 25" version="1.1" xmlns="http://www.w3.org/2000/svg" xmlns:xlink="http://www.w3.org/1999/xlink">
    <!-- Generator: Sketch 51.1 (57501) - http://www.bohemiancoding.com/sketch -->
    <title>icon-allergies-patienthome</title>
    <desc>Created with Sketch.</desc>
    <defs></defs>
    <g id="Symbols" stroke="none" stroke-width="1" fill="none" fill-rule="evenodd">
        <g id="side-bar-menu-patient-home" transform="translate(-18.000000, -211.000000)">
            <g id="allergies" transform="translate(0.000000, 199.000000)">
                <g id="Group-2" transform="translate(13.000000, 12.000000)">
                    <g id="icon-allergies-patienthome" transform="translate(5.000000, 0.000000)">
                        <g id="Group">
                            <path d="M18.364878,24.7551829 C17.9630488,24.7551829 17.5612195,24.6515244 17.2029878,24.4448171 L12.9160976,21.9698171 C12.1993902,21.5560976 11.7542683,20.7848171 11.7542683,19.9571341 L11.7542683,15.0071341 C11.7542683,14.1796951 12.1993902,13.4084756 12.9160976,12.9946951 L17.2029878,10.5197561 C17.9196951,10.1059756 18.8102439,10.1059756 19.5269512,10.5197561 L23.8135976,12.9946951 C24.5303049,13.4087195 24.9757317,14.1796951 24.9757317,15.0071341 L24.9757317,15.4365854 C24.9757317,15.8417683 24.6470122,16.1702439 24.2420732,16.1702439 C23.8369512,16.1702439 23.5084756,15.8417683 23.5084756,15.4365854 L23.5084756,15.0071341 C23.5084756,14.7022561 23.3443902,14.4178659 23.08,14.2651829 L18.7933537,11.7902439 C18.5289634,11.637561 18.2007317,11.637561 17.9365854,11.7902439 L13.6496951,14.2651829 C13.3855488,14.4178659 13.2214634,14.7020122 13.2214634,15.0071341 L13.2214634,19.9571341 C13.2214634,20.2625 13.3855488,20.5466463 13.6496951,20.6993293 L17.9365854,23.1743293 C18.2009756,23.3267683 18.5289634,23.3267683 18.7933537,23.1743293 L23.08,20.6993293 C23.3443902,20.5466463 23.5084756,20.2625 23.5084756,19.957378 L23.5084756,19.2756707 C23.5084756,18.8707927 23.8369512,18.5423171 24.2420732,18.5423171 C24.6470122,18.5423171 24.9757317,18.8705488 24.9757317,19.2756707 L24.9757317,19.957378 C24.9757317,20.7848171 24.5303049,21.5560976 23.8135976,21.9698171 L19.5269512,24.4448171 C19.1684756,24.6515244 18.7666463,24.7551829 18.364878,24.7551829 Z" id="Fill-1" fill="#000000"></path>
                            <g id="Group-5" transform="translate(0.000000, 10.182927)">
                                <path d="M11.692561,3.4470122 L7.40591463,0.972073171 C6.91384146,0.688109756 6.30762195,0.688109756 5.81554878,0.972073171 L1.52865854,3.4470122 C1.03682927,3.73121951 0.733597561,4.25615854 0.733597561,4.82420732 L0.733597561,9.77420732 C0.733597561,10.3425 1.03658537,10.8675 1.52865854,11.1516463 L5.81554878,13.6266463 C6.30737805,13.9107927 6.91384146,13.9107927 7.40591463,13.6266463 L11.692561,11.1516463 C12.1846341,10.8675 12.4878659,10.3425 12.4878659,9.77420732 L12.4878659,4.82420732 C12.4878659,4.25615854 12.1846341,3.73121951 11.692561,3.4470122 Z M8.45323171,8.12384146 C8.45323171,8.27195122 8.37414634,8.40890244 8.24597561,8.4829878 L6.81829268,9.30737805 C6.68969512,9.38146341 6.53176829,9.38146341 6.40341463,9.30737805 L4.9754878,8.4827439 C4.84707317,8.40871951 4.7679878,8.27170732 4.7679878,8.12359756 L4.7679878,6.47487805 C4.7679878,6.32670732 4.84707317,6.1897561 4.9754878,6.11567073 L6.40317073,5.29134146 C6.53152439,5.2172561 6.68969512,5.2172561 6.81804878,5.29134146 L8.24597561,6.11567073 C8.37439024,6.1897561 8.45323171,6.32670732 8.45323171,6.47487805 L8.45323171,8.12384146 Z" id="Fill-2" fill="#00BCD4"></path>
                                <path d="M6.61060976,14.5731707 C6.20329268,14.5731707 5.80152439,14.4655488 5.44871951,14.2618902 L1.16213415,11.7868902 C0.445182927,11.3729268 0,10.6018902 0,9.77445122 L0,4.82445122 C0,3.99676829 0.445182927,3.22579268 1.16213415,2.81176829 L5.44871951,0.336829268 C5.80152439,0.133170732 6.20329268,0.0254878049 6.61060976,0.0254878049 C7.01817073,0.0254878049 7.4197561,0.133170732 7.7727439,0.336829268 L12.0593293,2.81176829 C12.7760366,3.22579268 13.2214634,3.99676829 13.2214634,4.82445122 L13.2214634,9.77445122 C13.2214634,10.6018902 12.7762805,11.3729268 12.0595732,11.7868902 L7.7727439,14.2618902 C7.42,14.4655488 7.01817073,14.5731707 6.61060976,14.5731707 Z M6.61060976,1.4925 C6.46054878,1.4925 6.31237805,1.5322561 6.18237805,1.60731707 L1.8954878,4.0822561 C1.63134146,4.23493902 1.46719512,4.51908537 1.46719512,4.82420732 L1.46719512,9.77420732 C1.46719512,10.0793293 1.63134146,10.3637195 1.8954878,10.5164024 L6.18237805,12.9914024 C6.44243902,13.1414634 6.77878049,13.1414634 7.03908537,12.9914024 L11.3257317,10.5164024 C11.590122,10.3637195 11.7542683,10.0795732 11.7542683,9.77420732 L11.7542683,4.82420732 C11.7542683,4.51908537 11.590122,4.23493902 11.3257317,4.0822561 L7.03908537,1.6075 C6.90908537,1.5322561 6.76091463,1.4925 6.61060976,1.4925 Z M6.61060976,10.0964634 C6.40932927,10.0964634 6.21067073,10.0431098 6.03634146,9.94237805 L4.60865854,9.11823171 C4.25445122,8.91365854 4.03439024,8.53256098 4.03439024,8.12384146 L4.03439024,6.47512195 C4.03439024,6.06615854 4.25445122,5.6852439 4.60841463,5.48067073 L6.03658537,4.65628049 C6.38481707,4.45506098 6.83615854,4.45481707 7.18487805,4.65628049 L8.61256098,5.48042683 C8.96676829,5.68506098 9.18682927,6.06591463 9.18682927,6.47512195 L9.18682927,8.12384146 C9.18682927,8.53280488 8.96676829,8.91365854 8.61280488,9.11823171 L7.18487805,9.94262195 C7.01054878,10.0433537 6.81189024,10.0964634 6.61060976,10.0964634 Z M5.50164634,7.93969512 L6.61060976,8.57993902 L7.71981707,7.93969512 L7.71981707,6.65896341 L6.61060976,6.01871951 L5.50164634,6.65896341 L5.50164634,7.93969512 Z" id="Fill-4" fill="#000000"></path>
                            </g>
                            <path d="M17.5698171,3.47487805 L13.2829268,0.999939024 C12.7908537,0.71597561 12.1846341,0.71597561 11.692561,0.999939024 L7.40591463,3.47487805 C6.91384146,3.75908537 6.61060976,4.28402439 6.61060976,4.85231707 L6.61060976,9.80231707 C6.61060976,10.3703659 6.91384146,10.8953659 7.40591463,11.1795122 L11.6928049,13.6545122 C12.1846341,13.9386585 12.7910366,13.9386585 13.2829268,13.6545122 L17.5698171,11.1795122 C18.0618902,10.8953659 18.365122,10.3703659 18.365122,9.80231707 L18.365122,4.85231707 C18.364878,4.28402439 18.0618902,3.75908537 17.5698171,3.47487805 Z M14.3304878,8.15170732 C14.3304878,8.29981707 14.2514024,8.43676829 14.1229878,8.51085366 L12.6953049,9.3352439 C12.5669512,9.40932927 12.4087805,9.40932927 12.2803659,9.3352439 L10.852439,8.51060976 C10.7240854,8.43658537 10.645,8.29957317 10.645,8.15146341 L10.645,6.5029878 C10.645,6.35457317 10.7240854,6.21786585 10.852439,6.14353659 L12.2803659,5.31939024 C12.4087805,5.24512195 12.5667073,5.24512195 12.695061,5.31939024 L14.1229878,6.14353659 C14.2514024,6.21786585 14.3304878,6.35457317 14.3304878,6.5029878 L14.3304878,8.15170732 Z" id="Fill-6" fill="#00BCD4"></path>
                            <path d="M12.4878659,14.6010366 C12.0803049,14.6010366 11.6787195,14.4934146 11.3257317,14.2897561 L7.03908537,11.815 C6.32243902,11.4010366 5.8772561,10.63 5.8772561,9.80231707 L5.8772561,4.85231707 C5.8772561,4.02487805 6.32243902,3.25365854 7.03908537,2.83987805 L11.3257317,0.364695122 C11.6787195,0.161036585 12.0803049,0.0533536585 12.4878659,0.0533536585 C12.895122,0.0533536585 13.2969512,0.161036585 13.6496951,0.364695122 L17.9365854,2.83969512 C18.6532927,3.25341463 19.0984756,4.02439024 19.0984756,4.85207317 L19.0984756,9.80207317 C19.0984756,10.6297561 18.6532927,11.4007927 17.9365854,11.8147561 L13.6496951,14.2895122 C13.2969512,14.4934146 12.895122,14.6010366 12.4878659,14.6010366 Z M12.4878659,1.52036585 C12.337561,1.52036585 12.1896341,1.56012195 12.0595732,1.63518293 L7.7727439,4.11012195 C7.50835366,4.26280488 7.34420732,4.54719512 7.34420732,4.85207317 L7.34420732,9.80207317 C7.34420732,10.1071951 7.50835366,10.3915854 7.7727439,10.5442683 L12.0593293,13.0192683 C12.3196951,13.1693293 12.6560366,13.1693293 12.9160976,13.0192683 L17.2029878,10.5442683 C17.4671341,10.3915854 17.6314634,10.107439 17.6314634,9.80207317 L17.6314634,4.85207317 C17.6314634,4.5470122 17.4671341,4.26280488 17.2029878,4.11012195 L12.9160976,1.63518293 C12.7860366,1.56012195 12.6381707,1.52036585 12.4878659,1.52036585 Z M12.4878659,10.1243293 C12.2865854,10.1243293 12.0881707,10.0712195 11.9138415,9.9704878 L10.4856707,9.14609756 C10.1314634,8.94152439 9.91164634,8.56042683 9.91164634,8.15170732 L9.91164634,6.5029878 C9.91164634,6.09402439 10.1314634,5.71317073 10.4856707,5.50853659 L11.9135976,4.68420732 C12.2620732,4.48292683 12.7134146,4.48268293 13.0621341,4.68420732 L14.4898171,5.50829268 C14.8439634,5.71317073 15.0638415,6.09402439 15.0638415,6.5029878 L15.0638415,8.15170732 C15.0638415,8.56067073 14.8439634,8.94176829 14.4898171,9.14609756 L13.0618902,9.9704878 C12.8877439,10.0712195 12.6891463,10.1243293 12.4878659,10.1243293 Z M11.3785976,7.96756098 L12.4878659,8.60804878 L13.5968293,7.96756098 L13.5968293,6.68682927 L12.4878659,6.04658537 L11.3785976,6.68682927 L11.3785976,7.96756098 Z" id="Fill-7" fill="#000000"></path>
                        </g>
                    </g>
                </g>
            </g>
        </g>
    </g>
</svg>