<?xml version="1.0" encoding="UTF-8"?>
<svg width="22px" preserveAspectRatio="none" height="24px" viewBox="0 0 22 24" version="1.1" xmlns="http://www.w3.org/2000/svg" xmlns:xlink="http://www.w3.org/1999/xlink">
    <!-- Generator: Sketch 51.1 (57501) - http://www.bohemiancoding.com/sketch -->
    <title>icon-labs-patienthome</title>
    <desc>Created with Sketch.</desc>
    <defs></defs>
    <g id="Symbols" stroke="none" stroke-width="1" fill="none" fill-rule="evenodd">
        <g id="side-bar-menu-patient-home" transform="translate(-20.000000, -272.000000)">
            <g id="labs" transform="translate(0.000000, 260.000000)">
                <g id="Group-3" transform="translate(18.000000, 12.000000)">
                    <g id="icon-labs-patienthome">
                        <g id="Group" transform="translate(2.000000, 0.000000)">
                            <polygon id="Fill-1" fill="#41CBC7" points="2.71101562 6.52828125 8.09545313 6.52828125 8.09545313 0.716671875 2.71101562 0.716671875"></polygon>
                            <path d="M3.4275,5.811375 L7.37835937,5.811375 L7.37835937,1.43339062 L3.4275,1.43339062 L3.4275,5.811375 Z M8.09503125,7.24476563 L2.71078125,7.24476563 C2.3150625,7.24476563 1.99410938,6.92390625 1.99410938,6.52809375 L1.99410938,0.716671875 C1.99410938,0.320859375 2.3150625,0 2.71078125,0 L8.09503125,0 C8.49079688,0 8.81170313,0.320859375 8.81170313,0.716671875 L8.81170313,6.52809375 C8.81170313,6.92390625 8.49079688,7.24476563 8.09503125,7.24476563 Z" id="Fill-2" fill="#000000"></path>
                            <g id="Group-6" transform="translate(0.000000, 2.953125)" fill="#000000">
                                <path d="M5.40285938,21.046875 C3.19040625,21.046875 1.39035938,19.2468281 1.39035938,17.034375 L1.39035938,0.816328125 C1.39035938,0.420515625 1.7113125,0.09965625 2.10707813,0.09965625 L8.69878125,0.09965625 C9.0945,0.09965625 9.41545312,0.420515625 9.41545312,0.816328125 L9.41545312,13.8080156 C9.41545312,14.2038281 9.0945,14.5246875 8.69878125,14.5246875 C8.30301563,14.5246875 7.9820625,14.2038281 7.9820625,13.8080156 L7.9820625,1.53304687 L2.82375,1.53304687 L2.82375,17.034375 C2.82375,18.4564687 3.98076563,19.6134844 5.40285938,19.6134844 C6.825,19.6134844 7.98201563,18.4564687 7.98201563,17.034375 C7.98201563,16.6385625 8.30292187,16.3177031 8.6986875,16.3177031 C9.09445313,16.3177031 9.41535938,16.6385625 9.41535938,17.034375 C9.41545312,19.2468281 7.61540625,21.046875 5.40285938,21.046875" id="Fill-3"></path>
                                <path d="M11.4249844,1.4413125 L0.716671875,1.4413125 C0.320953125,1.4413125 0,1.12045312 0,0.72459375 C0,0.32878125 0.320953125,0.007921875 0.716671875,0.007921875 L11.4249844,0.007921875 C11.8207031,0.007921875 12.1416563,0.32878125 12.1416563,0.72459375 C12.1416563,1.12045312 11.8207031,1.4413125 11.4249844,1.4413125" id="Fill-5"></path>
                            </g>
                            <polygon id="Fill-7" fill="#41CBC7" points="13.419 6.52828125 18.8034375 6.52828125 18.8034375 0.716671875 13.419 0.716671875"></polygon>
                            <path d="M14.1357656,5.811375 L18.086625,5.811375 L18.086625,1.43339062 L14.1357656,1.43339062 L14.1357656,5.811375 Z M18.8032969,7.24476563 L13.4190938,7.24476563 C13.0233281,7.24476563 12.702375,6.92390625 12.702375,6.52809375 L12.702375,0.716671875 C12.702375,0.320859375 13.0233281,0 13.4190938,0 L18.8032969,0 C19.1990625,0 19.5200156,0.320859375 19.5200156,0.716671875 L19.5200156,6.52809375 C19.5200156,6.92390625 19.1990625,7.24476563 18.8032969,7.24476563 Z" id="Fill-8" fill="#000000"></path>
                            <path d="M16.1112187,24 C13.8987656,24 12.0987187,22.1999531 12.0987187,19.9875 L12.0987187,3.76945312 C12.0987187,3.37364063 12.4196719,3.05278125 12.8153906,3.05278125 L19.4071406,3.05278125 C19.8028594,3.05278125 20.1238125,3.37364063 20.1238125,3.76945312 L20.1238125,16.7611406 C20.1238125,17.1569531 19.8028594,17.4778125 19.4071406,17.4778125 C19.011375,17.4778125 18.6904219,17.1569531 18.6904219,16.7611406 L18.6904219,4.48617187 L13.5321094,4.48617187 L13.5321094,19.9875 C13.5321094,21.4095937 14.689125,22.5666094 16.1112187,22.5666094 C17.5333594,22.5666094 18.690375,21.4095937 18.690375,19.9875 C18.690375,19.5916875 19.0112812,19.2708281 19.4070469,19.2708281 C19.8028125,19.2708281 20.1237188,19.5916875 20.1237188,19.9875 C20.1237188,22.1999531 18.3237188,24 16.1112187,24" id="Fill-9" fill="#000000"></path>
                            <path d="M20.7974063,4.3944375 L11.4249844,4.3944375 C11.0292187,4.3944375 10.7082656,4.07357812 10.7082656,3.67771875 C10.7082656,3.28190625 11.0292187,2.96104687 11.4249844,2.96104687 L20.7974063,2.96104687 C21.1931719,2.96104687 21.514125,3.28190625 21.514125,3.67771875 C21.514125,4.07357812 21.1932656,4.3944375 20.7974063,4.3944375" id="Fill-10" fill="#000000"></path>
                        </g>
                    </g>
                </g>
            </g>
        </g>
    </g>
</svg>