<?xml version="1.0" encoding="UTF-8"?>
<svg width="25px" preserveAspectRatio="none" height="25px" viewBox="0 0 25 25" version="1.1" xmlns="http://www.w3.org/2000/svg" xmlns:xlink="http://www.w3.org/1999/xlink">
    <!-- Generator: Sketch 51.1 (57501) - http://www.bohemiancoding.com/sketch -->
    <title>icon-Adherence-patienthome</title>
    <desc>Created with Sketch.</desc>
    <defs></defs>
    <g id="Symbols" stroke="none" stroke-width="1" fill="none" fill-rule="evenodd">
        <g id="side-bar-menu-patient-home" transform="translate(-18.000000, -638.000000)">
            <g id="adherence" transform="translate(0.000000, 626.000000)">
                <g transform="translate(8.000000, 12.000000)" id="icon-Adherence-patienthome">
                    <g transform="translate(10.000000, 0.000000)">
                        <path d="M14.1710976,17.7267073 L10.8045732,17.7267073 C10.4278049,17.7267073 10.122439,17.4213415 10.122439,17.0445122 L10.122439,13.3402439 C10.122439,12.9634756 10.4278049,12.6581098 10.8045732,12.6581098 C11.1814024,12.6581098 11.4867683,12.9634756 11.4867683,13.3402439 L11.4867683,16.362378 L13.4889634,16.362378 L13.4889634,9.83865854 C13.4889634,9.28658537 13.0397561,8.83756098 12.4878659,8.83756098 C11.9357317,8.83756098 11.4867683,9.28658537 11.4867683,9.83865854 L11.4867683,10.4956098 C11.4867683,10.872439 11.1814024,11.1777439 10.8045732,11.1777439 C10.4278049,11.1777439 10.122439,10.872439 10.122439,10.4956098 L10.122439,9.83865854 C10.122439,8.53414634 11.1835366,7.47304878 12.4878659,7.47304878 C13.7921341,7.47304878 14.8532927,8.53414634 14.8532927,9.83865854 L14.8532927,17.0445122 C14.8532927,17.4213415 14.5479268,17.7267073 14.1710976,17.7267073 Z" id="Fill-1" fill="#000000"></path>
                        <path d="M16.4088415,17.0445122 L16.4088415,7.27914634 C16.4088415,6.3495122 17.1625,5.59560976 18.0921341,5.59560976 C19.0217683,5.59560976 19.7753659,6.3495122 19.7753659,7.27914634 L19.7753659,17.0445122 L16.4088415,17.0445122 Z" id="Fill-2" fill="#00BCD4"></path>
                        <path d="M19.7753659,17.7267073 L16.4086585,17.7267073 C16.0320732,17.7267073 15.7264634,17.4213415 15.7264634,17.0445122 L15.7264634,7.27914634 C15.7264634,5.97457317 16.787561,4.91347561 18.0921341,4.91347561 C19.3964634,4.91347561 20.457561,5.97481707 20.457561,7.27914634 L20.457561,17.0445122 C20.457561,17.4213415 20.1521951,17.7267073 19.7753659,17.7267073 Z M17.0910366,16.362378 L19.0932317,16.362378 L19.0932317,7.27914634 C19.0932317,6.7270122 18.6440244,6.27804878 18.0921341,6.27804878 C17.54,6.27804878 17.0910366,6.7270122 17.0910366,7.27914634 L17.0910366,16.362378 Z" id="Fill-3" fill="#000000"></path>
                        <path d="M5.20030488,17.0445122 L5.20030488,12.6564024 C5.20030488,11.7267683 5.95396341,10.9731707 6.88359756,10.9731707 C7.81323171,10.9731707 8.56682927,11.7267683 8.56682927,12.6564024 L8.56682927,17.0445122 L5.20030488,17.0445122 Z" id="Fill-4" fill="#00BCD4"></path>
                        <path d="M8.56682927,17.7267073 L5.20030488,17.7267073 C4.82347561,17.7267073 4.51817073,17.4213415 4.51817073,17.0445122 L4.51817073,12.6564024 C4.51817073,11.3521341 5.57926829,10.2907317 6.88359756,10.2907317 C8.18786585,10.2907317 9.24902439,11.3521341 9.24902439,12.6564024 L9.24902439,17.0445122 C9.24902439,17.4213415 8.94365854,17.7267073 8.56682927,17.7267073 Z M5.8825,16.362378 L7.88469512,16.362378 L7.88469512,12.6564024 C7.88469512,12.1043293 7.43567073,11.6553049 6.88359756,11.6553049 C6.33170732,11.6553049 5.8825,12.1043293 5.8825,12.6564024 L5.8825,16.362378 Z" id="Fill-5" fill="#000000"></path>
                        <path d="M22.7541463,18.655 L2.22158537,18.655 C1.8447561,18.655 1.53939024,18.3496341 1.53939024,17.9728049 L1.53939024,0.683414634 C1.53939024,0.306646341 1.8447561,0.0012804878 2.22158537,0.0012804878 L22.7541463,0.0012804878 C23.1307317,0.0012804878 23.4362805,0.306646341 23.4362805,0.683414634 L23.4362805,17.9728049 C23.4362805,18.3496341 23.1307317,18.655 22.7541463,18.655 Z M2.90371951,17.2906707 L22.0717683,17.2906707 L22.0717683,1.36560976 L2.90371951,1.36560976 L2.90371951,17.2906707 Z" id="Fill-6" fill="#000000"></path>
                        <path d="M24.2932927,1.36560976 L0.682195122,1.36560976 C0.305365854,1.36560976 0,1.0602439 0,0.683414634 C0,0.306646341 0.305365854,0.0012804878 0.682195122,0.0012804878 L24.2932927,0.0012804878 C24.670122,0.0012804878 24.9754878,0.306646341 24.9754878,0.683414634 C24.9754878,1.0602439 24.670122,1.36560976 24.2932927,1.36560976 Z" id="Fill-8" fill="#000000"></path>
                        <path d="M24.2932927,18.765061 L0.682195122,18.765061 C0.305365854,18.765061 0,18.4596951 0,18.0828659 C0,17.7060366 0.305365854,17.4007317 0.682195122,17.4007317 L24.2932927,17.4007317 C24.670122,17.4007317 24.9754878,17.7060366 24.9754878,18.0828659 C24.9754878,18.4596951 24.670122,18.765061 24.2932927,18.765061 Z" id="Fill-9" fill="#000000"></path>
                        <polygon id="Fill-11" fill="#000000" points="11.8059146 21.3669512 13.1702439 21.3669512 13.1702439 17.9728049 11.8059146 17.9728049"></polygon>
                        <path d="M13.9205488,22.3245122 C13.9205488,23.1157317 13.2790854,23.7571951 12.4878659,23.7571951 C11.6965854,23.7571951 11.0551829,23.1157317 11.0551829,22.3245122 C11.0551829,21.5332317 11.6965854,20.8918293 12.4878659,20.8918293 C13.2790854,20.8918293 13.9205488,21.5332317 13.9205488,22.3245122 Z" id="Fill-12" fill="#00BCD4"></path>
                        <path d="M12.4878659,24.4390854 C11.3217073,24.4390854 10.3729878,23.4901829 10.3729878,22.3242683 C10.3729878,21.1581098 11.3217073,20.2091463 12.4878659,20.2091463 C13.6540244,20.2091463 14.6026829,21.1581098 14.6026829,22.3242683 C14.6026829,23.4904268 13.6540244,24.4390854 12.4878659,24.4390854 Z M12.4878659,21.5737195 C12.0741463,21.5737195 11.7373171,21.9103049 11.7373171,22.3242683 C11.7373171,22.7379878 12.0741463,23.0745122 12.4878659,23.0745122 C12.9015854,23.0745122 13.2381098,22.7379878 13.2381098,22.3242683 C13.2381098,21.9103049 12.9015854,21.5737195 12.4878659,21.5737195 Z" id="Fill-13" fill="#000000"></path>
                    </g>
                </g>
            </g>
        </g>
    </g>
</svg>