<?xml version="1.0" encoding="UTF-8"?>
<svg width="25px" preserveAspectRatio="none" height="23px" viewBox="0 0 25 23" version="1.1" xmlns="http://www.w3.org/2000/svg" xmlns:xlink="http://www.w3.org/1999/xlink">
    <!-- Generator: Sketch 51.1 (57501) - http://www.bohemiancoding.com/sketch -->
    <title>icon-careplan-patienthome</title>
    <desc>Created with Sketch.</desc>
    <defs>
        <polygon id="path-1" points="0.0029296875 0.0187011719 25 0.0187011719 25 18.4541016 0.0029296875 18.4541016"></polygon>
    </defs>
    <g id="Symbols" stroke="none" stroke-width="1" fill="none" fill-rule="evenodd">
        <g id="side-bar-menu-patient-home" transform="translate(-18.000000, -578.000000)">
            <g id="RPM" transform="translate(0.000000, 565.000000)">
                <g id="Group-4" transform="translate(18.000000, 12.000000)">
                    <g id="icon---patient-home-RPM">
                        <g id="Group" transform="translate(0.000000, 1.000000)">
                            <g id="Group-3" transform="translate(0.000000, 3.808594)">
                                <mask id="mask-2" fill="white">
                                    <use xlink:href="#path-1"></use>
                                </mask>
                                <g id="Clip-2"></g>
                                <path d="M23.0757812,18.4570312 L1.92421875,18.4570312 C0.863232422,18.4570312 0,17.5938477 0,16.5327637 L0,1.94301758 C0,0.88203125 0.863232422,0.0187011719 1.92421875,0.0187011719 L23.0757812,0.0187011719 C24.1367676,0.0187011719 25,0.881933594 25,1.94301758 L25,4.28530273 C25,4.70498047 24.6597168,5.04516602 24.2401367,5.04516602 C23.8205078,5.04516602 23.4802246,4.70498047 23.4802246,4.28530273 L23.4802246,1.94301758 C23.4802246,1.71992187 23.2987793,1.53847656 23.0757812,1.53847656 L1.92421875,1.53847656 C1.70112305,1.53847656 1.51977539,1.71992187 1.51977539,1.94301758 L1.51977539,16.5327637 C1.51977539,16.7558105 1.7012207,16.9372559 1.92421875,16.9372559 L23.0757812,16.9372559 C23.298877,16.9372559 23.4802246,16.7558105 23.4802246,16.5327637 L23.4802246,8.36333008 C23.4802246,7.94365234 23.8205078,7.6034668 24.2401367,7.6034668 C24.6597168,7.6034668 25,7.94365234 25,8.36333008 L25,16.5327637 C25,17.5938477 24.1367676,18.4570312 23.0757812,18.4570312" id="Fill-1" fill="#000000" mask="url(#mask-2)"></path>
                            </g>
                            <path d="M9.14384766,3.82739258 L15.8561523,3.82739258 L15.8561523,1.52094727 L9.14384766,1.52094727 L9.14384766,3.82739258 Z M16.6160156,5.34716797 L8.38398438,5.34716797 C7.96435547,5.34716797 7.62407227,5.00693359 7.62407227,4.58725586 L7.62407227,0.761035156 C7.62407227,0.341357422 7.96435547,0.001171875 8.38398438,0.001171875 L16.6160156,0.001171875 C17.0356445,0.001171875 17.3759277,0.341357422 17.3759277,0.761035156 L17.3759277,4.58725586 C17.3759277,5.00688477 17.0356445,5.34716797 16.6160156,5.34716797 Z" id="Fill-4" fill="#000000"></path>
                            <polygon id="Fill-5" fill="#00BCD4" points="16.7043945 7.59609375 20.4528809 7.59609375 20.4528809 2.84233398 16.7043945 2.84233398"></polygon>
                            <path d="M17.464502,6.83603516 L19.6935547,6.83603516 L19.6935547,3.60195313 L17.464502,3.60195313 L17.464502,6.83603516 Z M20.453418,8.35581055 L16.7046387,8.35581055 C16.2850098,8.35581055 15.9447754,8.015625 15.9447754,7.59594727 L15.9447754,2.84204102 C15.9447754,2.42236328 16.2850098,2.08217773 16.7046387,2.08217773 L20.453418,2.08217773 C20.8730469,2.08217773 21.2132813,2.42236328 21.2132813,2.84204102 L21.2132813,7.59594727 C21.2132813,8.015625 20.8730469,8.35581055 20.453418,8.35581055 Z" id="Fill-6" fill="#000000"></path>
                            <polygon id="Fill-7" fill="#00BCD4" points="4.54658203 7.59609375 8.29506836 7.59609375 8.29506836 2.84233398 4.54658203 2.84233398"></polygon>
                            <path d="M5.30644531,6.83603516 L7.53549805,6.83603516 L7.53549805,3.60195313 L5.30644531,3.60195313 L5.30644531,6.83603516 Z M8.29536133,8.35581055 L4.54658203,8.35581055 C4.12700195,8.35581055 3.78671875,8.015625 3.78671875,7.59594727 L3.78671875,2.84204102 C3.78671875,2.42236328 4.12700195,2.08217773 4.54658203,2.08217773 L8.29536133,2.08217773 C8.71499023,2.08217773 9.05522461,2.42236328 9.05522461,2.84204102 L9.05522461,7.59594727 C9.05522461,8.015625 8.71499023,8.35581055 8.29536133,8.35581055 Z" id="Fill-8" fill="#000000"></path>
                            <polyline id="Fill-9" fill="#00BCD4" points="17.2928711 11.4697754 14.3617187 11.4697754 14.3617187 8.53862305 10.6382812 8.53862305 10.6382812 11.4697754 7.70712891 11.4697754 7.70712891 15.1932129 10.6382812 15.1932129 10.6382812 18.1242676 14.3617187 18.1242676 14.3617187 15.1932129 17.2928711 15.1932129 17.2928711 11.4697754"></polyline>
                            <path d="M11.3981934,17.3644043 L13.6018066,17.3644043 L13.6018066,15.1931152 C13.6018066,14.7734375 13.9420898,14.433252 14.3617187,14.433252 L16.532959,14.433252 L16.532959,12.2295898 L14.3617187,12.2295898 C13.9420898,12.2295898 13.6018066,11.8894043 13.6018066,11.4697266 L13.6018066,9.29853516 L11.3981934,9.29853516 L11.3981934,11.4697266 C11.3981934,11.8894043 11.0579102,12.2295898 10.6382812,12.2295898 L8.46704102,12.2295898 L8.46704102,14.433252 L10.6382812,14.433252 C11.0579102,14.433252 11.3981934,14.7734375 11.3981934,15.1931152 L11.3981934,17.3644043 Z M14.3617187,18.8841309 L10.6382812,18.8841309 C10.2187012,18.8841309 9.87841797,18.5439453 9.87841797,18.1242676 L9.87841797,15.9529785 L7.70712891,15.9529785 C7.28754883,15.9529785 6.94726562,15.612793 6.94726562,15.1931152 L6.94726562,11.4697266 C6.94726562,11.0500488 7.28754883,10.7098145 7.70712891,10.7098145 L9.87841797,10.7098145 L9.87841797,8.53862305 C9.87841797,8.11894531 10.2187012,7.77875977 10.6382812,7.77875977 L14.3617187,7.77875977 C14.7812988,7.77875977 15.121582,8.11894531 15.121582,8.53862305 L15.121582,10.7098145 L17.2928711,10.7098145 C17.7124512,10.7098145 18.0527344,11.0500488 18.0527344,11.4697266 L18.0527344,15.1931152 C18.0527344,15.612793 17.7124512,15.9529785 17.2928711,15.9529785 L15.121582,15.9529785 L15.121582,18.1242676 C15.121582,18.5439453 14.7812988,18.8841309 14.3617187,18.8841309 Z" id="Fill-10" fill="#000000"></path>
                        </g>
                    </g>
                </g>
            </g>
        </g>
    </g>
</svg>