<?xml version="1.0" encoding="UTF-8"?>
<svg width="20px" preserveAspectRatio="none" height="25px" viewBox="0 0 20 25" version="1.1" xmlns="http://www.w3.org/2000/svg" xmlns:xlink="http://www.w3.org/1999/xlink">
    <!-- Generator: Sketch 51.1 (57501) - http://www.bohemiancoding.com/sketch -->
    <title>icon-notes-patienthome</title>
    <desc>Created with Sketch.</desc>
    <defs></defs>
    <g id="Symbols" stroke="none" stroke-width="1" fill="none" fill-rule="evenodd">
        <g id="side-bar-menu-patient-home" transform="translate(-21.000000, -331.000000)">
            <g id="notes" transform="translate(0.000000, 321.000000)">
                <g transform="translate(18.000000, 10.000000)" id="icon-notes-patienthome">
                    <g>
                        <g id="Group" transform="translate(3.000000, 0.000000)">
                            <g id="Group-6" transform="translate(0.000000, 1.171875)">
                                <path d="M15.4818848,19.8649902 L15.4818848,21.4134766 L17.0304199,19.8649902 L15.4818848,19.8649902 Z M14.7745605,23.828125 C14.6834473,23.828125 14.5915039,23.810498 14.5040527,23.7743164 C14.2397949,23.6648437 14.0674805,23.4069824 14.0674805,23.1208984 L14.0674805,19.1577637 C14.0674805,18.7672363 14.3841797,18.4505371 14.7746582,18.4505371 L18.7378418,18.4505371 C19.0239258,18.4505371 19.2817383,18.6229004 19.3912109,18.8871094 C19.5006348,19.151416 19.4400879,19.4555664 19.2378906,19.6578125 L15.2747559,23.6209961 C15.1395508,23.75625 14.9586426,23.828125 14.7745605,23.828125 Z" id="Fill-1" fill="#000000"></path>
                                <path d="M11.6464844,23.828125 L1.72871094,23.828125 C0.775439453,23.828125 0,23.0526855 0,22.0994629 L0,1.7706543 C0,0.817382813 0.775439453,0.0418945313 1.72871094,0.0418945313 L17.7164062,0.0418945313 C18.6696777,0.0418945313 19.4450684,0.817431641 19.4450684,1.7706543 L19.4450684,19.1577637 C19.4450684,19.3453125 19.3705078,19.5251465 19.2378906,19.6578125 L15.2747559,23.6209961 C14.9985352,23.8970703 14.5508301,23.8970703 14.2745605,23.6209961 C13.9983887,23.3448242 13.9983887,22.8970215 14.2745605,22.620752 L18.0305664,18.8647461 L18.0305664,1.7706543 C18.0305664,1.59736328 17.8895996,1.45634766 17.7163574,1.45634766 L1.72871094,1.45634766 C1.55546875,1.45634766 1.41445313,1.59736328 1.41445313,1.7706543 L1.41445313,22.0994141 C1.41445313,22.2727051 1.55546875,22.413623 1.72871094,22.413623 L11.6464844,22.413623 C12.0370117,22.413623 12.3536621,22.7303223 12.3536621,23.1208496 C12.3536621,23.511377 12.0370117,23.828125 11.6464844,23.828125" id="Fill-3" fill="#000000"></path>
                                <path d="M18.7378906,5.57036133 L18.7378906,1.7706543 C18.7378906,1.20649414 18.2805664,0.74921875 17.7164063,0.74921875 L1.72871094,0.74921875 C1.16455078,0.74921875 0.707226563,1.20649414 0.707226563,1.7706543 L0.707226563,5.57036133 L18.7378906,5.57036133" id="Fill-4" fill="#00BCD4"></path>
                                <path d="M1.41445312,4.86313477 L18.0306152,4.86313477 L18.0306152,1.7706543 C18.0306152,1.59736328 17.8896973,1.45639648 17.7164062,1.45639648 L1.72871094,1.45639648 C1.55546875,1.45639648 1.41445312,1.59736328 1.41445312,1.7706543 L1.41445312,4.86313477 Z M18.7378906,6.27753906 L0.707226563,6.27753906 C0.316601562,6.27753906 0,5.96088867 0,5.57036133 L0,1.7706543 C0,0.817382813 0.775439453,0.0419921875 1.72871094,0.0419921875 L17.7164062,0.0419921875 C18.6696777,0.0419921875 19.4450684,0.817431641 19.4450684,1.7706543 L19.4450684,5.57036133 C19.4451172,5.96088867 19.128418,6.27753906 18.7378906,6.27753906 Z" id="Fill-5" fill="#000000"></path>
                            </g>
                            <path d="M3.55214844,3.93686523 C3.16152344,3.93686523 2.84492187,3.62016602 2.84492187,3.22963867 L2.84492187,0.707226562 C2.84492187,0.316699219 3.16152344,0 3.55214844,0 C3.94272461,0 4.25932617,0.316699219 4.25932617,0.707226562 L4.25932617,3.22963867 C4.25932617,3.62016602 3.94272461,3.93686523 3.55214844,3.93686523" id="Fill-7" fill="#000000"></path>
                            <path d="M7.66572266,3.93686523 C7.27509766,3.93686523 6.95849609,3.62016602 6.95849609,3.22963867 L6.95849609,0.707226562 C6.95849609,0.316699219 7.27509766,0 7.66572266,0 C8.05629883,0 8.37290039,0.316699219 8.37290039,0.707226562 L8.37290039,3.22963867 C8.37290039,3.62016602 8.05629883,3.93686523 7.66572266,3.93686523" id="Fill-8" fill="#000000"></path>
                            <path d="M11.7793457,3.93686523 C11.3888184,3.93686523 11.0721191,3.62016602 11.0721191,3.22963867 L11.0721191,0.707226562 C11.0721191,0.316699219 11.3888184,0 11.7793457,0 C12.169873,0 12.4865723,0.316699219 12.4865723,0.707226562 L12.4865723,3.22963867 C12.4865723,3.62016602 12.169873,3.93686523 11.7793457,3.93686523" id="Fill-9" fill="#000000"></path>
                            <path d="M15.8930176,3.93686523 C15.5024902,3.93686523 15.185791,3.62016602 15.185791,3.22963867 L15.185791,0.707226562 C15.185791,0.316699219 15.5024902,0 15.8930176,0 C16.2835449,0 16.6001953,0.316699219 16.6001953,0.707226562 L16.6001953,3.22963867 C16.6001953,3.62016602 16.2835449,3.93686523 15.8930176,3.93686523" id="Fill-10" fill="#000000"></path>
                            <path d="M3.55214844,21.5229004 C3.16152344,21.5229004 2.84492187,21.2062012 2.84492187,20.8157227 L2.84492187,9.47670898 C2.84492187,9.08623047 3.16152344,8.76953125 3.55214844,8.76953125 C3.94272461,8.76953125 4.25932617,9.08623047 4.25932617,9.47670898 L4.25932617,20.8157227 C4.25932617,21.2062012 3.94272461,21.5229004 3.55214844,21.5229004" id="Fill-11" fill="#000000"></path>
                        </g>
                    </g>
                </g>
            </g>
        </g>
    </g>
</svg>