<?xml version="1.0" encoding="UTF-8"?>
<svg width="24px" preserveAspectRatio="none" height="25px" viewBox="0 0 24 25" version="1.1" xmlns="http://www.w3.org/2000/svg" xmlns:xlink="http://www.w3.org/1999/xlink">
    <!-- Generator: Sketch 51.1 (57501) - http://www.bohemiancoding.com/sketch -->
    <title>icon-general-patienthome</title>
    <desc>Created with Sketch.</desc>
    <defs>
        <polygon id="path-1" points="0.0029296875 0 23.3068848 0 23.3068848 25 0.0029296875 25"></polygon>
    </defs>
    <g id="Symbols" stroke="none" stroke-width="1" fill="none" fill-rule="evenodd">
        <g id="side-bar-menu-patient-home" transform="translate(-19.000000, -89.000000)">
            <g id="info" transform="translate(0.000000, 77.000000)">
                <g transform="translate(18.000000, 12.000000)" id="icon-general-patienthome">
                    <g>
                        <g id="Group" transform="translate(1.000000, 0.000000)">
                            <mask id="mask-2" fill="white">
                                <use xlink:href="#path-1"></use>
                            </mask>
                            <g id="Clip-2"></g>
                            <polygon id="Fill-1" fill="#00BCD4" mask="url(#mask-2)" points="0.806445312 24.1937988 22.5004395 24.1937988 22.5004395 18.952002 0.806445312 18.952002"></polygon>
                            <path d="M1.61293945,23.3870605 L21.6939453,23.3870605 L21.6939453,19.7582031 L1.61293945,19.7582031 L1.61293945,23.3870605 Z M8.78027344,7.8331543 C8.78027344,6.24882813 10.0691406,4.95991211 11.6534668,4.95991211 C13.2377441,4.95991211 14.5266602,6.24882813 14.5266602,7.8331543 C14.5266602,9.41743164 13.2377441,10.7063477 11.6534668,10.7063477 C10.0691406,10.7063477 8.78027344,9.41743164 8.78027344,7.8331543 Z M22.5004395,15.9969238 C22.9458496,15.9969238 23.3068848,15.6358887 23.3068848,15.1904785 L23.3068848,0.806445312 C23.3068848,0.361035156 22.9458496,0 22.5004395,0 L0.806445313,0 C0.361035156,0 0,0.361035156 0,0.806445312 L0,24.1935547 C0,24.6389648 0.361035156,25 0.806445313,25 L22.5004395,25 C22.9458496,25 23.3068848,24.6389648 23.3068848,24.1935547 L23.3068848,18.9517578 C23.3068848,18.5063477 22.9458496,18.1452637 22.5004395,18.1452637 L17.4195313,18.1452637 L17.4195313,15.0725586 C17.4195313,13.2733398 16.3254883,11.7252441 14.7678711,11.0574707 C15.6127441,10.2411621 16.1396484,9.09785156 16.1396484,7.83305664 C16.1396484,5.359375 14.1271484,3.34692383 11.6535156,3.34692383 C9.17993164,3.34692383 7.16733398,5.35947266 7.16733398,7.8331543 C7.16733398,10.3063477 9.17905273,12.318457 11.652002,12.3192871 C11.6524902,12.3192871 11.6530273,12.3193359 11.6535156,12.3193359 L13.053418,12.3193359 C14.571582,12.3193359 15.8066895,13.5544434 15.8066895,15.0726562 L15.8066895,18.1453613 L7.50029297,18.1453613 L7.50029297,15.0726562 C7.50029297,14.6271973 7.13925781,14.2661621 6.69384766,14.2661621 C6.2484375,14.2661621 5.88735352,14.6271973 5.88735352,15.0726562 L5.88735352,18.1453613 L1.61293945,18.1453613 L1.61293945,1.61293945 L21.6939453,1.61293945 L21.6939453,15.1904785 C21.6939453,15.6358887 22.0550293,15.9969238 22.5004395,15.9969238 Z" id="Fill-3" fill="#000000" mask="url(#mask-2)"></path>
                        </g>
                    </g>
                </g>
            </g>
        </g>
    </g>
</svg>