<?xml version="1.0" encoding="UTF-8"?>
<svg width="25px" preserveAspectRatio="none" height="23px" viewBox="0 0 25 23" version="1.1" xmlns="http://www.w3.org/2000/svg" xmlns:xlink="http://www.w3.org/1999/xlink">
    <!-- Generator: Sketch 51.1 (57501) - http://www.bohemiancoding.com/sketch -->
    <title>icon-careplan-patienthome</title>
    <desc>Created with Sketch.</desc>
    <defs></defs>
    <g id="Symbols" stroke="none" stroke-width="1" fill="none" fill-rule="evenodd">
        <g id="side-bar-menu-patient-home" transform="translate(-18.000000, -517.000000)">
            <g id="CARE-PLAN" transform="translate(0.000000, 504.000000)">
                <g id="Group-4" transform="translate(11.000000, 12.000000)">
                    <g id="icon-careplan-patienthome" transform="translate(7.000000, 0.000000)">
                        <g id="Group" transform="translate(0.000000, 1.000000)">
                            <path d="M13.989209,8.82856445 C13.1001465,8.82856445 12.7012695,9.32685547 12.5443359,9.61958008 C12.5246582,9.65634766 12.4711426,9.65625 12.4514648,9.61948242 C12.2950684,9.32680664 11.8983398,8.82856445 11.0093262,8.82856445 C9.99663086,8.82856445 9.10585937,9.51987305 9.10585937,10.7822266 C9.10585937,11.2930176 9.20991211,11.7306641 9.49887695,12.2190918 C10.0876465,13.2143555 12.0273926,14.5045898 12.4257324,14.7588379 C12.4697754,14.7869629 12.5255859,14.7870117 12.5696777,14.7590332 C12.9684082,14.5060059 14.9084961,13.222168 15.5018555,12.2190918 C15.7907715,11.7306641 15.8941895,11.2931152 15.8941895,10.7822266 C15.8941895,9.51987305 15.0019043,8.82856445 13.989209,8.82856445" id="Fill-1" fill="#00BCD4"></path>
                            <path d="M11.0093262,9.51958008 C10.4500488,9.51958008 9.796875,9.85024414 9.796875,10.7822266 C9.796875,11.196582 9.8828125,11.5109375 10.0936035,11.8672363 C10.4564453,12.4805664 11.6350098,13.3975586 12.498584,13.9798828 C13.3623047,13.4001953 14.5414551,12.4851563 14.9070801,11.8671387 C15.1173828,11.5116699 15.203125,11.1974121 15.203125,10.7821777 C15.203125,9.85014648 14.5492187,9.51953125 13.989209,9.51953125 C13.5863281,9.51953125 13.3050781,9.66303711 13.1533203,9.94609375 C13.0236816,10.1878906 12.7725586,10.3380371 12.4979492,10.3380371 C12.2228027,10.3380371 11.9713867,10.1874023 11.8418945,9.94492188 C11.6911133,9.66274414 11.4109863,9.51958008 11.0093262,9.51958008 Z M12.4979004,15.4709473 C12.3404785,15.4709473 12.1870117,15.4261719 12.0541992,15.3413574 C11.6487305,15.082666 9.59199219,13.7334961 8.90410156,12.5708984 C8.56572266,11.998877 8.41479492,11.4472168 8.41479492,10.7822266 C8.41479492,9.24980469 9.50600586,8.1375 11.0093262,8.1375 C11.6884277,8.1375 12.1685547,8.36015625 12.4984375,8.62207031 C12.8288086,8.36015625 13.3095215,8.1375 13.989209,8.1375 C15.493457,8.1375 16.5852051,9.24980469 16.5852051,10.7822266 C16.5852051,11.4480469 16.4344727,11.999707 16.0966309,12.5708984 C15.4038574,13.7418945 13.3455078,15.0850586 12.9399414,15.3423828 C12.8076172,15.4265137 12.6546875,15.4709473 12.4979004,15.4709473 Z" id="Fill-2" fill="#000000"></path>
                            <path d="M6.38041992,22.3631836 C5.98481445,22.3631836 5.41772461,22.1811035 4.21191406,20.831543 C3.61655273,20.165332 3.12836914,19.5095215 3.10791016,19.4819336 C3.08979492,19.4575684 3.07333984,19.4319824 3.05854492,19.4054687 C2.82382812,18.9828125 2.69980469,18.5038574 2.69980469,18.0204102 L2.69980469,14.7150391 C2.69980469,14.3333496 3.00917969,14.0239746 3.39082031,14.0239746 L7.61210938,14.0239746 C8.26132813,14.0239746 8.87373047,14.2747559 9.33652344,14.7300781 L11.497998,16.8569824 C12.1910645,17.5500488 12.1910645,18.6714355 11.502002,19.3605957 C10.809375,20.0532227 9.68793945,20.0532227 8.9987793,19.3641113 L6.88613281,17.2514648 C6.78032227,17.2503906 6.62954102,17.2493164 6.41469727,17.2481934 C6.03310547,17.2461914 5.72524414,16.9352051 5.72724609,16.5535645 C5.72924805,16.1731445 6.03823242,15.8661621 6.41821289,15.8661621 C6.41948242,15.8661621 6.4206543,15.8661621 6.421875,15.8661621 C6.68286133,15.8675293 6.87382813,15.869043 6.99985352,15.8706055 C7.26015625,15.8739258 7.46572266,15.8765625 7.66723633,16.0780762 L9.97607422,18.3868652 C10.1262695,18.5371582 10.3708496,18.5371582 10.5211914,18.3868652 C10.6749512,18.2331055 10.6749512,17.9885742 10.5246582,17.8382813 L8.3671875,15.7152832 C8.16459961,15.515918 7.89638672,15.4061035 7.6121582,15.4061035 L4.08178711,15.4061035 L4.08178711,18.0205078 C4.08178711,18.2558105 4.13876953,18.4890137 4.24702148,18.6977051 C5.07290039,19.8020508 6.06967773,20.8485352 6.42084961,20.9812012 L12.0354492,20.980127 C12.3842773,20.980127 12.8124023,20.7871094 13.2208984,20.5893066 C13.5559082,20.426709 16.1167969,18.6939453 17.8282227,17.5155762 C17.8397461,17.5076172 17.8515625,17.5 17.863623,17.4927734 C18.0818848,17.3612305 18.1525391,17.0766113 18.0209961,16.8582031 C17.957373,16.7524414 17.8562988,16.6778809 17.7364258,16.6480957 C17.6203613,16.6193848 17.5002441,16.6358887 17.3966797,16.694873 L14.2682617,18.7695801 C13.9501465,18.9804688 13.5213867,18.8936035 13.3104004,18.5755859 C13.0995117,18.2575195 13.186377,17.8286621 13.5043945,17.6177734 L16.6480957,15.5329102 C16.6564453,15.5273926 16.6648926,15.5220215 16.6734863,15.5168945 C17.095459,15.2627441 17.5912109,15.1880859 18.0693359,15.3068359 C18.5474609,15.4254883 18.9507324,15.7232422 19.2048828,16.1452637 C19.7254395,17.0098145 19.4519531,18.1345703 18.596582,18.6644531 C17.8586426,19.1725098 14.3681641,21.5695312 13.8228027,21.8333984 C13.2699707,22.1009766 12.6765137,22.3621582 12.0354492,22.3621582 L6.38056641,22.3632812 C6.38061523,22.3631836 6.38046875,22.3631836 6.38041992,22.3631836" id="Fill-3" fill="#000000"></path>
                            <g id="Group-7" transform="translate(0.000000, 13.378906)">
                                <polygon id="Fill-4" fill="#00BCD4" points="0.691015625 7.58974609 4.26176758 7.58974609 4.26176758 0.6953125 0.691015625 0.6953125"></polygon>
                                <path d="M1.38208008,6.89848633 L3.57080078,6.89848633 L3.57080078,1.38608398 L1.38208008,1.38608398 L1.38208008,6.89848633 Z M4.26176758,8.28056641 L0.691015625,8.28056641 C0.309375,8.28056641 0,7.97119141 0,7.58950195 L0,0.695019531 C0,0.313378906 0.309375,0.00400390625 0.691015625,0.00400390625 L4.26176758,0.00400390625 C4.64345703,0.00400390625 4.95283203,0.313378906 4.95283203,0.695019531 L4.95283203,7.58950195 C4.95283203,7.97119141 4.64345703,8.28056641 4.26176758,8.28056641 Z" id="Fill-6" fill="#000000"></path>
                            </g>
                            <path d="M21.6092773,8.34047852 L17.3879395,8.34047852 C16.7387207,8.34047852 16.1263672,8.08969727 15.6635742,7.634375 L13.5020996,5.5074707 C12.8089844,4.8144043 12.8089844,3.69301758 13.4980957,3.00385742 C14.1907715,2.31123047 15.3121094,2.31123047 16.0012695,3.0003418 L18.1139648,5.11303711 C18.2197754,5.1140625 18.3705566,5.11518555 18.5854004,5.11625977 C18.9669434,5.11826172 19.2748047,5.42924805 19.2728027,5.81088867 C19.2708008,6.19130859 18.9618652,6.49833984 18.5818359,6.49833984 C18.5806152,6.49833984 18.5794434,6.49833984 18.5781738,6.49833984 C18.3171875,6.49697266 18.1262695,6.49541016 18.0001953,6.49384766 C17.7398926,6.49052734 17.5343262,6.48789063 17.3328125,6.28637695 L15.0240234,3.97758789 C14.8737793,3.82729492 14.629248,3.82729492 14.4788574,3.97758789 C14.3250977,4.13134766 14.3250977,4.37587891 14.4753906,4.5262207 L16.6328613,6.64916992 C16.835498,6.84853516 17.1036621,6.95834961 17.3878906,6.95834961 L20.9181641,6.95834961 L20.9181641,4.34404297 C20.9181641,4.10874023 20.8611328,3.87553711 20.7529297,3.6668457 C19.927002,2.5625 18.9302734,1.51601563 18.5791016,1.38334961 L12.9644531,1.38442383 C12.615625,1.38442383 12.1875488,1.57744141 11.7790039,1.77519531 C11.4439941,1.93779297 8.88310547,3.67055664 7.17172852,4.84897461 C7.16015625,4.85693359 7.14833984,4.86450195 7.13632813,4.87177734 C6.91801758,5.00327148 6.84741211,5.28793945 6.97890625,5.50634766 C7.04257812,5.61206055 7.14365234,5.68666992 7.26347656,5.71640625 C7.37944336,5.74511719 7.4996582,5.72861328 7.60327148,5.66962891 L10.7316895,3.5949707 C11.0497559,3.38408203 11.4786133,3.47094727 11.6895508,3.78896484 C11.9004395,4.10703125 11.8135742,4.53588867 11.4955566,4.74677734 L8.35185547,6.8315918 C8.34350586,6.8371582 8.33505859,6.8425293 8.32641602,6.84765625 C7.90449219,7.10180664 7.40859375,7.17636719 6.93061523,7.05771484 C6.45249023,6.9390625 6.04921875,6.64130859 5.79506836,6.21928711 C5.27451172,5.35473633 5.54799805,4.22998047 6.40336914,3.70004883 C7.14130859,3.19204102 10.6317871,0.794970703 11.1771484,0.531152344 C11.7299316,0.263574219 12.3233887,0.00239257812 12.964502,0.00239257812 L18.6193848,0.00126953125 C18.6194336,0.00126953125 18.6195801,0.00126953125 18.6197266,0.00126953125 C19.015332,0.00126953125 19.5824219,0.183349609 20.7882324,1.53295898 C21.3835938,2.19916992 21.8717773,2.85493164 21.8922363,2.88251953 C21.9103516,2.90693359 21.9268066,2.9324707 21.9415527,2.9590332 C22.1763184,3.38164062 22.3003418,3.8605957 22.3003418,4.34404297 L22.3003418,7.64946289 C22.300293,8.03110352 21.990918,8.34047852 21.6092773,8.34047852" id="Fill-8" fill="#000000"></path>
                            <polygon id="Fill-9" fill="#00BCD4" points="20.7384766 8.29033203 24.3092285 8.29033203 24.3092285 1.39589844 20.7384766 1.39589844"></polygon>
                            <path d="M21.429248,7.59946289 L23.6179199,7.59946289 L23.6179199,2.08706055 L21.429248,2.08706055 L21.429248,7.59946289 Z M24.3089844,8.98154297 L20.7382324,8.98154297 C20.356543,8.98154297 20.047168,8.67216797 20.047168,8.29052734 L20.047168,1.39604492 C20.047168,1.0144043 20.356543,0.705029297 20.7382324,0.705029297 L24.3089844,0.705029297 C24.690625,0.705029297 25,1.0144043 25,1.39604492 L25,8.29052734 C25,8.67216797 24.690625,8.98154297 24.3089844,8.98154297 Z" id="Fill-10" fill="#000000"></path>
                        </g>
                    </g>
                </g>
            </g>
        </g>
    </g>
</svg>