<?xml version="1.0" encoding="UTF-8"?>
<svg preserveAspectRatio="none" width="23px" height="26px" viewBox="0 0 23 26" version="1.1" xmlns="http://www.w3.org/2000/svg" xmlns:xlink="http://www.w3.org/1999/xlink">
    <!-- Generator: Sketch 51.1 (57501) - http://www.bohemiancoding.com/sketch -->
    <title>appointment to do list icon copy</title>
    <desc>Created with Sketch.</desc>
    <defs></defs>
    <g id="Dashboard" stroke="none" stroke-width="1" fill="none" fill-rule="evenodd">
        <g id="dashboard" transform="translate(-22.000000, -367.000000)">
            <g id="to-do-list" transform="translate(20.000000, 275.000000)">
                <g id="to-do-list-content" transform="translate(0.000000, 40.000000)">
                    <g id="pending-notes-cell" transform="translate(0.000000, 50.000000)">
                        <g id="pending-notes-icon" transform="translate(0.000000, 2.000000)">
                            <g id="Group" transform="translate(2.000000, 0.000000)">
                                <polygon id="Path-2" fill="#41CBC7" points="19.4003906 3.82568359 21.4521484 3.82568359 21.4521484 21.3735352 17.3256836 25.2583008 15.6323242 25.2583008 18.5422363 21.3735352"></polygon>
                                <path d="M15.2901119,25.9368662 L1.81746959,25.9368662 C0.81523601,25.9368662 0,25.1213771 0,24.1193333 L0,4.53975182 C0,3.53751825 0.81523601,2.72228224 1.81746959,2.72228224 L17.9349635,2.72228224 C18.936944,2.72228224 19.7524331,3.53751825 19.7524331,4.53975182 L19.7524331,21.4744818 L15.2901119,25.9368662 Z M1.81746959,4.08781995 C1.56841363,4.08781995 1.36553771,4.29044282 1.36553771,4.53975182 L1.36553771,24.1193333 C1.36553771,24.3684526 1.56841363,24.5710754 1.81746959,24.5710754 L14.7245012,24.5710754 L18.3866423,20.908871 L18.3866423,4.53975182 C18.3866423,4.29044282 18.1840195,4.08781995 17.9349635,4.08781995 L1.81746959,4.08781995 Z" id="Fill-1" fill="#000000"></path>
                                <path d="M16.0888672,13.3811436 L14.5115568,13.3811436 L14.5115568,10.5668175 L4.94839072,10.5668175 L4.94839072,13.3811436 L3.37108029,13.3811436 L3.37108029,10.3807056 C3.37108029,9.73032603 3.982173,9.20127981 4.73348893,9.20127981 L14.7264585,9.20127981 C15.4777745,9.20127981 16.0888672,9.73032603 16.0888672,10.3807056 L16.0888672,13.3811436 Z" id="Fill-4" fill="#000000"></path>
                                <polygon id="Fill-5" fill="#000000" points="3.61769489 16.5485888 15.8422526 16.5485888 15.8422526 15.1830511 3.61769489 15.1830511"></polygon>
                                <polygon id="Fill-6" fill="#000000" points="3.61769489 19.4845645 15.8422526 19.4845645 15.8422526 18.1190268 3.61769489 18.1190268"></polygon>
                                <polygon id="Fill-7" fill="#000000" points="3.61769489 22.4204769 10.7418243 22.4204769 10.7418243 21.0549392 3.61769489 21.0549392"></polygon>
                                <path d="M10.5562336,8.23852068 C9.3043747,8.23852068 8.28632603,7.22015572 8.28632603,5.96854988 L8.28632603,4.92551338 L9.65186375,4.92551338 L9.65186375,5.96854988 C9.65186375,6.46723114 10.0576156,6.87298297 10.5560438,6.87298297 C11.0546618,6.87298297 11.4604136,6.46723114 11.4604136,5.96854988 L11.4604136,2.9753236 C11.4604136,2.10150852 10.749747,1.39084185 9.87618491,1.39084185 C9.00268613,1.39084185 8.29201946,2.10150852 8.29201946,2.9753236 L6.92622871,2.9753236 C6.92622871,1.34858394 8.24950852,0.0253041363 9.87618491,0.0253041363 C11.5026715,0.0253041363 12.8259513,1.34858394 12.8259513,2.9753236 L12.8259513,5.96854988 C12.8259513,7.22015572 11.8076496,8.23852068 10.5562336,8.23852068 Z" id="Fill-8" fill="#000000"></path>
                                <path d="M17.8477275,25.9368662 L13.3332165,25.9368662 L18.3612117,20.908871 L18.3612117,4.53975182 C18.3612117,4.29044282 18.1585888,4.08781995 17.9092165,4.08781995 L17.9092165,2.72228224 L20.4925158,2.72228224 C21.4945596,2.72228224 22.3100487,3.53751825 22.3100487,4.53975182 L22.3100487,21.4744818 L17.8477275,25.9368662 Z M16.6299659,24.5710754 L17.2820535,24.5710754 L20.9445109,20.908871 L20.9445109,4.53975182 C20.9445109,4.29044282 20.741635,4.08781995 20.4925158,4.08781995 L19.6698783,4.08781995 C19.7072019,4.23236983 19.7270024,4.3836253 19.7270024,4.53975182 L19.7270024,21.4744818 L16.6299659,24.5710754 Z" id="Fill-10" fill="#000000"></path>
                            </g>
                        </g>
                    </g>
                </g>
            </g>
        </g>
    </g>
</svg>