<?xml version="1.0" encoding="UTF-8"?>
<svg width="90px" preserveAspectRatio="none" height="126px" viewBox="0 0 90 126" version="1.1" xmlns="http://www.w3.org/2000/svg" xmlns:xlink="http://www.w3.org/1999/xlink">
    <!-- Generator: Sketch 51.1 (57501) - http://www.bohemiancoding.com/sketch -->
    <title>appointment to do list icon copy 2</title>
    <desc>Created with Sketch.</desc>
    <defs>
        <polygon id="path-1" points="0.0218978102 0.167518248 138.421621 0.167518248 138.421621 130.292701 0.0218978102 130.292701"></polygon>
    </defs>
    <g id="To-Do-list" stroke="none" stroke-width="1" fill="none" fill-rule="evenodd" opacity="0.03828125">
        <g id="appointment-request-expanded-example" transform="translate(-285.000000, 0.000000)">
            <g id="appointment-request-icon" transform="translate(280.000000, -24.000000)">
                <g id="Group" transform="translate(5.769231, 0.000000)">
                    <g id="Group-3" transform="translate(0.000000, 19.343066)">
                        <mask id="mask-2" fill="white">
                            <use xlink:href="#path-1"></use>
                        </mask>
                        <g id="Clip-2"></g>
                        <path d="M38.1970803,130.292701 L38.1956204,130.292701 C30.9591241,130.292701 24.6821168,125.636496 22.5777372,118.706204 L0.712773723,46.7273723 C-0.554744526,42.5543796 -0.121167883,38.1379562 1.93321168,34.290146 C3.98759124,30.4423358 7.41751825,27.6266423 11.5905109,26.3591241 L95.4821168,0.875912409 C97.0288321,0.405474453 98.6270073,0.167518248 100.231022,0.167518248 C107.468978,0.167518248 113.745985,4.82335766 115.850365,11.7521898 L137.715328,83.7310219 C140.331387,92.3463504 135.45292,101.483212 126.837591,104.10073 L42.9459854,129.583942 C41.4007299,130.05438 39.8025547,130.292701 38.1970803,130.292701 Z M100.232482,8.44744526 C99.4427007,8.44744526 98.6540146,8.56569343 97.8886861,8.79817518 L13.9970803,34.2828467 C11.939781,34.9072993 10.250365,36.2945255 9.23686131,38.1905109 C8.22445255,40.0864964 8.0120438,42.2635036 8.63649635,44.3208029 L30.5014599,116.3 C31.5222628,119.663139 34.6872263,122.010949 38.1970803,122.010949 C38.9854015,122.010949 39.7737226,121.892701 40.5394161,121.660219 L124.431022,96.1770073 C128.676642,94.8868613 131.081752,90.3846715 129.791606,86.1375912 L107.926642,14.159854 C106.905839,10.7970803 103.742336,8.44744526 100.232482,8.44744526 Z" id="Fill-1" fill="#000000" mask="url(#mask-2)"></path>
                    </g>
                    <path d="M29.7945255,86.4368613 C28.0193431,86.4368613 26.3770073,85.2864964 25.8354015,83.4989051 C25.169708,81.3105839 26.4058394,78.9981752 28.5927007,78.3335766 L98.9350365,56.9660584 C101.121898,56.3018248 103.434307,57.5364964 104.1,59.7248175 C104.764599,61.9131387 103.529927,64.2255474 101.341606,64.889781 L31.000365,86.2572993 C30.5985401,86.3784672 30.1934307,86.4368613 29.7945255,86.4368613 Z" id="Fill-4" fill="#000000"></path>
                    <path d="M37.7208029,112.531752 C35.9459854,112.531752 34.3036496,111.379927 33.7620438,109.593796 C33.0978102,107.405474 34.3321168,105.093066 36.5189781,104.428467 L106.861679,83.0609489 C109.05,82.3967153 111.362409,83.629927 112.026642,85.8182482 C112.690876,88.0065693 111.456569,90.3189781 109.268248,90.9835766 L38.9270073,112.35073 C38.5251825,112.473358 38.120073,112.531752 37.7208029,112.531752 Z" id="Fill-5" fill="#000000"></path>
                    <path d="M42.0448905,36.5167883 L43.5959854,22.4043796 C43.839781,20.1777372 42.0963504,18.2317518 39.8551095,18.2317518 L39.8536496,18.2317518 C37.7751825,18.2317518 36.090146,16.5463504 36.090146,14.4678832 L36.090146,8.04963504 C36.090146,5.97262774 37.7751825,4.28759124 39.8536496,4.28759124 L72.4824818,4.28613139 C74.5609489,4.28613139 76.2459854,5.97116788 76.2459854,8.04963504 L76.2459854,14.4678832 C76.2459854,16.5463504 74.5609489,18.2317518 72.4824818,18.2317518 C70.2412409,18.230292 68.4963504,20.1777372 68.7416058,22.4043796 L70.2912409,36.5167883 C70.5364964,38.7437956 68.7912409,40.689781 66.5518248,40.689781 L45.7857664,40.689781 C43.5445255,40.689781 41.8010949,38.7437956 42.0448905,36.5167883 Z" id="Fill-6" fill="#00BCD4"></path>
                    <path d="M66.5518248,44.829927 L45.7857664,44.829927 C43.5434307,44.829927 41.3978102,43.8718978 39.9007299,42.2021898 C38.4040146,40.5313869 37.6854015,38.2945255 37.9306569,36.0635036 L39.4361314,22.3587591 C35.270438,22.1408759 31.95,18.6835766 31.95,14.4664234 L31.95,8.04963504 C31.95,3.69160584 35.4956204,0.145985401 39.8536496,0.145985401 L72.4824818,0.145985401 C76.8405109,0.145985401 80.3861314,3.69160584 80.3861314,8.04963504 L80.3861314,14.4678832 C80.3861314,18.6850365 77.0656934,22.1423358 72.9029197,22.360219 L74.4083942,36.0649635 C74.6521898,38.2945255 73.9335766,40.5313869 72.4368613,42.2021898 C70.939781,43.8718978 68.7941606,44.829927 66.5518248,44.829927 Z M46.2076642,36.549635 L66.129562,36.549635 L64.6255474,22.8565693 C64.380292,20.6266423 65.0989051,18.389781 66.5959854,16.7189781 C68.0087591,15.1423358 69.9989051,14.2 72.1043796,14.0985401 L72.1043796,8.42737226 L40.2313869,8.42737226 L40.2313869,14.0985401 C42.3372263,14.2 44.3288321,15.1408759 45.7416058,16.7175182 C47.2386861,18.3883212 47.9569343,20.6251825 47.7116788,22.8565693 L46.2076642,36.549635 Z" id="Fill-7" fill="#000000"></path>
                    <path d="M56.1671533,59.6306569 C53.8821168,59.6306569 52.0273723,57.7759124 52.0273723,55.4894161 L52.0273723,40.689781 C52.0273723,38.4029197 53.8821168,36.549635 56.1671533,36.549635 C58.4540146,36.549635 60.3087591,38.4029197 60.3087591,40.689781 L60.3087591,55.4894161 C60.3087591,57.7759124 58.4554745,59.6306569 56.1671533,59.6306569 Z" id="Fill-8" fill="#000000"></path>
                </g>
            </g>
        </g>
    </g>
</svg>