<?xml version="1.0" encoding="UTF-8"?>
<svg width="109px" preserveAspectRatio="none" height="130px" viewBox="0 0 109 130" version="1.1" xmlns="http://www.w3.org/2000/svg" xmlns:xlink="http://www.w3.org/1999/xlink">
    <!-- Generator: Sketch 51.1 (57501) - http://www.bohemiancoding.com/sketch -->
    <title>appointment to do list icon copy 2</title>
    <desc>Created with Sketch.</desc>
    <defs></defs>
    <g id="To-Do-list" stroke="none" stroke-width="1" fill="none" fill-rule="evenodd" opacity="0.0417410714">
        <g id="follow-up-expanded-view" transform="translate(-266.000000, 0.000000)">
            <g id="follow-up-icon" transform="translate(266.000000, -16.000000)">
                <rect id="Rectangle-2" fill="#00BCD4" x="63.4615385" y="57.6923077" width="17.3076923" height="17.3076923"></rect>
                <rect id="Rectangle" fill="#00BCD4" x="103.846154" y="57.6923077" width="17.3076923" height="17.3076923"></rect>
                <rect id="Rectangle-3" fill="#00BCD4" x="63.4615385" y="92.3076923" width="17.3076923" height="23.0769231"></rect>
                <g id="Group-2" stroke-width="1" fill="#000000">
                    <path d="M8.62089844,29.7826172 L136.63125,29.7826172 L136.63125,19.1830078 C136.63125,18.1209961 135.767578,17.2570312 134.705566,17.2570312 L10.546875,17.2570312 C9.48486328,17.2570312 8.62089844,18.1209961 8.62089844,19.1830078 L8.62089844,29.7826172 Z M140.941992,38.4035156 L4.31044922,38.4035156 C1.92978516,38.4035156 0,36.4734375 0,34.0930664 L0,19.1830078 C0,13.3678711 4.73173828,8.63613281 10.546875,8.63613281 L134.70498,8.63613281 C140.520703,8.63613281 145.251855,13.3678711 145.251855,19.1830078 L145.251855,34.0936523 C145.252441,36.4737305 143.322656,38.4035156 140.941992,38.4035156 Z" id="Fill-3"></path>
                    <path d="M42.2572266,80.5863281 L21.9521484,80.5863281 C19.5714844,80.5863281 17.6416992,78.655957 17.6416992,76.2755859 L17.6416992,58.1806641 C17.6416992,55.800293 19.5714844,53.8702148 21.9521484,53.8702148 L42.2572266,53.8702148 C44.6378906,53.8702148 46.5676758,55.800293 46.5676758,58.1806641 C46.5676758,60.5607422 44.6378906,62.4911133 42.2572266,62.4911133 L26.2625977,62.4911133 L26.2625977,71.9651367 L42.2572266,71.9651367 C44.6378906,71.9651367 46.5676758,73.8955078 46.5676758,76.2755859 C46.5676758,78.655957 44.6378906,80.5863281 42.2572266,80.5863281" id="Fill-5"></path>
                    <path d="M66.7842773,71.9651367 L78.468457,71.9651367 L78.468457,62.4911133 L66.7842773,62.4911133 L66.7842773,71.9651367 Z M82.7789062,80.5863281 L62.4738281,80.5863281 C60.0931641,80.5863281 58.1633789,78.655957 58.1633789,76.2755859 L58.1633789,58.1806641 C58.1633789,55.800293 60.0931641,53.8702148 62.4738281,53.8702148 L82.7789062,53.8702148 C85.1595703,53.8702148 87.0893555,55.800293 87.0893555,58.1806641 L87.0893555,76.2755859 C87.0893555,78.655957 85.1595703,80.5863281 82.7789062,80.5863281 Z" id="Fill-7"></path>
                    <path d="M42.2572266,116.810449 L21.9521484,116.810449 C19.5714844,116.810449 17.6416992,114.880078 17.6416992,112.5 L17.6416992,94.4047852 C17.6416992,92.024707 19.5714844,90.0943359 21.9521484,90.0943359 L42.2572266,90.0943359 C44.6378906,90.0943359 46.5676758,92.024707 46.5676758,94.4047852 C46.5676758,96.7851562 44.6378906,98.7152344 42.2572266,98.7152344 L26.2625977,98.7152344 L26.2625977,108.189258 L42.2572266,108.189258 C44.6378906,108.189258 46.5676758,110.119629 46.5676758,112.5 C46.5676758,114.880078 44.6378906,116.810449 42.2572266,116.810449" id="Fill-8"></path>
                    <path d="M66.7842773,108.189258 L78.468457,108.189258 L78.468457,98.7152344 L66.7842773,98.7152344 L66.7842773,108.189258 Z M82.7789062,116.810449 L62.4738281,116.810449 C60.0931641,116.810449 58.1633789,114.880078 58.1633789,112.5 L58.1633789,94.4047852 C58.1633789,92.024707 60.0931641,90.0943359 62.4738281,90.0943359 L82.7789062,90.0943359 C85.1595703,90.0943359 87.0893555,92.024707 87.0893555,94.4047852 L87.0893555,112.5 C87.0893555,114.880078 85.1595703,116.810449 82.7789062,116.810449 Z" id="Fill-10"></path>
                    <path d="M107.305371,71.9651367 L118.989258,71.9651367 L118.989258,62.4911133 L107.305371,62.4911133 L107.305371,71.9651367 Z M123.3,80.5863281 L102.994922,80.5863281 C100.614258,80.5863281 98.6841797,78.655957 98.6841797,76.2755859 L98.6841797,58.1806641 C98.6841797,55.800293 100.614258,53.8702148 102.994922,53.8702148 L123.3,53.8702148 C125.680664,53.8702148 127.610449,55.800293 127.610449,58.1806641 L127.610449,76.2755859 C127.610449,78.655957 125.680664,80.5863281 123.3,80.5863281 Z" id="Fill-12"></path>
                    <path d="M29.1597656,25.0579102 C26.7791016,25.0579102 24.8493164,23.1275391 24.8493164,20.7474609 L24.8493164,4.31044922 C24.8493164,1.93037109 26.7791016,0 29.1597656,0 C31.5404297,0 33.4702148,1.93037109 33.4702148,4.31044922 L33.4702148,20.7477539 C33.4702148,23.128125 31.5404297,25.0579102 29.1597656,25.0579102" id="Fill-13"></path>
                    <path d="M72.6260742,25.0579102 C70.2454102,25.0579102 68.315625,23.1275391 68.315625,20.7474609 L68.315625,4.31044922 C68.315625,1.93037109 70.2454102,0 72.6260742,0 C75.0067383,0 76.9365234,1.93037109 76.9365234,4.31044922 L76.9365234,20.7477539 C76.9365234,23.128125 75.0067383,25.0579102 72.6260742,25.0579102" id="Fill-14"></path>
                    <path d="M116.092676,25.0579102 C113.712012,25.0579102 111.782227,23.1275391 111.782227,20.7474609 L111.782227,4.31044922 C111.782227,1.93037109 113.712012,0 116.092676,0 C118.47334,0 120.403125,1.93037109 120.403125,4.31044922 L120.403125,20.7477539 C120.403125,23.128125 118.47334,25.0579102 116.092676,25.0579102" id="Fill-15"></path>
                    <path d="M114.222656,145.695117 C94.4950195,145.695117 78.4456055,129.645703 78.4456055,109.917773 C78.4456055,90.1901367 94.4950195,74.1407227 114.222656,74.1407227 C124.990137,74.1407227 135.082324,78.9222656 141.911719,87.2595703 C143.420508,89.1011719 143.150684,91.8172852 141.308789,93.3257813 C139.467188,94.8342773 136.751367,94.5647461 135.242578,92.7228516 C130.057031,86.3923828 122.395605,82.762207 114.222656,82.762207 C99.2490234,82.762207 87.0665039,94.9444336 87.0665039,109.918359 C87.0665039,124.892285 99.2490234,137.074512 114.222656,137.074512 C129.196582,137.074512 141.379102,124.892285 141.379102,109.918359 C141.379102,107.537988 143.308887,105.60791 145.689551,105.60791 C148.070215,105.60791 150,107.537988 150,109.918359 C150,129.64541 133.950586,145.695117 114.222656,145.695117" id="Fill-17"></path>
                    <path d="M66.9360352,141.579785 L10.546875,141.579785 C4.73173828,141.579785 0,136.84834 0,131.03291 L0,19.1830078 C0,13.3678711 4.73173828,8.63613281 10.546875,8.63613281 L134.70498,8.63613281 C140.520703,8.63613281 145.251855,13.3678711 145.251855,19.1830078 L145.251855,67.4352539 C145.251855,69.815625 143.32207,71.7457031 140.941406,71.7457031 C138.560742,71.7457031 136.630957,69.815625 136.630957,67.4352539 L136.630957,19.1830078 C136.630957,18.1209961 135.766992,17.2570312 134.70498,17.2570312 L10.546875,17.2570312 C9.48486328,17.2570312 8.62089844,18.1209961 8.62089844,19.1830078 L8.62089844,131.03291 C8.62089844,132.094922 9.48486328,132.958887 10.546875,132.958887 L66.9357422,132.958887 C69.3164062,132.958887 71.2461914,134.888965 71.2461914,137.269336 C71.2461914,139.649707 69.3166992,141.579785 66.9360352,141.579785" id="Fill-18"></path>
                    <polyline id="Fill-20" points="125.861133 109.917773 114.222656 109.917773 114.222656 98.2795898"></polyline>
                    <path d="M125.861133,114.228516 L114.222656,114.228516 C111.841992,114.228516 109.912207,112.298145 109.912207,109.917773 L109.912207,98.2795898 C109.912207,95.8992187 111.841992,93.9691406 114.222656,93.9691406 C116.603613,93.9691406 118.533398,95.8992187 118.533398,98.2795898 L118.533398,105.607324 L125.861133,105.607324 C128.241797,105.607324 130.171582,107.537695 130.171582,109.917773 C130.171582,112.298145 128.241797,114.228516 125.861133,114.228516" id="Fill-21"></path>
                </g>
            </g>
        </g>
    </g>
</svg>