<?xml version="1.0" encoding="UTF-8"?>
<svg width="127px" preserveAspectRatio="none" height="140px" viewBox="0 0 127 140" version="1.1" xmlns="http://www.w3.org/2000/svg" xmlns:xlink="http://www.w3.org/1999/xlink">
    <!-- Generator: Sketch 51.1 (57501) - http://www.bohemiancoding.com/sketch -->
    <title>appointment to do list icon</title>
    <desc>Created with Sketch.</desc>
    <defs></defs>
    <g id="To-Do-list" stroke="none" stroke-width="1" fill="none" fill-rule="evenodd" opacity="0.0402343765">
        <g id="Book-an-appointment" transform="translate(-248.000000, 0.000000)">
            <g id="appointment-to-do-list-icon" transform="translate(248.000000, -10.000000)">
                <g id="Group">
                    <path d="M14.9333982,149.994742 C8.91499513,149.994742 4.01888997,145.098929 4.01888997,139.080818 L4.01888997,45.5421616 C4.01888997,43.0767283 6.018111,41.0772152 8.48412853,41.0772152 C10.9501461,41.0772152 12.949075,43.0767283 12.949075,45.5421616 L12.949075,139.080818 C12.949075,140.174781 13.8394352,141.064557 14.9333982,141.064557 L134.628432,141.064557 C135.722395,141.064557 136.612756,140.174781 136.612756,139.080818 L136.612756,81.266407 C136.612756,78.8009737 138.611685,76.8014606 141.077702,76.8014606 C143.54372,76.8014606 145.542941,78.8009737 145.542941,81.266407 L145.542941,139.080818 C145.542941,145.099221 140.646835,149.994742 134.628432,149.994742 L14.9333982,149.994742 Z" id="Fill-1" fill="#000000"></path>
                    <path d="M145.096884,42.5672833 L145.096884,18.5777994 C145.096884,15.0160662 142.209056,12.1288218 138.647322,12.1288218 L10.9145083,12.1288218 C7.35277507,12.1285297 4.46523856,15.0160662 4.46523856,18.5777994 L4.46523856,42.5678676 L145.096884,42.5678676 L145.096884,42.5672833" id="Fill-3" fill="#00BCD4"></path>
                    <path d="M8.930185,38.102629 L140.631646,38.102629 L140.631646,18.5777994 C140.631646,17.4838364 139.741285,16.5940604 138.647322,16.5940604 L10.9145083,16.5940604 C9.82054528,16.5940604 8.930185,17.4838364 8.930185,18.5777994 L8.930185,38.102629 Z M145.096884,47.032814 L4.46523856,47.032814 C1.99892892,47.032814 0,45.033593 0,42.5678676 L0,18.5777994 C0,12.5593963 4.89581305,7.66387537 10.9145083,7.66387537 L138.647322,7.66387537 C144.666018,7.66387537 149.561831,12.5596884 149.561831,18.5777994 L149.561831,42.5678676 C149.561831,45.0333009 147.562902,47.032814 145.096884,47.032814 Z" id="Fill-4" fill="#000000"></path>
                    <path d="M48.6037975,24.8555988 C46.1377799,24.8555988 44.1385589,22.8563778 44.1385589,20.3906524 L44.1385589,4.46494645 C44.1385589,1.99951315 46.1377799,0 48.6037975,0 C51.069815,0 53.0687439,1.99951315 53.0687439,4.46494645 L53.0687439,20.3906524 C53.0687439,22.8563778 51.069815,24.8555988 48.6037975,24.8555988" id="Fill-7" fill="#000000"></path>
                    <path d="M100.958033,24.8555988 C98.4920156,24.8555988 96.4930867,22.8563778 96.4930867,20.3906524 L96.4930867,4.46494645 C96.4930867,1.99951315 98.4920156,0 100.958033,0 C103.424051,0 105.423272,1.99951315 105.423272,4.46494645 L105.423272,20.3906524 C105.423272,22.8563778 103.424051,24.8555988 100.958033,24.8555988" id="Fill-8" fill="#000000"></path>
                    <path d="M127.135151,24.8555988 C124.669133,24.8555988 122.669912,22.8563778 122.669912,20.3906524 L122.669912,4.46494645 C122.669912,1.99951315 124.669133,0 127.135151,0 C129.601168,0 131.600097,1.99951315 131.600097,4.46494645 L131.600097,20.3906524 C131.600097,22.8563778 129.601168,24.8555988 127.135151,24.8555988" id="Fill-10" fill="#000000"></path>
                    <path d="M22.4266796,24.8555988 C19.9606621,24.8555988 17.9617332,22.8563778 17.9617332,20.3906524 L17.9617332,4.46494645 C17.9617332,1.99951315 19.9606621,0 22.4266796,0 C24.8926972,0 26.8919182,1.99951315 26.8919182,4.46494645 L26.8919182,20.3906524 C26.8919182,22.8563778 24.8926972,24.8555988 22.4266796,24.8555988" id="Fill-6" fill="#000000"></path>
                    <path d="M74.7806232,24.8555988 C72.3146056,24.8555988 70.3156767,22.8563778 70.3156767,20.3906524 L70.3156767,4.46494645 C70.3156767,1.99951315 72.3146056,0 74.7806232,0 C77.2466407,0 79.2458617,1.99951315 79.2458617,4.46494645 L79.2458617,20.3906524 C79.2458617,22.8563778 77.2466407,24.8555988 74.7806232,24.8555988" id="Fill-9" fill="#000000"></path>
                    <path d="M74.2440117,105.369523 C73.0597858,105.369523 71.9240506,104.898929 71.0868549,104.061733 L57.2459591,90.2208374 C55.5023369,88.4772152 55.5023369,85.6498539 57.2459591,83.9059396 C58.9895813,82.1626095 61.8166504,82.1631938 63.5602726,83.9059396 L74.2434275,94.5893866 L94.5855891,74.247517 C96.3292113,72.504187 99.1565725,72.504187 100.900487,74.247517 C102.644109,75.9911392 102.644109,78.8185005 100.900487,80.5624148 L77.4011685,104.061733 C76.5639727,104.898929 75.4285297,105.369523 74.2440117,105.369523" id="Fill-11" fill="#000000"></path>
                    <path d="M105.356962,121.901363 L44.2048685,121.901363 C41.7385589,121.901363 39.73963,119.902142 39.73963,117.436417 L39.73963,69.6923077 C39.73963,67.2265823 41.7385589,65.2270691 44.2048685,65.2270691 L71.9529698,65.2270691 C74.4189873,65.2270691 76.4179163,67.2265823 76.4179163,69.6923077 C76.4179163,72.157741 74.4189873,74.1572541 71.9529698,74.1572541 L48.669815,74.1572541 L48.669815,112.971762 L100.892016,112.971762 L100.892016,93.8591042 C100.892016,91.3933788 102.890944,89.3938656 105.356962,89.3938656 C107.823272,89.3938656 109.822201,91.3933788 109.822201,93.8591042 L109.822201,117.436709 C109.822201,119.902434 107.823272,121.901363 105.356962,121.901363" id="Fill-12" fill="#000000"></path>
                </g>
            </g>
        </g>
    </g>
</svg>