<?xml version="1.0" encoding="UTF-8"?>
<svg width="24px" preserveAspectRatio="none" height="24px" viewBox="0 0 24 24" version="1.1" xmlns="http://www.w3.org/2000/svg" xmlns:xlink="http://www.w3.org/1999/xlink">
    <!-- Generator: Sketch 51.1 (57501) - http://www.bohemiancoding.com/sketch -->
    <title>precall Q&amp;A icon</title>
    <desc>Created with Sketch.</desc>
    <defs></defs>
    <g id="To-Do-list" stroke="none" stroke-width="1" fill="none" fill-rule="evenodd">
        <g id="follow-up-expanded-with-Questions-asked-but-not-answered" transform="translate(-20.000000, -287.000000)">
            <g id="pre-call-q&amp;a-section" transform="translate(0.000000, 283.000000)">
                <g id="patient-writes-something-copy" transform="translate(20.000000, 0.000000)">
                    <g id="pre-call-Q-A-icon" transform="translate(0.000000, 4.000000)">
                        <g id="Group-8" stroke-width="1" transform="translate(17.000000, 14.000000)"></g>
                        <path d="M18,10.7905419 C18,13.5203687 16.0973934,15.8090115 13.5330106,16.4156397 L13.5330106,18.2079502 C13.5330106,18.9800225 12.9539564,19.5590767 12.1818841,19.5590767 C11.4649599,19.5590767 10.8307577,18.9800225 10.8307577,18.2079502 L10.8307577,15.3402533 C10.8307577,15.3126793 10.8583317,15.3126793 10.8583317,15.2851053 C10.8307577,15.2575313 10.8307577,15.2575313 10.8307577,15.2299573 C10.8307577,14.5130331 11.4649599,13.8788309 12.1818841,13.8788309 C13.9190467,13.8788309 15.3253211,12.5001304 15.3253211,10.7905419 C15.3253211,9.0533793 13.9190467,7.70225287 12.1818841,7.70225287 C11.0513498,7.70225287 10.0586855,8.30888106 9.53477928,9.21882335 C9.14874316,9.88059957 8.32152289,10.1011916 7.65974668,9.71515551 C7.02554448,9.32911939 6.80495241,8.52947313 7.19098853,7.86769692 C8.18365285,6.15810837 10.0586855,5 12.1818841,5 C15.3804692,5 18,7.59195683 18,10.7905419 Z" id="?" fill="#01579B"></path>
                        <path d="M12.0020508,24 C11.9697658,24 11.9377151,23.9997656 11.9054887,23.9995313 C8.70593405,23.9748048 5.71081196,22.7184438 3.47189711,20.4614821 C1.23298226,18.2046963 0,15.1997305 0,12 C0,5.38397762 5.38257137,0.000937495422 11.9983594,0 L12,0 C15.1754728,0 18.1674308,1.22472058 20.42533,3.44875269 C22.6836978,5.67348792 23.9525979,8.64734059 23.9985938,11.822579 C24.0271874,13.7962412 23.5689865,15.7499817 22.6718034,17.491731 L23.6573454,21.1698771 C23.7534973,21.5292308 23.6500212,21.9157719 23.3870538,22.178798 C23.1240277,22.441531 22.7374866,22.5451829 22.3783673,22.4488552 L19.6212518,21.710226 C19.2479529,21.610207 19.0266454,21.2264198 19.12643,20.8532966 C19.2264491,20.4799977 19.6100605,20.2584558 19.9833595,20.3584748 L22.1467473,20.9382571 L21.2490369,17.5881172 C21.2025723,17.4143876 21.2245448,17.2294667 21.3106186,17.071733 C22.18038,15.4789869 22.6259833,13.6707926 22.5994404,11.8427351 C22.5163549,6.08411092 17.7611437,1.39915332 12,1.39915332 L11.9985938,1.39915332 C6.15413011,1.40009082 1.39915332,6.15553635 1.39915332,12 C1.39915332,17.8002842 6.11704044,22.5554953 11.9162113,22.6003779 C13.5881758,22.6127411 15.1915274,22.2478796 16.6796842,21.5141137 C17.0262059,21.3433723 17.4455008,21.4854615 17.6164765,21.8320418 C17.7874522,22.178798 17.6451287,22.5980928 17.2985483,22.7690685 C15.641701,23.58592 13.8598737,23.9997656 12.0020508,24 Z" id="Fill-1" fill="#01579B"></path>
                    </g>
                </g>
            </g>
        </g>
    </g>
</svg>