<?xml version="1.0" encoding="UTF-8"?>
<svg width="24px" preserveAspectRatio="none" height="24px" viewBox="0 0 24 24" version="1.1" xmlns="http://www.w3.org/2000/svg" xmlns:xlink="http://www.w3.org/1999/xlink">
    <!-- Generator: Sketch 51.1 (57501) - http://www.bohemiancoding.com/sketch -->
    <title>appointment to do list icon copy 2</title>
    <desc>Created with Sketch.</desc>
    <defs></defs>
    <g id="To-Do-list" stroke="none" stroke-width="1" fill="none" fill-rule="evenodd">
        <g id="follow-up-expanded-with-Questions-asked-but-not-answered" transform="translate(-20.000000, -184.000000)" fill="#01579B">
            <g id="reason-for-following-up" transform="translate(20.000000, 183.000000)">
                <g id="quotation-mark" transform="translate(0.000000, 1.000000)">
                    <g>
                        <path d="M10.1965745,1.89447115 C7.55525841,2.20691106 5.59642428,3.18560697 4.22704327,4.87166466 C2.68647837,6.76856971 1.90528846,9.6179387 1.90528846,13.340625 L1.90528846,20.9209435 C1.90528846,21.6186599 2.47292668,22.1862981 3.17064303,22.1862981 L12.9027043,22.1862981 C13.6004207,22.1862981 14.1680589,21.6186599 14.1680589,20.9209435 L14.1680589,15.1604567 C14.1680589,14.4627404 13.6004207,13.8951022 12.9027043,13.8951022 L6.24023437,13.8951022 C5.74236779,13.8951022 5.33879207,13.4914363 5.33879207,12.9936599 C5.33879207,7.50180288 7.81775841,5.67241587 10.1965745,5.18194111 L10.1965745,1.89447115 Z M3.17064303,23.9891827 C1.47881611,23.9891827 0.102403846,22.6127704 0.102403846,20.9209435 L0.102403846,13.340625 C0.102403846,9.19335937 1.01926082,5.96159856 2.82755409,3.73503606 C4.66875,1.4679988 7.43428486,0.215444712 11.0473558,0.0121694712 C11.2945312,-0.00144230769 11.5371094,0.0868088942 11.7172175,0.257091346 C11.8973257,0.427373798 11.999369,0.664362981 11.999369,0.912169471 L11.999369,5.95925481 C11.999369,6.42548077 11.6439303,6.81472356 11.1795974,6.8570012 C9.55222356,7.00510817 7.42157452,7.72599159 7.16682692,12.0921274 L12.9026142,12.0921274 C14.5944411,12.0921274 15.9708534,13.4685397 15.9708534,15.1603666 L15.9708534,20.9208534 C15.9709435,22.6127704 14.5945312,23.9891827 12.9027043,23.9891827 L3.17064303,23.9891827 Z" id="Fill-8"></path>
                        <path d="M14.0048978,23.9891827 C12.3130709,23.9891827 13.3071815,22.1862981 14.0048978,22.1862981 L20.7369591,22.1862981 C21.4346755,22.1862981 22.0023137,21.6186599 22.0023137,20.9209435 L22.0023137,15.1604567 C22.0023137,14.4627404 21.4346755,13.8951022 20.7369591,13.8951022 L17.0744892,13.8951022 C16.5766226,13.8951022 16.1730469,13.4914363 16.1730469,12.9936599 C16.1730469,7.50180288 18.6520132,5.67250601 21.0308293,5.18194111 L21.0308293,1.8945613 C18.3894231,2.2070012 16.4306791,3.18569712 15.0612981,4.87175481 C13.5207332,6.76865986 12.7396334,8.61802885 12.7396334,12.3407151 L12.7396334,12.6527043 C12.7396334,13.1504808 12.3360577,13.5541466 11.8381911,13.5541466 C11.3403245,13.5541466 10.9367488,13.1504808 10.9367488,12.6527043 L10.9367488,12.3407151 C10.9367488,8.19344952 11.8536058,5.9616887 13.6618089,3.7351262 C15.5030048,1.46808894 18.2685397,0.215534856 21.8817007,0.0122596154 C22.1288762,-0.00135216346 22.3714543,0.0868990385 22.5515625,0.25718149 C22.7316707,0.427463942 22.8337139,0.664453125 22.8337139,0.912259615 L22.8337139,5.95934495 C22.8337139,6.42557091 22.4782752,6.8148137 22.0139423,6.85709135 C20.3865685,7.00519832 18.2559195,7.72617187 18.0011719,12.0922175 L20.7369591,12.0922175 C22.4287861,12.0922175 23.8051983,13.4686298 23.8051983,15.1604567 L23.8051983,20.9209435 C23.8051983,22.6127704 22.4287861,23.9891827 20.7369591,23.9891827 L14.0048978,23.9891827 Z" id="Fill-9"></path>
                        <path d="M10.8381911,17.7692308 C10.3403245,17.7692308 9.9367488,17.3655649 9.9367488,16.8677885 L9.9367488,16.8301983 C9.9367488,16.3324219 10.3403245,15.928756 10.8381911,15.928756 C11.3360577,15.928756 11.7396334,16.3324219 11.7396334,16.8301983 L11.7396334,16.8677885 C11.7396334,17.3655649 11.3360577,17.7692308 10.8381911,17.7692308" id="Fill-10"></path>
                    </g>
                </g>
            </g>
        </g>
    </g>
</svg>