<?xml version="1.0" encoding="UTF-8"?>
<svg  preserveAspectRatio="none" width="100px" height="100px" viewBox="0 0 100 100" version="1.1" xmlns="http://www.w3.org/2000/svg" xmlns:xlink="http://www.w3.org/1999/xlink">
    <!-- Generator: Sketch 51.1 (57501) - http://www.bohemiancoding.com/sketch -->
    <title>add picture</title>
    <desc>Created with Sketch.</desc>
    <defs>
        <linearGradient x1="36.7890625%" y1="-6.37890625%" x2="61.9140625%" y2="109.621094%" id="linearGradient-1">
            <stop stop-color="#41CBC7" offset="0%"></stop>
            <stop stop-color="#4C98CF" offset="100%"></stop>
        </linearGradient>
        <linearGradient x1="0%" y1="-99.0182376%" x2="100%" y2="224.474724%" id="linearGradient-2">
            <stop stop-color="#41CBC7" offset="0%"></stop>
            <stop stop-color="#4C98CF" offset="100%"></stop>
        </linearGradient>
    </defs>
    <g id="onboarding" stroke="none" stroke-width="1" fill="none" fill-rule="evenodd">
        <g id="register-as-practice" transform="translate(-138.000000, -99.000000)">
            <g id="add-image" transform="translate(30.000000, 99.000000)">
                <g id="add-picture" transform="translate(108.000000, 0.000000)">
                    <circle id="Oval-2" stroke="url(#linearGradient-1)" stroke-width="2" cx="50" cy="50" r="49"></circle>
                    <g id="Group" transform="translate(31.000000, 35.000000)">
                        <g id="Group-3" fill="url(#linearGradient-2)">
                            <path d="M32.7272727,2.24988636 L13.0907955,2.24988636 C13.0907955,1.04693182 12.1120455,0.0681818182 10.9090909,0.0681818182 L7.99977273,0.0681818182 C6.79681818,0.0681818182 5.81806818,1.04693182 5.81806818,2.24988636 L5.09102273,2.24988636 C2.28386364,2.24988636 0,4.53375 0,7.34090909 L0,24.7956818 C0,27.6023864 2.28386364,29.8861364 5.09102273,29.8861364 L32.7272727,29.8861364 C35.5344318,29.8861364 37.8182955,27.6023864 37.8182955,24.7956818 L37.8182955,7.34090909 C37.8182955,4.53375 35.5344318,2.24988636 32.7272727,2.24988636 Z M7.99977273,1.52284091 L10.9090909,1.52284091 C11.3098864,1.52284091 11.6361364,1.84909091 11.6361364,2.24988636 L7.27272727,2.24988636 C7.27272727,1.84909091 7.59897727,1.52284091 7.99977273,1.52284091 Z M32.7272727,28.4320455 L5.09102273,28.4320455 C3.08590909,28.4320455 1.45465909,26.8006818 1.45465909,24.7956818 L1.45465909,10.9772727 L7.27272727,10.9772727 C7.67443182,10.9772727 7.99977273,10.6514773 7.99977273,10.2502273 C7.99977273,9.84840909 7.67443182,9.52261364 7.27272727,9.52261364 L1.45465909,9.52261364 L1.45465909,7.34090909 C1.45465909,5.33579545 3.08590909,3.70454545 5.09102273,3.70454545 L32.7272727,3.70454545 C34.7323864,3.70454545 36.3636364,5.33579545 36.3636364,7.34090909 L36.3636364,9.52261364 L30.5455682,9.52261364 C30.1438636,9.52261364 29.8179545,9.84840909 29.8179545,10.2502273 C29.8179545,10.6514773 30.1438636,10.9772727 30.5455682,10.9772727 L36.3636364,10.9772727 L36.3636364,24.7956818 C36.3636364,26.8006818 34.7323864,28.4320455 32.7272727,28.4320455 Z" id="Fill-1"></path>
                        </g>
                        <path d="M18.9088636,5.15920455 C12.89375,5.15920455 7.99977273,10.0530682 7.99977273,16.0682955 C7.99977273,22.0834091 12.89375,26.9773864 18.9088636,26.9773864 C24.9245455,26.9773864 29.8179545,22.0834091 29.8179545,16.0682955 C29.8179545,10.0530682 24.9245455,5.15920455 18.9088636,5.15920455 Z M18.9088636,25.5227273 C13.6957955,25.5227273 9.45443182,21.2813636 9.45443182,16.0682955 C9.45443182,10.8547727 13.6957955,6.61386364 18.9088636,6.61386364 C24.1223864,6.61386364 28.3638636,10.8547727 28.3638636,16.0682955 C28.3638636,21.2813636 24.1223864,25.5227273 18.9088636,25.5227273 Z" id="Fill-4" fill="url(#linearGradient-2)"></path>
                        <path d="M32.0002273,8.79556818 C33.2031818,8.79556818 34.1819318,7.81681818 34.1819318,6.61386364 C34.1819318,5.41045455 33.2031818,4.43159091 32.0002273,4.43159091 C30.7968182,4.43159091 29.8179545,5.41045455 29.8179545,6.61386364 C29.8179545,7.81681818 30.7968182,8.79556818 32.0002273,8.79556818 Z M32.0002273,5.88625 C32.4010227,5.88625 32.7272727,6.2125 32.7272727,6.61386364 C32.7272727,7.01465909 32.4010227,7.34090909 32.0002273,7.34090909 C31.5988636,7.34090909 31.2726136,7.01465909 31.2726136,6.61386364 C31.2726136,6.2125 31.5988636,5.88625 32.0002273,5.88625 Z" id="Fill-7" fill="url(#linearGradient-2)"></path>
                        <text id="+" font-family=".SFNSDisplay, .SF NS Display" font-size="20" font-weight="normal" fill="#46B4CA">
                            <tspan x="13" y="23">+</tspan>
                        </text>
                    </g>
                </g>
            </g>
        </g>
    </g>
</svg>