<?xml version="1.0" encoding="UTF-8"?>
<svg width="26px" preserveAspectRatio="none" height="26px" viewBox="0 0 26 26" version="1.1" xmlns="http://www.w3.org/2000/svg" xmlns:xlink="http://www.w3.org/1999/xlink">
    <!-- Generator: Sketch 51.1 (57501) - http://www.bohemiancoding.com/sketch -->
    <title>Group</title>
    <desc>Created with Sketch.</desc>
    <defs></defs>
    <g id="Symbols" stroke="none" stroke-width="1" fill="none" fill-rule="evenodd">
        <g id="logout-icon" fill="#FFFFFF">
            <g id="Group">
                <g id="Group-4" transform="translate(0.000000, 7.772632)">
                    <path d="M9.2092,6.55167158 L14.1976968,6.55167158 L14.1976968,3.86841684 L9.2092,3.86841684 L9.2092,6.55167158 Z M7.69753263,8.34501474 L2.26752842,5.21001684 L7.69753263,2.07496421 L7.69753263,8.34501474 Z M14.9535579,2.35674947 L9.2092,2.35674947 L9.2092,0.765877895 C9.2092,0.495806316 9.06513263,0.246315789 8.83124211,0.111334737 C8.59740632,-0.0236463158 8.30927158,-0.0236463158 8.07543579,0.111334737 L0.377903158,4.55541895 C0.144067368,4.6904 0,4.93989053 0,5.20996211 C0,5.48003368 0.144067368,5.72952421 0.377903158,5.86450526 L8.07543579,10.3086989 C8.19235368,10.3761895 8.32279158,10.4099621 8.45333895,10.4099621 C8.58388632,10.4099621 8.71432421,10.3761895 8.83124211,10.3086989 C9.06513263,10.1737179 9.2092,9.92417263 9.2092,9.65415579 L9.2092,8.06322947 L14.9535579,8.06322947 C15.3709263,8.06322947 15.7093642,7.72484632 15.7093642,7.30742316 L15.7093642,3.11250105 C15.7093642,2.69513263 15.3709263,2.35674947 14.9535579,2.35674947 Z" id="Fill-3"></path>
                </g>
                <g id="Group-9" transform="translate(2.160000, 0.000000)">
                    <path d="M14.3039411,6.31455158 L14.3039411,19.6507453 C16.7827537,18.3878568 18.3854484,15.8272674 18.3854484,12.9825937 C18.3854484,10.13792 16.7827537,7.57738526 14.3039411,6.31455158 Z M13.5481895,21.5431074 C13.3921895,21.5431074 13.2378316,21.4948295 13.1076674,21.4015579 C12.9097389,21.2596253 12.7922737,21.03088 12.7922737,20.7873011 L12.7922737,5.17799579 C12.7922737,4.93436211 12.9097389,4.70567158 13.1076674,4.56373895 C13.3055411,4.42186105 13.5599032,4.38398316 13.7906737,4.46214737 C17.4430989,5.69980211 19.8971158,9.12392 19.8971158,12.9826484 C19.8971158,16.8414316 17.4430989,20.2655495 13.7906737,21.5032042 C13.7115242,21.5299705 13.6295832,21.5431074 13.5481895,21.5431074 Z" id="Fill-6"></path>
                    <path d="M10.9027032,25.9452632 C6.57860211,25.9452632 2.55478737,23.8001263 0.138648421,20.2069811 C-0.0942021053,19.8605516 -0.00224421053,19.3908547 0.344185263,19.1580042 C0.69056,18.9249895 1.16025684,19.0170568 1.39321684,19.3634316 C3.52789895,22.5381684 7.08283789,24.4335958 10.9027032,24.4335958 C17.2167074,24.4335958 22.3535958,19.2967621 22.3535958,12.9826484 C22.3535958,6.66858947 17.2167074,1.53175579 10.9027032,1.53175579 C7.08283789,1.53175579 3.52789895,3.42718316 1.39321684,6.60192 C1.16025684,6.94829474 0.690505263,7.04030737 0.344185263,6.80734737 C-0.00224421053,6.57438737 -0.0942021053,6.1048 0.138648421,5.75837053 C2.55478737,2.16522526 6.57871158,0.0200884211 10.9027032,0.0200884211 C18.05024,0.0200884211 23.8652632,5.83511158 23.8652632,12.9826484 C23.8652632,20.13024 18.0502947,25.9452632 10.9027032,25.9452632" id="Fill-8"></path>
                </g>
            </g>
        </g>
    </g>
</svg>