<?xml version="1.0" encoding="UTF-8"?>
<svg width="26px" preserveAspectRatio="none" height="26px" viewBox="0 0 26 26" version="1.1" xmlns="http://www.w3.org/2000/svg" xmlns:xlink="http://www.w3.org/1999/xlink">
    <!-- Generator: Sketch 51.1 (57501) - http://www.bohemiancoding.com/sketch -->
    <title>Group</title>
    <desc>Created with Sketch.</desc>
    <defs></defs>
    <g id="Symbols" stroke="none" stroke-width="1" fill="none" fill-rule="evenodd">
        <g id="help-center-icon" fill="#FFFFFF">
            <g id="Group">
                <path d="M18.6342456,16.6995517 C18.4165146,16.6995517 18.211809,16.7843431 18.0578363,16.9383158 L16.8876842,18.1084678 C16.5698558,18.4262963 16.5698558,18.9434581 16.8876842,19.2613372 L20.7768382,23.1505926 C20.9308109,23.3045653 21.1355166,23.389306 21.3532982,23.389306 C21.5710799,23.389306 21.7757856,23.3045653 21.9297076,23.1504912 L23.0997583,21.9803899 C23.2538324,21.8264172 23.3385731,21.6217115 23.3385731,21.4039805 C23.3385731,21.1862495 23.2538324,20.9815439 23.0997583,20.8275712 L19.2106043,16.9383665 C19.0566316,16.7843431 18.8519766,16.6995517 18.6342456,16.6995517 Z M21.3532982,24.9221404 C20.7261053,24.9221404 20.1365185,24.6779025 19.6929981,24.2344327 L15.8037934,20.3451774 C14.8884211,19.4297544 14.8884211,17.940152 15.8037934,17.024577 L16.9739961,15.854425 C17.4174152,15.4110058 18.0070019,15.1667173 18.6342456,15.1667173 C19.2614893,15.1667173 19.851076,15.4110058 20.2945458,15.8545263 L24.1837505,19.7436803 C24.6271696,20.1872008 24.8715088,20.7768382 24.8715088,21.4040312 C24.8715088,22.0312242 24.6271696,22.6208109 24.1837505,23.0643314 L23.0136491,24.2344327 C22.5701287,24.6779025 21.9804912,24.9221404 21.3532982,24.9221404 Z" id="Fill-4"></path>
                <path d="M16.8877349,7.94216374 C16.6660507,7.72047953 16.5995049,7.4019922 16.6870331,7.12166862 C16.6879454,7.11898246 16.6891618,7.11654971 16.6900234,7.11386355 C16.699653,7.08385965 16.7111072,7.05492008 16.7238285,7.02679142 C16.7248928,7.02440936 16.7260585,7.02202729 16.7271228,7.01959454 C16.7383236,6.9954191 16.7508928,6.97220663 16.7642729,6.94950097 C16.7675673,6.94402729 16.7706589,6.93835088 16.7741053,6.93287719 C16.7863704,6.91311111 16.7999025,6.89420663 16.8138908,6.87555556 C16.8185536,6.869423 16.8226589,6.86298635 16.8275244,6.85695517 C16.8461248,6.83359064 16.8658908,6.81103704 16.8872788,6.78975049 C16.8874308,6.78959844 16.8875828,6.78934503 16.8878363,6.78919298 L20.7769903,2.90003899 C20.930963,2.74601559 21.1356686,2.66117349 21.3534503,2.66117349 C21.571232,2.66117349 21.7759376,2.74596491 21.9298596,2.89993762 L23.0997583,4.07024172 C23.2538324,4.22421442 23.3385731,4.42892008 23.3385731,4.64665107 C23.3385731,4.86443275 23.2538324,5.0691384 23.0997583,5.22311111 L19.2106043,9.11226511 C19.1890643,9.13380507 19.166308,9.1537232 19.1427914,9.17252632 C19.1377739,9.17647953 19.1326043,9.17992593 19.1275867,9.18377778 C19.1073645,9.1991345 19.0867368,9.21383236 19.0651969,9.22716179 C19.0619025,9.22923977 19.0584561,9.23121637 19.0551111,9.23319298 C19.0024522,9.26471735 18.9461949,9.2905653 18.8860858,9.30992593 C18.8794971,9.31205458 18.8733645,9.31499415 18.8668772,9.31722417 C18.7922729,9.33927096 18.7141715,9.35092788 18.6342456,9.35092788 C18.4165146,9.35092788 18.211809,9.26618713 18.0578363,9.11211306 L16.8877349,7.94216374 Z M9.06158285,7.94211306 L7.89148148,9.11221442 C7.73750877,9.26618713 7.53280312,9.35102924 7.31507212,9.35102924 C7.23489279,9.35102924 7.15658869,9.33927096 7.08178168,9.31707212 C7.07549708,9.31484211 7.06951657,9.3120039 7.0631306,9.30992593 C7.00327485,9.2905653 6.94711891,9.26476803 6.89461209,9.23344639 C6.89101365,9.23121637 6.88731384,9.2291384 6.88366472,9.2268577 C6.86242885,9.21373099 6.84210526,9.19928655 6.82218713,9.18418324 C6.8168655,9.18017934 6.81139181,9.17647953 6.80622222,9.1722729 C6.78280702,9.15352047 6.76010136,9.13365302 6.7385614,9.11211306 L2.84945809,5.22300975 C2.53162963,4.90518129 2.53162963,4.38801949 2.84945809,4.07019103 L4.01961014,2.90003899 C4.17358285,2.74606628 4.3782885,2.66117349 4.59601949,2.66117349 C4.81380117,2.66117349 5.01850682,2.74596491 5.17247953,2.89993762 L9.06163353,6.78919298 C9.08317349,6.81073294 9.10309162,6.83348928 9.12189474,6.85700585 C9.12584795,6.86202339 9.12929435,6.86719298 9.1331462,6.87221053 C9.14850292,6.89243275 9.16320078,6.91306043 9.17653021,6.93460039 C9.17860819,6.93789474 9.1805848,6.94134113 9.1825614,6.94468616 C9.21408577,6.99734503 9.23993372,7.05360234 9.25929435,7.1137115 C9.26137232,7.12004678 9.26421053,7.12602729 9.26649123,7.13231189 C9.28874074,7.20701754 9.30039766,7.28537232 9.30039766,7.36555166 C9.30039766,7.58348538 9.21560624,7.78819103 9.06158285,7.94211306 Z M5.85263548,10.3730877 C5.22290838,12.0749981 5.22290838,13.9756335 5.85263548,15.6775439 C5.84949318,15.680078 5.84660429,15.6828148 5.84346199,15.6853489 C5.8199961,15.7043041 5.79703704,15.7239688 5.77417934,15.7439376 C5.76500585,15.7519454 5.75557895,15.7596491 5.74650682,15.767809 C5.71706043,15.7943665 5.68817154,15.8216335 5.65989084,15.8497622 C5.65821832,15.851384 5.65644444,15.8529045 5.65487329,15.854577 L2.9537115,18.5555361 C1.04299025,15.1098519 1.04299025,10.940729 2.9537115,7.49504483 L5.65477193,10.1961559 C5.68452242,10.2259571 5.71508382,10.2545926 5.74615205,10.2825692 C5.75562963,10.2911852 5.76551267,10.2992437 5.77519298,10.3076569 C5.79764522,10.327271 5.82030019,10.3465809 5.84341131,10.3652827 C5.84655361,10.3677661 5.84949318,10.3705536 5.85263548,10.3730877 Z M9.06158285,18.1084678 C9.21555556,18.2624405 9.30039766,18.4671462 9.30039766,18.6848772 C9.30039766,18.7650565 9.28863938,18.8433606 9.26644055,18.9181676 C9.26421053,18.9244522 9.26137232,18.9304327 9.25929435,18.9368187 C9.23993372,18.9968265 9.21408577,19.0530838 9.18266277,19.1056413 C9.1805848,19.1090877 9.17860819,19.1126355 9.17642885,19.1159805 C9.16320078,19.1374698 9.14855361,19.1580975 9.13329825,19.1781676 C9.12939571,19.1832359 9.12594932,19.1885068 9.12189474,19.1934737 C9.10309162,19.2169903 9.08317349,19.2397973 9.06163353,19.2612865 L5.17247953,23.1505926 C5.01850682,23.3045653 4.81380117,23.3894074 4.59601949,23.3894074 C4.3782885,23.3894074 4.17358285,23.304616 4.01961014,23.1505926 L2.84945809,21.9803899 C2.53162963,21.6625614 2.53162963,21.1453996 2.84945809,20.8275712 L6.73871345,16.9383665 C6.76025341,16.9168265 6.78300975,16.8969084 6.80652632,16.8781559 C6.81154386,16.874152 6.81671345,16.8707057 6.82178168,16.8668031 C6.84195322,16.8514464 6.8625809,16.8368499 6.88412086,16.8235205 C6.88746589,16.8214425 6.89091228,16.8194152 6.89430799,16.8173879 C6.9468655,16.7858635 7.00322417,16.7600156 7.06323197,16.740655 C7.06956725,16.738577 7.07554776,16.7357388 7.08183236,16.7335088 C7.15658869,16.7113099 7.23494347,16.699653 7.31512281,16.699653 C7.5328538,16.699653 7.73755945,16.7843938 7.89153216,16.9384678 L9.06158285,18.1084678 Z M10.3224055,20.1473645 C11.1673801,20.4605809 12.0717544,20.6241326 12.9746589,20.6241326 C13.8775634,20.6241326 14.7819376,20.4605809 15.6269123,20.1473645 C15.6818012,20.2160897 15.7407446,20.282078 15.8037934,20.345076 L18.504499,23.045883 C16.8190097,23.9782339 14.9255205,24.467115 12.9746589,24.467115 C11.0237466,24.467115 9.13030799,23.9782339 7.44481871,23.045883 L10.1455244,20.345076 C10.1753255,20.3152749 10.2040624,20.2846121 10.2321404,20.2534932 C10.2404016,20.2443197 10.2482066,20.2347914 10.2563158,20.2255166 C10.2762846,20.2027096 10.2958986,20.1798012 10.3148031,20.1562339 C10.3171852,20.1532437 10.319922,20.1504055 10.3224055,20.1473645 Z M24.1172554,6.37339571 L24.1837505,6.30695127 C24.6271696,5.8634308 24.8715088,5.27384405 24.8715088,4.64660039 C24.8715088,4.01945809 24.6271696,3.42982066 24.1837505,2.98630019 L23.0136491,1.81614815 C22.5701287,1.37267836 21.9804912,1.12844055 21.3532982,1.12844055 C20.7261053,1.12844055 20.1365185,1.37267836 19.6929981,1.81614815 L15.8037934,5.70540351 C15.7736881,5.73550877 15.7446472,5.76642495 15.7165185,5.79774659 C15.7066862,5.80869396 15.6974113,5.82004678 15.6878324,5.8311462 C15.6700936,5.85177388 15.6522027,5.87240156 15.6352749,5.89338402 C15.6325887,5.89677973 15.6295984,5.89992203 15.6269123,5.90326706 C13.9247992,5.27353996 12.0241637,5.2734386 10.322,5.9034191 C10.2967096,5.87179337 10.2706082,5.84067446 10.2435945,5.81026511 C10.2404522,5.80671735 10.2375634,5.80301754 10.2344211,5.79952047 C10.2056842,5.76753996 10.1762378,5.73606628 10.145575,5.70540351 L7.44471735,3.00464717 C9.1305614,2.07204288 11.0231891,1.58346589 12.9741014,1.58346589 C12.9869747,1.58346589 13.0002027,1.58366862 13.013076,1.58351657 C13.4352086,1.58351657 13.7780741,1.24196881 13.7793918,0.819481481 C13.7807602,0.396233918 13.4387057,0.052 13.0154581,0.0506822612 C10.6436803,0.0427251462 8.34098246,0.675087719 6.3228655,1.88269396 L6.25642105,1.81614815 C5.81290058,1.37267836 5.22326316,1.12844055 4.59601949,1.12844055 C3.96887719,1.12844055 3.37929045,1.37267836 2.93576998,1.81614815 L1.76561793,2.98630019 C1.32214815,3.42982066 1.07791033,4.01945809 1.07791033,4.64660039 C1.07791033,5.27384405 1.32214815,5.8634308 1.76561793,6.30695127 L1.83206238,6.37339571 C0.63185575,8.37904483 0,10.665423 0,13.0252904 C0,15.3851579 0.63185575,17.6715361 1.83206238,19.6771852 L1.76561793,19.7436296 C1.32214815,20.1871501 1.07791033,20.7767368 1.07791033,21.4039805 C1.07791033,22.0311228 1.32214815,22.6207602 1.76561793,23.0642807 L2.93576998,24.2344327 C3.37929045,24.6779025 3.96887719,24.9221404 4.59601949,24.9221404 C5.22326316,24.9221404 5.81290058,24.6779025 6.25642105,24.2344327 L6.3228655,24.1679883 C8.32851462,25.3681949 10.6147914,26 12.9747602,26 C15.5468343,26 18.0316335,25.2500039 20.1607953,23.8310019 C20.3518674,23.7036374 20.4757856,23.4973099 20.4983899,23.2688343 C20.5210955,23.0402573 20.4400039,22.8137076 20.2776686,22.6513216 L16.8877349,19.2613372 C16.7967602,19.1704133 16.7303158,19.0612943 16.6900741,18.9368694 C16.6218051,18.7258285 16.4654503,18.5546745 16.2613528,18.4677037 C16.0573567,18.3806823 15.8254347,18.3863587 15.626,18.4834152 C14.8070253,18.8811696 13.8902846,19.0914503 12.9747602,19.0914503 C12.2447836,19.0914503 11.5141988,18.957345 10.8329279,18.7016023 C10.8329279,18.696078 10.8332827,18.6905536 10.8332827,18.6850292 C10.8332827,18.0577856 10.5890448,17.4681988 10.145575,17.0246784 L8.97552437,15.854577 C8.53195322,15.4110565 7.94236647,15.1668187 7.31512281,15.1668187 C7.30959844,15.1668187 7.30412476,15.1671735 7.29860039,15.1671735 C6.78356725,13.7939883 6.78356725,12.2567446 7.29860039,10.8835595 C7.30412476,10.8835595 7.30959844,10.8839142 7.31512281,10.8839142 C7.94236647,10.8839142 8.53195322,10.6396764 8.97552437,10.1962066 L10.145575,9.02615595 C10.5890955,8.5825848 10.833384,7.99299805 10.833384,7.36575439 C10.833384,7.36023002 10.8329786,7.35470565 10.8329786,7.34923197 C12.2064678,6.83409747 13.7443197,6.83424951 15.117809,7.34958674 C15.113653,7.95620273 15.3421793,8.56418713 15.8039454,9.02605458 L16.9741481,10.1961559 C17.4175673,10.6396764 18.0072047,10.8839142 18.6343977,10.8839142 C19.1184639,10.8839142 19.5797739,10.737848 19.9692164,10.4676101 C19.9751969,10.4634542 19.9810253,10.4592476 19.9870058,10.4550409 C20.0151345,10.4351228 20.0428577,10.4145458 20.0702261,10.3933606 C20.0798558,10.385809 20.0895361,10.3784094 20.099115,10.370807 C20.1237973,10.3510409 20.147922,10.3306667 20.1719454,10.3097856 C20.181271,10.3016764 20.1908499,10.2937193 20.2001248,10.2854074 C20.232308,10.2566199 20.2639844,10.2269708 20.2946979,10.1962066 L22.995809,7.4951462 C24.9063782,10.9408811 24.9063782,15.1100039 22.995809,18.5556881 L20.2946472,15.8545263 C20.0304405,15.5903197 19.7151969,15.3978285 19.3579376,15.2823236 C18.9551657,15.1519181 18.5229981,15.3729942 18.392846,15.7757154 C18.2626433,16.1784873 18.4835166,16.6105029 18.8862885,16.7407057 C19.0106628,16.7809474 19.119883,16.8474932 19.2107563,16.9384678 L22.6006901,20.3284016 C22.7451852,20.4727953 22.9404639,20.5528733 23.1425341,20.5528733 C23.1676725,20.5528733 23.1929123,20.5516569 23.2182027,20.5491228 C23.4466784,20.5265185 23.6530058,20.4026004 23.7803704,20.2115283 C25.1993723,18.0824172 25.9494191,15.5974659 25.9494191,13.0254425 C25.9493177,10.665423 25.317462,8.37904483 24.1172554,6.37339571 Z" id="Fill-7"></path>
            </g>
        </g>
    </g>
</svg>