<?xml version="1.0" encoding="UTF-8"?>
<svg width="20px" preserveAspectRatio="none" height="20px" viewBox="0 0 20 20" version="1.1" xmlns="http://www.w3.org/2000/svg" xmlns:xlink="http://www.w3.org/1999/xlink">
    <!-- Generator: Sketch 51.1 (57501) - http://www.bohemiancoding.com/sketch -->
    <title>calendar icon</title>
    <desc>Created with Sketch.</desc>
    <defs></defs>
    <g id="Patient-care-plan-alerts" stroke="none" stroke-width="1" fill="none" fill-rule="evenodd">
        <g id="Patienr-care-plan-alerts-list-view" transform="translate(-331.000000, -32.000000)">
            <g id="calendar-icon" transform="translate(331.000000, 32.000000)">
                <g id="calendar">
                    <polygon id="Fill-1" fill="#50E3C2" points="3.03953125 12.1799197 7.67964844 12.1799197 7.67964844 7.49305221 3.03953125 7.49305221"></polygon>
                    <polygon id="Fill-2" fill="#50E3C2" points="7.67964844 16.866747 12.3197656 16.866747 12.3197656 12.1798394 7.67964844 12.1798394"></polygon>
                    <polygon id="Fill-3" fill="#50E3C2" points="12.3203516 16.866747 16.9604687 16.866747 16.9604687 12.1798394 12.3203516 12.1798394"></polygon>
                    <g id="Group-7" fill="#000000">
                        <path d="M12.9280859,16.2417269 L16.3525781,16.2417269 L16.3525781,12.8048996 L12.9280859,12.8048996 L12.9280859,16.2417269 Z M8.28773438,16.2417269 L11.7122266,16.2417269 L11.7122266,12.8048996 L8.28773438,12.8048996 L8.28773438,16.2417269 Z M3.64742188,11.5549398 L7.07191406,11.5549398 L7.07191406,8.11803213 L3.64742188,8.11803213 L3.64742188,11.5549398 Z M8.28777344,11.5549398 L11.7122656,11.5549398 L11.7122656,8.11803213 L8.28777344,8.11803213 L8.28777344,11.5549398 Z M16.9604688,10.1046988 C17.29625,10.1046988 17.5683984,9.8248996 17.5683984,9.47971888 L17.5683984,7.49305221 C17.5683984,7.14787149 17.29625,6.86803213 16.9604688,6.86803213 L3.03953125,6.86803213 C2.70378906,6.86803213 2.43160156,7.14787149 2.43160156,7.49305221 L2.43160156,12.1799197 C2.43160156,12.5251004 2.70378906,12.8048996 3.03953125,12.8048996 L7.07191406,12.8048996 L7.07191406,16.2417269 L3.64742188,16.2417269 L3.64742188,14.6483936 C3.64742188,14.3032129 3.37527344,14.0234137 3.03953125,14.0234137 C2.70378906,14.0234137 2.43160156,14.3032129 2.43160156,14.6483936 L2.43160156,16.866747 C2.43160156,17.2119277 2.70378906,17.4917269 3.03953125,17.4917269 L16.9604688,17.4917269 C17.29625,17.4917269 17.5683984,17.2119277 17.5683984,16.866747 L17.5683984,12.1799197 C17.5683984,11.834739 17.29625,11.5549398 16.9604688,11.5549398 L12.9280859,11.5549398 L12.9280859,8.11803213 L16.3525781,8.11803213 L16.3525781,9.47971888 C16.3525781,9.82481928 16.6247266,10.1046988 16.9604688,10.1046988 Z" id="Fill-4"></path>
                        <path d="M19.3921094,5.62638554 C19.7278516,5.62638554 20,5.34654618 20,5.00136546 L20,1.87562249 C20,1.53040161 19.7278516,1.25060241 19.3921094,1.25060241 L15.9878516,1.25060241 L15.9878516,0.625983936 C15.9878516,0.280803213 15.7157031,0.00100401606 15.3799219,0.00100401606 C15.0441797,0.00100401606 14.7720312,0.280803213 14.7720312,0.625983936 L14.7720312,1.25060241 L5.22796875,1.25060241 L5.22796875,0.625983936 C5.22796875,0.280803213 4.95582031,0.00100401606 4.62007813,0.00100401606 C4.28429687,0.00100401606 4.01214844,0.280803213 4.01214844,0.625983936 L4.01214844,1.25060241 L0.607890625,1.25060241 C0.272148438,1.25060241 0,1.53040161 0,1.87562249 L0,19.3750201 C0,19.7202008 0.272148438,20 0.607890625,20 L19.3921094,20 C19.7278516,20 20,19.7202008 20,19.3750201 L20,7.49305221 C20,7.14787149 19.7278516,6.86803213 19.3921094,6.86803213 C19.0563672,6.86803213 18.7841797,7.14787149 18.7841797,7.49305221 L18.7841797,18.7500402 L1.21582031,18.7500402 L1.21582031,5.62638554 L15.3799219,5.62638554 C15.7157031,5.62638554 15.9878516,5.34654618 15.9878516,5.00136546 C15.9878516,4.65618474 15.7157031,4.37638554 15.3799219,4.37638554 L1.21582031,4.37638554 L1.21582031,2.50060241 L4.01214844,2.50060241 L4.01214844,2.81309237 C4.01214844,3.15827309 4.28429687,3.43807229 4.62007813,3.43807229 C4.95582031,3.43807229 5.22796875,3.15827309 5.22796875,2.81309237 L5.22796875,2.50060241 L14.7720312,2.50060241 L14.7720312,2.81309237 C14.7720312,3.15827309 15.0441797,3.43807229 15.3799219,3.43807229 C15.7157031,3.43807229 15.9878516,3.15827309 15.9878516,2.81309237 L15.9878516,2.50060241 L18.7841797,2.50060241 L18.7841797,5.00136546 C18.7841797,5.34654618 19.0563672,5.62638554 19.3921094,5.62638554" id="Fill-6"></path>
                    </g>
                </g>
            </g>
        </g>
    </g>
</svg>