<?xml version="1.0" encoding="UTF-8"?>
<svg width="24px" height="24px" preserveAspectRatio="none" viewBox="0 0 24 24" version="1.1" xmlns="http://www.w3.org/2000/svg" xmlns:xlink="http://www.w3.org/1999/xlink">
    <!-- Generator: Sketch 51.1 (57501) - http://www.bohemiancoding.com/sketch -->
    <title>time icon</title>
    <desc>Created with Sketch.</desc>
    <defs></defs>
    <g id="To-Do-list" stroke="none" stroke-width="1" fill="none" fill-rule="evenodd">
        <g id="appointment-request-expanded-example" transform="translate(-214.000000, -110.000000)" fill="#01579B">
            <g id="time" transform="translate(214.000000, 110.000000)">
                <g id="time-icon-highlighted">
                    <g id="Group">
                        <g id="Group-3">
                            <path d="M11.9591825,23.9417226 C5.3649635,23.9417226 0,18.5767591 0,11.9825401 C0,9.0659854 1.06160584,6.25670073 2.98948905,4.07240876 C3.24659854,3.78090511 3.69115328,3.75328467 3.98242336,4.01033577 C4.27375182,4.26744526 4.30154745,4.712 4.04449635,5.00327007 C2.34353285,6.93051095 1.40694891,9.40905109 1.40694891,11.9825401 C1.40694891,17.8009343 6.14072993,22.5345401 11.9591825,22.5345401 C17.7775766,22.5345401 22.5111825,17.8009343 22.5111825,11.9825401 C22.5111825,6.16408759 17.7775766,1.43030657 11.9591825,1.43030657 C10.3483212,1.43030657 8.80221898,1.78364964 7.3640292,2.48046715 C7.01483212,2.64992701 6.5939854,2.50376642 6.42452555,2.1540438 C6.2550073,1.80461314 6.4009927,1.38376642 6.75065693,1.21430657 C8.38160584,0.424116788 10.1338978,0.0233576642 11.9591825,0.0233576642 C18.5534015,0.0233576642 23.918365,5.38832117 23.918365,11.9825401 C23.918365,18.5767591 18.5534015,23.9417226 11.9591825,23.9417226 Z" id="Fill-1"></path>
                        </g>
                        <path d="M11.9591825,21.1275912 C6.91626277,21.1275912 2.81389781,17.0251679 2.81389781,11.9825401 C2.81389781,6.93962044 6.91626277,2.83719708 11.9591825,2.83719708 C17.0018102,2.83719708 21.1042336,6.93962044 21.1042336,11.9825401 C21.1042336,17.0251679 17.0018102,21.1275912 11.9591825,21.1275912 Z M11.9591825,4.24414599 C7.69226277,4.24414599 4.22078832,7.71562044 4.22078832,11.9825401 C4.22078832,16.2494015 7.69226277,19.7206423 11.9591825,19.7206423 C16.2260438,19.7206423 19.6972847,16.2494015 19.6972847,11.9825401 C19.6972847,7.71562044 16.2260438,4.24414599 11.9591825,4.24414599 Z" id="Fill-5"></path>
                        <path d="M11.733781,14.4270949 C11.2378978,14.4270949 10.741781,14.2382482 10.3640292,13.8604964 L8.46715328,11.9636204 C8.19229197,11.6887591 8.19229197,11.2432701 8.46715328,10.9685839 C8.74178102,10.6939562 9.1870365,10.6939562 9.46189781,10.9685839 L11.3590073,12.8657518 C11.4591533,12.9656642 11.5924088,13.0208467 11.733781,13.0208467 C11.8754453,13.0208467 12.0084672,12.9656642 12.1085547,12.8657518 L15.0189197,9.95515328 C15.293781,9.68052555 15.7390365,9.68052555 16.0138978,9.95515328 C16.2885255,10.2300146 16.2885255,10.6752701 16.0138978,10.9501314 L13.1035328,13.8604964 C12.7258394,14.2382482 12.2299562,14.4270949 11.733781,14.4270949 Z" id="Fill-6"></path>
                    </g>
                </g>
            </g>
        </g>
    </g>
</svg>