<?xml version="1.0" encoding="UTF-8"?>
<svg width="24px" preserveAspectRatio="none" height="24px" viewBox="0 0 24 24" version="1.1" xmlns="http://www.w3.org/2000/svg" xmlns:xlink="http://www.w3.org/1999/xlink">
    <!-- Generator: Sketch 51.1 (57501) - http://www.bohemiancoding.com/sketch -->
    <title>calendar icon</title>
    <desc>Created with Sketch.</desc>
    <defs></defs>
    <g id="To-Do-list" stroke="none" stroke-width="1" fill="none" fill-rule="evenodd">
        <g id="appointment-request-expanded-example" transform="translate(-20.000000, -110.000000)" fill="#01579B">
            <g id="date" transform="translate(20.000000, 110.000000)">
                <g id="calendar-icon-bi-highlights">
                    <g id="calendar">
                        <g id="Group-7">
                            <path d="M15.5137031,19.4900723 L19.6230937,19.4900723 L19.6230937,15.3658795 L15.5137031,15.3658795 L15.5137031,19.4900723 Z M9.94528125,19.4900723 L14.0546719,19.4900723 L14.0546719,15.3658795 L9.94528125,15.3658795 L9.94528125,19.4900723 Z M4.37690625,13.8659277 L8.48629688,13.8659277 L8.48629688,9.74163855 L4.37690625,9.74163855 L4.37690625,13.8659277 Z M9.94532812,13.8659277 L14.0547188,13.8659277 L14.0547188,9.74163855 L9.94532812,9.74163855 L9.94532812,13.8659277 Z M20.3525625,12.1256386 C20.7555,12.1256386 21.0820781,11.7898795 21.0820781,11.3756627 L21.0820781,8.99166265 C21.0820781,8.57744578 20.7555,8.24163855 20.3525625,8.24163855 L3.6474375,8.24163855 C3.24454688,8.24163855 2.91792188,8.57744578 2.91792188,8.99166265 L2.91792188,14.6159036 C2.91792188,15.0301205 3.24454688,15.3658795 3.6474375,15.3658795 L8.48629688,15.3658795 L8.48629688,19.4900723 L4.37690625,19.4900723 L4.37690625,17.5780723 C4.37690625,17.1638554 4.05032813,16.8280964 3.6474375,16.8280964 C3.24454688,16.8280964 2.91792188,17.1638554 2.91792188,17.5780723 L2.91792188,20.2400964 C2.91792188,20.6543133 3.24454688,20.9900723 3.6474375,20.9900723 L20.3525625,20.9900723 C20.7555,20.9900723 21.0820781,20.6543133 21.0820781,20.2400964 L21.0820781,14.6159036 C21.0820781,14.2016867 20.7555,13.8659277 20.3525625,13.8659277 L15.5137031,13.8659277 L15.5137031,9.74163855 L19.6230938,9.74163855 L19.6230938,11.3756627 C19.6230938,11.7897831 19.9496719,12.1256386 20.3525625,12.1256386 Z" id="Fill-4"></path>
                            <path d="M23.2705312,6.75166265 C23.6734219,6.75166265 24,6.41585542 24,6.00163855 L24,2.25074699 C24,1.83648193 23.6734219,1.50072289 23.2705312,1.50072289 L19.1854219,1.50072289 L19.1854219,0.751180723 C19.1854219,0.336963855 18.8588437,0.00120481928 18.4559062,0.00120481928 C18.0530156,0.00120481928 17.7264375,0.336963855 17.7264375,0.751180723 L17.7264375,1.50072289 L6.2735625,1.50072289 L6.2735625,0.751180723 C6.2735625,0.336963855 5.94698437,0.00120481928 5.54409375,0.00120481928 C5.14115625,0.00120481928 4.81457812,0.336963855 4.81457812,0.751180723 L4.81457812,1.50072289 L0.72946875,1.50072289 C0.326578125,1.50072289 0,1.83648193 0,2.25074699 L0,23.2500241 C0,23.664241 0.326578125,24 0.72946875,24 L23.2705312,24 C23.6734219,24 24,23.664241 24,23.2500241 L24,8.99166265 C24,8.57744578 23.6734219,8.24163855 23.2705312,8.24163855 C22.8676406,8.24163855 22.5410156,8.57744578 22.5410156,8.99166265 L22.5410156,22.5000482 L1.45898438,22.5000482 L1.45898438,6.75166265 L18.4559062,6.75166265 C18.8588437,6.75166265 19.1854219,6.41585542 19.1854219,6.00163855 C19.1854219,5.58742169 18.8588437,5.25166265 18.4559062,5.25166265 L1.45898438,5.25166265 L1.45898438,3.00072289 L4.81457812,3.00072289 L4.81457812,3.37571084 C4.81457812,3.78992771 5.14115625,4.12568675 5.54409375,4.12568675 C5.94698437,4.12568675 6.2735625,3.78992771 6.2735625,3.37571084 L6.2735625,3.00072289 L17.7264375,3.00072289 L17.7264375,3.37571084 C17.7264375,3.78992771 18.0530156,4.12568675 18.4559062,4.12568675 C18.8588437,4.12568675 19.1854219,3.78992771 19.1854219,3.37571084 L19.1854219,3.00072289 L22.5410156,3.00072289 L22.5410156,6.00163855 C22.5410156,6.41585542 22.8676406,6.75166265 23.2705312,6.75166265" id="Fill-6"></path>
                        </g>
                    </g>
                </g>
            </g>
        </g>
    </g>
</svg>