<?xml version="1.0" encoding="UTF-8"?>
<svg preserveAspectRatio="none" width="17px" height="16px" viewBox="0 0 17 16" version="1.1" xmlns="http://www.w3.org/2000/svg" xmlns:xlink="http://www.w3.org/1999/xlink">
    <!-- Generator: Sketch 51.1 (57501) - http://www.bohemiancoding.com/sketch -->
    <title>menu icon</title>
    <desc>Created with Sketch.</desc>
    <defs></defs>
    <g id="Dashboard" stroke="none" stroke-width="1" fill="none" fill-rule="evenodd">
        <g id="dashboard" transform="translate(-21.000000, -34.000000)">
            <g id="menu-icon" transform="translate(20.000000, 34.000000)">
                <g id="Group" transform="translate(1.000000, 0.000000)">
                    <path d="M16.0578328,15.6697336 L0.692320557,15.6697336 C0.309790941,15.6697336 0,15.3556773 0,14.9682552 L0,12.302469 C0,11.9148068 0.309790941,11.6007505 0.692320557,11.6007505 L9.13604878,11.6007505 C9.51828223,11.6007505 9.82836934,11.9148068 9.82836934,12.302469 C9.82836934,12.6898912 9.51828223,13.0038874 9.13604878,13.0038874 L1.38434495,13.0038874 L1.38434495,14.2665966 L15.3657491,14.2665966 L15.3657491,13.0038874 L13.2891429,13.0038874 C12.9068502,13.0038874 12.5970592,12.6898912 12.5970592,12.302469 C12.5970592,11.9148068 12.9068502,11.6007505 13.2891429,11.6007505 L16.0578328,11.6007505 C16.4403031,11.6007505 16.7500941,11.9148068 16.7500941,12.302469 L16.7500941,14.9682552 C16.7500941,15.3556773 16.4400662,15.6697336 16.0578328,15.6697336 Z" id="Fill-1" fill="#000000"></path>
                    <polygon id="Fill-3" fill="#41CBC7" points="0.692320557 9.1190394 16.0580697 9.1190394 16.0580697 6.45325328 0.692320557 6.45325328"></polygon>
                    <path d="M16.0578328,9.82099812 L0.692320557,9.82099812 C0.309790941,9.82099812 0,9.50694184 0,9.1195197 L0,6.45349343 C0,6.06607129 0.309790941,5.75177486 0.692320557,5.75177486 L16.0578328,5.75177486 C16.4400662,5.75177486 16.7500941,6.06607129 16.7500941,6.45349343 L16.7500941,9.1195197 C16.7500941,9.50694184 16.4400662,9.82099812 16.0578328,9.82099812 Z M1.38434495,8.41786116 L15.3657491,8.41786116 L15.3657491,7.15515197 L1.38434495,7.15515197 L1.38434495,8.41786116 Z" id="Fill-4" fill="#000000"></path>
                    <polygon id="Fill-5" fill="#41CBC7" points="0.692320557 3.42418011 16.0580697 3.42418011 16.0580697 0.758153846 0.692320557 0.758153846"></polygon>
                    <path d="M16.0578328,4.1255985 L0.692320557,4.1255985 C0.309790941,4.1255985 0,3.81160225 0,3.42418011 L0,0.758393996 C0,0.37067167 0.309790941,0.0566754221 0.692320557,0.0566754221 L16.0578328,0.0566754221 C16.4400662,0.0566754221 16.7500941,0.37067167 16.7500941,0.758393996 L16.7500941,3.42418011 C16.7500941,3.81160225 16.4400662,4.1255985 16.0578328,4.1255985 Z M1.38434495,2.72246154 L15.3657491,2.72246154 L15.3657491,1.45981238 L1.38434495,1.45981238 L1.38434495,2.72246154 Z" id="Fill-6" fill="#000000"></path>
                </g>
            </g>
        </g>
    </g>
</svg>